{"asset": {"generator": "Khronos glTF Blender I/O v3.3.32", "version": "2.0"}, "scene": 0, "scenes": [{"name": "blend_export", "nodes": [0, 1]}], "nodes": [{"mesh": 0, "name": "spray_paint_bottles", "translation": [-0.046261370182037354, 0, -0.00019100308418273926]}, {"mesh": 1, "name": "spray_paint_bottles_dirty", "translation": [0.04626152664422989, 0, -0.00019083917140960693]}], "materials": [{"doubleSided": true, "name": "spray_paint_bottles", "pbrMetallicRoughness": {"baseColorFactor": [0.85, 0.15, 0.55, 1.0], "roughnessFactor": 0.85, "metallicFactor": 0.1}}, {"doubleSided": true, "name": "spray_paint_bottles_dirty", "pbrMetallicRoughness": {"baseColorFactor": [0.15, 0.13, 0.1, 1.0], "roughnessFactor": 0.85, "metallicFactor": 0.1}}], "meshes": [{"name": "Cylinder.001", "primitives": [{"attributes": {"POSITION": 0, "NORMAL": 1, "TEXCOORD_0": 2}, "indices": 3, "material": 0}]}, {"name": "Cylinder.013", "primitives": [{"attributes": {"POSITION": 4, "NORMAL": 5, "TEXCOORD_0": 6}, "indices": 3, "material": 1}]}], "accessors": [{"bufferView": 0, "componentType": 5126, "count": 1588, "max": [0.03282187879085541, 0.22863975167274475, 0.032821718603372574], "min": [-0.03282156214118004, 0, -0.032821718603372574], "type": "VEC3"}, {"bufferView": 1, "componentType": 5126, "count": 1588, "type": "VEC3"}, {"bufferView": 2, "componentType": 5126, "count": 1588, "type": "VEC2"}, {"bufferView": 3, "componentType": 5123, "count": 7560, "type": "SCALAR"}, {"bufferView": 4, "componentType": 5126, "count": 1588, "max": [0.03282172232866287, 0.22863975167274475, 0.03282173350453377], "min": [-0.032821718603372574, 0, -0.03282170370221138], "type": "VEC3"}, {"bufferView": 5, "componentType": 5126, "count": 1588, "type": "VEC3"}, {"bufferView": 6, "componentType": 5126, "count": 1588, "type": "VEC2"}], "bufferViews": [{"buffer": 0, "byteLength": 19056, "byteOffset": 0, "target": 34962}, {"buffer": 0, "byteLength": 19056, "byteOffset": 19056, "target": 34962}, {"buffer": 0, "byteLength": 12704, "byteOffset": 38112, "target": 34962}, {"buffer": 0, "byteLength": 15120, "byteOffset": 50816, "target": 34963}, {"buffer": 0, "byteLength": 19056, "byteOffset": 65936, "target": 34962}, {"buffer": 0, "byteLength": 19056, "byteOffset": 84992, "target": 34962}, {"buffer": 0, "byteLength": 12704, "byteOffset": 104048, "target": 34962}], "buffers": [{"byteLength": 116752, "uri": "spray_paint_bottles.bin"}]}