# Cheap welded-wire roll fence - one bay inclusive
v -1.170000 0.000000 0.000000
v -1.172971 0.000000 -0.013017
v -1.181295 0.000000 -0.023455
v -1.193324 0.000000 -0.029248
v -1.206676 0.000000 -0.029248
v -1.218705 0.000000 -0.023455
v -1.227029 0.000000 -0.013017
v -1.230000 0.000000 -0.000000
v -1.227029 0.000000 0.013017
v -1.218705 0.000000 0.023455
v -1.206676 0.000000 0.029248
v -1.193324 0.000000 0.029248
v -1.181295 0.000000 0.023455
v -1.172971 0.000000 0.013017
v -1.170000 1.300000 0.000000
v -1.172971 1.300000 -0.013017
v -1.181295 1.300000 -0.023455
v -1.193324 1.300000 -0.029248
v -1.206676 1.300000 -0.029248
v -1.218705 1.300000 -0.023455
v -1.227029 1.300000 -0.013017
v -1.230000 1.300000 -0.000000
v -1.227029 1.300000 0.013017
v -1.218705 1.300000 0.023455
v -1.206676 1.300000 0.029248
v -1.193324 1.300000 0.029248
v -1.181295 1.300000 0.023455
v -1.172971 1.300000 0.013017
v -1.200000 0.000000 0.000000
v -1.200000 1.300000 0.000000
v 1.230000 0.000000 0.000000
v 1.227029 0.000000 -0.013017
v 1.218705 0.000000 -0.023455
v 1.206676 0.000000 -0.029248
v 1.193324 0.000000 -0.029248
v 1.181295 0.000000 -0.023455
v 1.172971 0.000000 -0.013017
v 1.170000 0.000000 -0.000000
v 1.172971 0.000000 0.013017
v 1.181295 0.000000 0.023455
v 1.193324 0.000000 0.029248
v 1.206676 0.000000 0.029248
v 1.218705 0.000000 0.023455
v 1.227029 0.000000 0.013017
v 1.230000 1.300000 0.000000
v 1.227029 1.300000 -0.013017
v 1.218705 1.300000 -0.023455
v 1.206676 1.300000 -0.029248
v 1.193324 1.300000 -0.029248
v 1.181295 1.300000 -0.023455
v 1.172971 1.300000 -0.013017
v 1.170000 1.300000 -0.000000
v 1.172971 1.300000 0.013017
v 1.181295 1.300000 0.023455
v 1.193324 1.300000 0.029248
v 1.206676 1.300000 0.029248
v 1.218705 1.300000 0.023455
v 1.227029 1.300000 0.013017
v 1.200000 0.000000 0.000000
v 1.200000 1.300000 0.000000
v -1.200000 1.180000 0.020000
v -1.200000 1.170000 0.017321
v -1.200000 1.162679 0.010000
v -1.200000 1.160000 0.000000
v -1.200000 1.162679 -0.010000
v -1.200000 1.170000 -0.017321
v -1.200000 1.180000 -0.020000
v -1.200000 1.190000 -0.017321
v -1.200000 1.197321 -0.010000
v -1.200000 1.200000 -0.000000
v -1.200000 1.197321 0.010000
v -1.200000 1.190000 0.017321
v 1.200000 1.180000 0.020000
v 1.200000 1.170000 0.017321
v 1.200000 1.162679 0.010000
v 1.200000 1.160000 0.000000
v 1.200000 1.162679 -0.010000
v 1.200000 1.170000 -0.017321
v 1.200000 1.180000 -0.020000
v 1.200000 1.190000 -0.017321
v 1.200000 1.197321 -0.010000
v 1.200000 1.200000 -0.000000
v 1.200000 1.197321 0.010000
v 1.200000 1.190000 0.017321
v -1.200000 1.180000 0.000000
v 1.200000 1.180000 0.000000
v -1.168500 0.100000 0.000000
v -1.168939 0.100000 -0.001061
v -1.170000 0.100000 -0.001500
v -1.171061 0.100000 -0.001061
v -1.171500 0.100000 -0.000000
v -1.171061 0.100000 0.001061
v -1.170000 0.100000 0.001500
v -1.168939 0.100000 0.001061
v -1.168500 1.160000 0.000000
v -1.168939 1.160000 -0.001061
v -1.170000 1.160000 -0.001500
v -1.171061 1.160000 -0.001061
v -1.171500 1.160000 -0.000000
v -1.171061 1.160000 0.001061
v -1.170000 1.160000 0.001500
v -1.168939 1.160000 0.001061
v -1.170000 0.100000 0.000000
v -1.170000 1.160000 0.000000
v -0.934500 0.100000 0.000000
v -0.934939 0.100000 -0.001061
v -0.936000 0.100000 -0.001500
v -0.937061 0.100000 -0.001061
v -0.937500 0.100000 -0.000000
v -0.937061 0.100000 0.001061
v -0.936000 0.100000 0.001500
v -0.934939 0.100000 0.001061
v -0.934500 1.160000 0.000000
v -0.934939 1.160000 -0.001061
v -0.936000 1.160000 -0.001500
v -0.937061 1.160000 -0.001061
v -0.937500 1.160000 -0.000000
v -0.937061 1.160000 0.001061
v -0.936000 1.160000 0.001500
v -0.934939 1.160000 0.001061
v -0.936000 0.100000 0.000000
v -0.936000 1.160000 0.000000
v -0.700500 0.100000 0.000000
v -0.700939 0.100000 -0.001061
v -0.702000 0.100000 -0.001500
v -0.703061 0.100000 -0.001061
v -0.703500 0.100000 -0.000000
v -0.703061 0.100000 0.001061
v -0.702000 0.100000 0.001500
v -0.700939 0.100000 0.001061
v -0.700500 1.160000 0.000000
v -0.700939 1.160000 -0.001061
v -0.702000 1.160000 -0.001500
v -0.703061 1.160000 -0.001061
v -0.703500 1.160000 -0.000000
v -0.703061 1.160000 0.001061
v -0.702000 1.160000 0.001500
v -0.700939 1.160000 0.001061
v -0.702000 0.100000 0.000000
v -0.702000 1.160000 0.000000
v -0.466500 0.100000 0.000000
v -0.466939 0.100000 -0.001061
v -0.468000 0.100000 -0.001500
v -0.469061 0.100000 -0.001061
v -0.469500 0.100000 -0.000000
v -0.469061 0.100000 0.001061
v -0.468000 0.100000 0.001500
v -0.466939 0.100000 0.001061
v -0.466500 1.160000 0.000000
v -0.466939 1.160000 -0.001061
v -0.468000 1.160000 -0.001500
v -0.469061 1.160000 -0.001061
v -0.469500 1.160000 -0.000000
v -0.469061 1.160000 0.001061
v -0.468000 1.160000 0.001500
v -0.466939 1.160000 0.001061
v -0.468000 0.100000 0.000000
v -0.468000 1.160000 0.000000
v -0.232500 0.100000 0.000000
v -0.232939 0.100000 -0.001061
v -0.234000 0.100000 -0.001500
v -0.235061 0.100000 -0.001061
v -0.235500 0.100000 -0.000000
v -0.235061 0.100000 0.001061
v -0.234000 0.100000 0.001500
v -0.232939 0.100000 0.001061
v -0.232500 1.160000 0.000000
v -0.232939 1.160000 -0.001061
v -0.234000 1.160000 -0.001500
v -0.235061 1.160000 -0.001061
v -0.235500 1.160000 -0.000000
v -0.235061 1.160000 0.001061
v -0.234000 1.160000 0.001500
v -0.232939 1.160000 0.001061
v -0.234000 0.100000 0.000000
v -0.234000 1.160000 0.000000
v 0.001500 0.100000 0.000000
v 0.001061 0.100000 -0.001061
v 0.000000 0.100000 -0.001500
v -0.001061 0.100000 -0.001061
v -0.001500 0.100000 -0.000000
v -0.001061 0.100000 0.001061
v -0.000000 0.100000 0.001500
v 0.001061 0.100000 0.001061
v 0.001500 1.160000 0.000000
v 0.001061 1.160000 -0.001061
v 0.000000 1.160000 -0.001500
v -0.001061 1.160000 -0.001061
v -0.001500 1.160000 -0.000000
v -0.001061 1.160000 0.001061
v -0.000000 1.160000 0.001500
v 0.001061 1.160000 0.001061
v 0.000000 0.100000 0.000000
v 0.000000 1.160000 0.000000
v 0.235500 0.100000 0.000000
v 0.235061 0.100000 -0.001061
v 0.234000 0.100000 -0.001500
v 0.232939 0.100000 -0.001061
v 0.232500 0.100000 -0.000000
v 0.232939 0.100000 0.001061
v 0.234000 0.100000 0.001500
v 0.235061 0.100000 0.001061
v 0.235500 1.160000 0.000000
v 0.235061 1.160000 -0.001061
v 0.234000 1.160000 -0.001500
v 0.232939 1.160000 -0.001061
v 0.232500 1.160000 -0.000000
v 0.232939 1.160000 0.001061
v 0.234000 1.160000 0.001500
v 0.235061 1.160000 0.001061
v 0.234000 0.100000 0.000000
v 0.234000 1.160000 0.000000
v 0.469500 0.100000 0.000000
v 0.469061 0.100000 -0.001061
v 0.468000 0.100000 -0.001500
v 0.466939 0.100000 -0.001061
v 0.466500 0.100000 -0.000000
v 0.466939 0.100000 0.001061
v 0.468000 0.100000 0.001500
v 0.469061 0.100000 0.001061
v 0.469500 1.160000 0.000000
v 0.469061 1.160000 -0.001061
v 0.468000 1.160000 -0.001500
v 0.466939 1.160000 -0.001061
v 0.466500 1.160000 -0.000000
v 0.466939 1.160000 0.001061
v 0.468000 1.160000 0.001500
v 0.469061 1.160000 0.001061
v 0.468000 0.100000 0.000000
v 0.468000 1.160000 0.000000
v 0.703500 0.100000 0.000000
v 0.703061 0.100000 -0.001061
v 0.702000 0.100000 -0.001500
v 0.700939 0.100000 -0.001061
v 0.700500 0.100000 -0.000000
v 0.700939 0.100000 0.001061
v 0.702000 0.100000 0.001500
v 0.703061 0.100000 0.001061
v 0.703500 1.160000 0.000000
v 0.703061 1.160000 -0.001061
v 0.702000 1.160000 -0.001500
v 0.700939 1.160000 -0.001061
v 0.700500 1.160000 -0.000000
v 0.700939 1.160000 0.001061
v 0.702000 1.160000 0.001500
v 0.703061 1.160000 0.001061
v 0.702000 0.100000 0.000000
v 0.702000 1.160000 0.000000
v 0.937500 0.100000 0.000000
v 0.937061 0.100000 -0.001061
v 0.936000 0.100000 -0.001500
v 0.934939 0.100000 -0.001061
v 0.934500 0.100000 -0.000000
v 0.934939 0.100000 0.001061
v 0.936000 0.100000 0.001500
v 0.937061 0.100000 0.001061
v 0.937500 1.160000 0.000000
v 0.937061 1.160000 -0.001061
v 0.936000 1.160000 -0.001500
v 0.934939 1.160000 -0.001061
v 0.934500 1.160000 -0.000000
v 0.934939 1.160000 0.001061
v 0.936000 1.160000 0.001500
v 0.937061 1.160000 0.001061
v 0.936000 0.100000 0.000000
v 0.936000 1.160000 0.000000
v 1.171500 0.100000 0.000000
v 1.171061 0.100000 -0.001061
v 1.170000 0.100000 -0.001500
v 1.168939 0.100000 -0.001061
v 1.168500 0.100000 -0.000000
v 1.168939 0.100000 0.001061
v 1.170000 0.100000 0.001500
v 1.171061 0.100000 0.001061
v 1.171500 1.160000 0.000000
v 1.171061 1.160000 -0.001061
v 1.170000 1.160000 -0.001500
v 1.168939 1.160000 -0.001061
v 1.168500 1.160000 -0.000000
v 1.168939 1.160000 0.001061
v 1.170000 1.160000 0.001500
v 1.171061 1.160000 0.001061
v 1.170000 0.100000 0.000000
v 1.170000 1.160000 0.000000
v -1.170000 0.100000 0.001500
v -1.170000 0.098939 0.001061
v -1.170000 0.098500 0.000000
v -1.170000 0.098939 -0.001061
v -1.170000 0.100000 -0.001500
v -1.170000 0.101061 -0.001061
v -1.170000 0.101500 -0.000000
v -1.170000 0.101061 0.001061
v 1.170000 0.100000 0.001500
v 1.170000 0.098939 0.001061
v 1.170000 0.098500 0.000000
v 1.170000 0.098939 -0.001061
v 1.170000 0.100000 -0.001500
v 1.170000 0.101061 -0.001061
v 1.170000 0.101500 -0.000000
v 1.170000 0.101061 0.001061
v -1.170000 0.100000 0.000000
v 1.170000 0.100000 0.000000
v -1.170000 0.276667 0.001500
v -1.170000 0.275606 0.001061
v -1.170000 0.275167 0.000000
v -1.170000 0.275606 -0.001061
v -1.170000 0.276667 -0.001500
v -1.170000 0.277727 -0.001061
v -1.170000 0.278167 -0.000000
v -1.170000 0.277727 0.001061
v 1.170000 0.276667 0.001500
v 1.170000 0.275606 0.001061
v 1.170000 0.275167 0.000000
v 1.170000 0.275606 -0.001061
v 1.170000 0.276667 -0.001500
v 1.170000 0.277727 -0.001061
v 1.170000 0.278167 -0.000000
v 1.170000 0.277727 0.001061
v -1.170000 0.276667 0.000000
v 1.170000 0.276667 0.000000
v -1.170000 0.453333 0.001500
v -1.170000 0.452273 0.001061
v -1.170000 0.451833 0.000000
v -1.170000 0.452273 -0.001061
v -1.170000 0.453333 -0.001500
v -1.170000 0.454394 -0.001061
v -1.170000 0.454833 -0.000000
v -1.170000 0.454394 0.001061
v 1.170000 0.453333 0.001500
v 1.170000 0.452273 0.001061
v 1.170000 0.451833 0.000000
v 1.170000 0.452273 -0.001061
v 1.170000 0.453333 -0.001500
v 1.170000 0.454394 -0.001061
v 1.170000 0.454833 -0.000000
v 1.170000 0.454394 0.001061
v -1.170000 0.453333 0.000000
v 1.170000 0.453333 0.000000
v -1.170000 0.630000 0.001500
v -1.170000 0.628939 0.001061
v -1.170000 0.628500 0.000000
v -1.170000 0.628939 -0.001061
v -1.170000 0.630000 -0.001500
v -1.170000 0.631061 -0.001061
v -1.170000 0.631500 -0.000000
v -1.170000 0.631061 0.001061
v 1.170000 0.630000 0.001500
v 1.170000 0.628939 0.001061
v 1.170000 0.628500 0.000000
v 1.170000 0.628939 -0.001061
v 1.170000 0.630000 -0.001500
v 1.170000 0.631061 -0.001061
v 1.170000 0.631500 -0.000000
v 1.170000 0.631061 0.001061
v -1.170000 0.630000 0.000000
v 1.170000 0.630000 0.000000
v -1.170000 0.806667 0.001500
v -1.170000 0.805606 0.001061
v -1.170000 0.805167 0.000000
v -1.170000 0.805606 -0.001061
v -1.170000 0.806667 -0.001500
v -1.170000 0.807727 -0.001061
v -1.170000 0.808167 -0.000000
v -1.170000 0.807727 0.001061
v 1.170000 0.806667 0.001500
v 1.170000 0.805606 0.001061
v 1.170000 0.805167 0.000000
v 1.170000 0.805606 -0.001061
v 1.170000 0.806667 -0.001500
v 1.170000 0.807727 -0.001061
v 1.170000 0.808167 -0.000000
v 1.170000 0.807727 0.001061
v -1.170000 0.806667 0.000000
v 1.170000 0.806667 0.000000
v -1.170000 0.983333 0.001500
v -1.170000 0.982273 0.001061
v -1.170000 0.981833 0.000000
v -1.170000 0.982273 -0.001061
v -1.170000 0.983333 -0.001500
v -1.170000 0.984394 -0.001061
v -1.170000 0.984833 -0.000000
v -1.170000 0.984394 0.001061
v 1.170000 0.983333 0.001500
v 1.170000 0.982273 0.001061
v 1.170000 0.981833 0.000000
v 1.170000 0.982273 -0.001061
v 1.170000 0.983333 -0.001500
v 1.170000 0.984394 -0.001061
v 1.170000 0.984833 -0.000000
v 1.170000 0.984394 0.001061
v -1.170000 0.983333 0.000000
v 1.170000 0.983333 0.000000
v -1.170000 1.160000 0.001500
v -1.170000 1.158939 0.001061
v -1.170000 1.158500 0.000000
v -1.170000 1.158939 -0.001061
v -1.170000 1.160000 -0.001500
v -1.170000 1.161061 -0.001061
v -1.170000 1.161500 -0.000000
v -1.170000 1.161061 0.001061
v 1.170000 1.160000 0.001500
v 1.170000 1.158939 0.001061
v 1.170000 1.158500 0.000000
v 1.170000 1.158939 -0.001061
v 1.170000 1.160000 -0.001500
v 1.170000 1.161061 -0.001061
v 1.170000 1.161500 -0.000000
v 1.170000 1.161061 0.001061
v -1.170000 1.160000 0.000000
v 1.170000 1.160000 0.000000
g post-1
f 1 2 16
f 1 16 15
f 2 3 17
f 2 17 16
f 3 4 18
f 3 18 17
f 4 5 19
f 4 19 18
f 5 6 20
f 5 20 19
f 6 7 21
f 6 21 20
f 7 8 22
f 7 22 21
f 8 9 23
f 8 23 22
f 9 10 24
f 9 24 23
f 10 11 25
f 10 25 24
f 11 12 26
f 11 26 25
f 12 13 27
f 12 27 26
f 13 14 28
f 13 28 27
f 14 1 15
f 14 15 28
f 29 2 1
f 30 15 16
f 29 3 2
f 30 16 17
f 29 4 3
f 30 17 18
f 29 5 4
f 30 18 19
f 29 6 5
f 30 19 20
f 29 7 6
f 30 20 21
f 29 8 7
f 30 21 22
f 29 9 8
f 30 22 23
f 29 10 9
f 30 23 24
f 29 11 10
f 30 24 25
f 29 12 11
f 30 25 26
f 29 13 12
f 30 26 27
f 29 14 13
f 30 27 28
f 29 1 14
f 30 28 15
g post-2
f 31 32 46
f 31 46 45
f 32 33 47
f 32 47 46
f 33 34 48
f 33 48 47
f 34 35 49
f 34 49 48
f 35 36 50
f 35 50 49
f 36 37 51
f 36 51 50
f 37 38 52
f 37 52 51
f 38 39 53
f 38 53 52
f 39 40 54
f 39 54 53
f 40 41 55
f 40 55 54
f 41 42 56
f 41 56 55
f 42 43 57
f 42 57 56
f 43 44 58
f 43 58 57
f 44 31 45
f 44 45 58
f 59 32 31
f 60 45 46
f 59 33 32
f 60 46 47
f 59 34 33
f 60 47 48
f 59 35 34
f 60 48 49
f 59 36 35
f 60 49 50
f 59 37 36
f 60 50 51
f 59 38 37
f 60 51 52
f 59 39 38
f 60 52 53
f 59 40 39
f 60 53 54
f 59 41 40
f 60 54 55
f 59 42 41
f 60 55 56
f 59 43 42
f 60 56 57
f 59 44 43
f 60 57 58
f 59 31 44
f 60 58 45
g top-rail
f 61 62 74
f 61 74 73
f 62 63 75
f 62 75 74
f 63 64 76
f 63 76 75
f 64 65 77
f 64 77 76
f 65 66 78
f 65 78 77
f 66 67 79
f 66 79 78
f 67 68 80
f 67 80 79
f 68 69 81
f 68 81 80
f 69 70 82
f 69 82 81
f 70 71 83
f 70 83 82
f 71 72 84
f 71 84 83
f 72 61 73
f 72 73 84
f 85 62 61
f 86 73 74
f 85 63 62
f 86 74 75
f 85 64 63
f 86 75 76
f 85 65 64
f 86 76 77
f 85 66 65
f 86 77 78
f 85 67 66
f 86 78 79
f 85 68 67
f 86 79 80
f 85 69 68
f 86 80 81
f 85 70 69
f 86 81 82
f 85 71 70
f 86 82 83
f 85 72 71
f 86 83 84
f 85 61 72
f 86 84 73
g mesh-v-00
f 87 88 96
f 87 96 95
f 88 89 97
f 88 97 96
f 89 90 98
f 89 98 97
f 90 91 99
f 90 99 98
f 91 92 100
f 91 100 99
f 92 93 101
f 92 101 100
f 93 94 102
f 93 102 101
f 94 87 95
f 94 95 102
f 103 88 87
f 104 95 96
f 103 89 88
f 104 96 97
f 103 90 89
f 104 97 98
f 103 91 90
f 104 98 99
f 103 92 91
f 104 99 100
f 103 93 92
f 104 100 101
f 103 94 93
f 104 101 102
f 103 87 94
f 104 102 95
g mesh-v-01
f 105 106 114
f 105 114 113
f 106 107 115
f 106 115 114
f 107 108 116
f 107 116 115
f 108 109 117
f 108 117 116
f 109 110 118
f 109 118 117
f 110 111 119
f 110 119 118
f 111 112 120
f 111 120 119
f 112 105 113
f 112 113 120
f 121 106 105
f 122 113 114
f 121 107 106
f 122 114 115
f 121 108 107
f 122 115 116
f 121 109 108
f 122 116 117
f 121 110 109
f 122 117 118
f 121 111 110
f 122 118 119
f 121 112 111
f 122 119 120
f 121 105 112
f 122 120 113
g mesh-v-02
f 123 124 132
f 123 132 131
f 124 125 133
f 124 133 132
f 125 126 134
f 125 134 133
f 126 127 135
f 126 135 134
f 127 128 136
f 127 136 135
f 128 129 137
f 128 137 136
f 129 130 138
f 129 138 137
f 130 123 131
f 130 131 138
f 139 124 123
f 140 131 132
f 139 125 124
f 140 132 133
f 139 126 125
f 140 133 134
f 139 127 126
f 140 134 135
f 139 128 127
f 140 135 136
f 139 129 128
f 140 136 137
f 139 130 129
f 140 137 138
f 139 123 130
f 140 138 131
g mesh-v-03
f 141 142 150
f 141 150 149
f 142 143 151
f 142 151 150
f 143 144 152
f 143 152 151
f 144 145 153
f 144 153 152
f 145 146 154
f 145 154 153
f 146 147 155
f 146 155 154
f 147 148 156
f 147 156 155
f 148 141 149
f 148 149 156
f 157 142 141
f 158 149 150
f 157 143 142
f 158 150 151
f 157 144 143
f 158 151 152
f 157 145 144
f 158 152 153
f 157 146 145
f 158 153 154
f 157 147 146
f 158 154 155
f 157 148 147
f 158 155 156
f 157 141 148
f 158 156 149
g mesh-v-04
f 159 160 168
f 159 168 167
f 160 161 169
f 160 169 168
f 161 162 170
f 161 170 169
f 162 163 171
f 162 171 170
f 163 164 172
f 163 172 171
f 164 165 173
f 164 173 172
f 165 166 174
f 165 174 173
f 166 159 167
f 166 167 174
f 175 160 159
f 176 167 168
f 175 161 160
f 176 168 169
f 175 162 161
f 176 169 170
f 175 163 162
f 176 170 171
f 175 164 163
f 176 171 172
f 175 165 164
f 176 172 173
f 175 166 165
f 176 173 174
f 175 159 166
f 176 174 167
g mesh-v-05
f 177 178 186
f 177 186 185
f 178 179 187
f 178 187 186
f 179 180 188
f 179 188 187
f 180 181 189
f 180 189 188
f 181 182 190
f 181 190 189
f 182 183 191
f 182 191 190
f 183 184 192
f 183 192 191
f 184 177 185
f 184 185 192
f 193 178 177
f 194 185 186
f 193 179 178
f 194 186 187
f 193 180 179
f 194 187 188
f 193 181 180
f 194 188 189
f 193 182 181
f 194 189 190
f 193 183 182
f 194 190 191
f 193 184 183
f 194 191 192
f 193 177 184
f 194 192 185
g mesh-v-06
f 195 196 204
f 195 204 203
f 196 197 205
f 196 205 204
f 197 198 206
f 197 206 205
f 198 199 207
f 198 207 206
f 199 200 208
f 199 208 207
f 200 201 209
f 200 209 208
f 201 202 210
f 201 210 209
f 202 195 203
f 202 203 210
f 211 196 195
f 212 203 204
f 211 197 196
f 212 204 205
f 211 198 197
f 212 205 206
f 211 199 198
f 212 206 207
f 211 200 199
f 212 207 208
f 211 201 200
f 212 208 209
f 211 202 201
f 212 209 210
f 211 195 202
f 212 210 203
g mesh-v-07
f 213 214 222
f 213 222 221
f 214 215 223
f 214 223 222
f 215 216 224
f 215 224 223
f 216 217 225
f 216 225 224
f 217 218 226
f 217 226 225
f 218 219 227
f 218 227 226
f 219 220 228
f 219 228 227
f 220 213 221
f 220 221 228
f 229 214 213
f 230 221 222
f 229 215 214
f 230 222 223
f 229 216 215
f 230 223 224
f 229 217 216
f 230 224 225
f 229 218 217
f 230 225 226
f 229 219 218
f 230 226 227
f 229 220 219
f 230 227 228
f 229 213 220
f 230 228 221
g mesh-v-08
f 231 232 240
f 231 240 239
f 232 233 241
f 232 241 240
f 233 234 242
f 233 242 241
f 234 235 243
f 234 243 242
f 235 236 244
f 235 244 243
f 236 237 245
f 236 245 244
f 237 238 246
f 237 246 245
f 238 231 239
f 238 239 246
f 247 232 231
f 248 239 240
f 247 233 232
f 248 240 241
f 247 234 233
f 248 241 242
f 247 235 234
f 248 242 243
f 247 236 235
f 248 243 244
f 247 237 236
f 248 244 245
f 247 238 237
f 248 245 246
f 247 231 238
f 248 246 239
g mesh-v-09
f 249 250 258
f 249 258 257
f 250 251 259
f 250 259 258
f 251 252 260
f 251 260 259
f 252 253 261
f 252 261 260
f 253 254 262
f 253 262 261
f 254 255 263
f 254 263 262
f 255 256 264
f 255 264 263
f 256 249 257
f 256 257 264
f 265 250 249
f 266 257 258
f 265 251 250
f 266 258 259
f 265 252 251
f 266 259 260
f 265 253 252
f 266 260 261
f 265 254 253
f 266 261 262
f 265 255 254
f 266 262 263
f 265 256 255
f 266 263 264
f 265 249 256
f 266 264 257
g mesh-v-10
f 267 268 276
f 267 276 275
f 268 269 277
f 268 277 276
f 269 270 278
f 269 278 277
f 270 271 279
f 270 279 278
f 271 272 280
f 271 280 279
f 272 273 281
f 272 281 280
f 273 274 282
f 273 282 281
f 274 267 275
f 274 275 282
f 283 268 267
f 284 275 276
f 283 269 268
f 284 276 277
f 283 270 269
f 284 277 278
f 283 271 270
f 284 278 279
f 283 272 271
f 284 279 280
f 283 273 272
f 284 280 281
f 283 274 273
f 284 281 282
f 283 267 274
f 284 282 275
g mesh-h-00
f 285 286 294
f 285 294 293
f 286 287 295
f 286 295 294
f 287 288 296
f 287 296 295
f 288 289 297
f 288 297 296
f 289 290 298
f 289 298 297
f 290 291 299
f 290 299 298
f 291 292 300
f 291 300 299
f 292 285 293
f 292 293 300
f 301 286 285
f 302 293 294
f 301 287 286
f 302 294 295
f 301 288 287
f 302 295 296
f 301 289 288
f 302 296 297
f 301 290 289
f 302 297 298
f 301 291 290
f 302 298 299
f 301 292 291
f 302 299 300
f 301 285 292
f 302 300 293
g mesh-h-01
f 303 304 312
f 303 312 311
f 304 305 313
f 304 313 312
f 305 306 314
f 305 314 313
f 306 307 315
f 306 315 314
f 307 308 316
f 307 316 315
f 308 309 317
f 308 317 316
f 309 310 318
f 309 318 317
f 310 303 311
f 310 311 318
f 319 304 303
f 320 311 312
f 319 305 304
f 320 312 313
f 319 306 305
f 320 313 314
f 319 307 306
f 320 314 315
f 319 308 307
f 320 315 316
f 319 309 308
f 320 316 317
f 319 310 309
f 320 317 318
f 319 303 310
f 320 318 311
g mesh-h-02
f 321 322 330
f 321 330 329
f 322 323 331
f 322 331 330
f 323 324 332
f 323 332 331
f 324 325 333
f 324 333 332
f 325 326 334
f 325 334 333
f 326 327 335
f 326 335 334
f 327 328 336
f 327 336 335
f 328 321 329
f 328 329 336
f 337 322 321
f 338 329 330
f 337 323 322
f 338 330 331
f 337 324 323
f 338 331 332
f 337 325 324
f 338 332 333
f 337 326 325
f 338 333 334
f 337 327 326
f 338 334 335
f 337 328 327
f 338 335 336
f 337 321 328
f 338 336 329
g mesh-h-03
f 339 340 348
f 339 348 347
f 340 341 349
f 340 349 348
f 341 342 350
f 341 350 349
f 342 343 351
f 342 351 350
f 343 344 352
f 343 352 351
f 344 345 353
f 344 353 352
f 345 346 354
f 345 354 353
f 346 339 347
f 346 347 354
f 355 340 339
f 356 347 348
f 355 341 340
f 356 348 349
f 355 342 341
f 356 349 350
f 355 343 342
f 356 350 351
f 355 344 343
f 356 351 352
f 355 345 344
f 356 352 353
f 355 346 345
f 356 353 354
f 355 339 346
f 356 354 347
g mesh-h-04
f 357 358 366
f 357 366 365
f 358 359 367
f 358 367 366
f 359 360 368
f 359 368 367
f 360 361 369
f 360 369 368
f 361 362 370
f 361 370 369
f 362 363 371
f 362 371 370
f 363 364 372
f 363 372 371
f 364 357 365
f 364 365 372
f 373 358 357
f 374 365 366
f 373 359 358
f 374 366 367
f 373 360 359
f 374 367 368
f 373 361 360
f 374 368 369
f 373 362 361
f 374 369 370
f 373 363 362
f 374 370 371
f 373 364 363
f 374 371 372
f 373 357 364
f 374 372 365
g mesh-h-05
f 375 376 384
f 375 384 383
f 376 377 385
f 376 385 384
f 377 378 386
f 377 386 385
f 378 379 387
f 378 387 386
f 379 380 388
f 379 388 387
f 380 381 389
f 380 389 388
f 381 382 390
f 381 390 389
f 382 375 383
f 382 383 390
f 391 376 375
f 392 383 384
f 391 377 376
f 392 384 385
f 391 378 377
f 392 385 386
f 391 379 378
f 392 386 387
f 391 380 379
f 392 387 388
f 391 381 380
f 392 388 389
f 391 382 381
f 392 389 390
f 391 375 382
f 392 390 383
g mesh-h-06
f 393 394 402
f 393 402 401
f 394 395 403
f 394 403 402
f 395 396 404
f 395 404 403
f 396 397 405
f 396 405 404
f 397 398 406
f 397 406 405
f 398 399 407
f 398 407 406
f 399 400 408
f 399 408 407
f 400 393 401
f 400 401 408
f 409 394 393
f 410 401 402
f 409 395 394
f 410 402 403
f 409 396 395
f 410 403 404
f 409 397 396
f 410 404 405
f 409 398 397
f 410 405 406
f 409 399 398
f 410 406 407
f 409 400 399
f 410 407 408
f 409 393 400
f 410 408 401
