# Eating fork v2 - rounded thick handle, four tines
v 0.009500 0.000000 -0.108000
v 0.009035 0.000742 -0.108000
v 0.007686 0.001411 -0.108000
v 0.005584 0.001942 -0.108000
v 0.002936 0.002283 -0.108000
v 0.000000 0.002400 -0.108000
v -0.002936 0.002283 -0.108000
v -0.005584 0.001942 -0.108000
v -0.007686 0.001411 -0.108000
v -0.009035 0.000742 -0.108000
v -0.009500 0.000000 -0.108000
v -0.009035 -0.000742 -0.108000
v -0.007686 -0.001411 -0.108000
v -0.005584 -0.001942 -0.108000
v -0.002936 -0.002283 -0.108000
v -0.000000 -0.002400 -0.108000
v 0.002936 -0.002283 -0.108000
v 0.005584 -0.001942 -0.108000
v 0.007686 -0.001411 -0.108000
v 0.009035 -0.000742 -0.108000
v 0.009900 0.000200 -0.092000
v 0.009415 0.000973 -0.092000
v 0.008009 0.001669 -0.092000
v 0.005819 0.002223 -0.092000
v 0.003059 0.002578 -0.092000
v 0.000000 0.002700 -0.092000
v -0.003059 0.002578 -0.092000
v -0.005819 0.002223 -0.092000
v -0.008009 0.001669 -0.092000
v -0.009415 0.000973 -0.092000
v -0.009900 0.000200 -0.092000
v -0.009415 -0.000573 -0.092000
v -0.008009 -0.001269 -0.092000
v -0.005819 -0.001823 -0.092000
v -0.003059 -0.002178 -0.092000
v -0.000000 -0.002300 -0.092000
v 0.003059 -0.002178 -0.092000
v 0.005819 -0.001823 -0.092000
v 0.008009 -0.001269 -0.092000
v 0.009415 -0.000573 -0.092000
v 0.008500 0.000400 -0.060000
v 0.008084 0.001126 -0.060000
v 0.006877 0.001781 -0.060000
v 0.004996 0.002301 -0.060000
v 0.002627 0.002635 -0.060000
v 0.000000 0.002750 -0.060000
v -0.002627 0.002635 -0.060000
v -0.004996 0.002301 -0.060000
v -0.006877 0.001781 -0.060000
v -0.008084 0.001126 -0.060000
v -0.008500 0.000400 -0.060000
v -0.008084 -0.000326 -0.060000
v -0.006877 -0.000981 -0.060000
v -0.004996 -0.001501 -0.060000
v -0.002627 -0.001835 -0.060000
v -0.000000 -0.001950 -0.060000
v 0.002627 -0.001835 -0.060000
v 0.004996 -0.001501 -0.060000
v 0.006877 -0.000981 -0.060000
v 0.008084 -0.000326 -0.060000
v 0.007000 0.000500 -0.022000
v 0.006657 0.001149 -0.022000
v 0.005663 0.001734 -0.022000
v 0.004114 0.002199 -0.022000
v 0.002163 0.002497 -0.022000
v 0.000000 0.002600 -0.022000
v -0.002163 0.002497 -0.022000
v -0.004114 0.002199 -0.022000
v -0.005663 0.001734 -0.022000
v -0.006657 0.001149 -0.022000
v -0.007000 0.000500 -0.022000
v -0.006657 -0.000149 -0.022000
v -0.005663 -0.000734 -0.022000
v -0.004114 -0.001199 -0.022000
v -0.002163 -0.001497 -0.022000
v -0.000000 -0.001600 -0.022000
v 0.002163 -0.001497 -0.022000
v 0.004114 -0.001199 -0.022000
v 0.005663 -0.000734 -0.022000
v 0.006657 -0.000149 -0.022000
v 0.008250 0.000800 0.010000
v 0.007846 0.001387 0.010000
v 0.006674 0.001917 0.010000
v 0.004849 0.002337 0.010000
v 0.002549 0.002607 0.010000
v 0.000000 0.002700 0.010000
v -0.002549 0.002607 0.010000
v -0.004849 0.002337 0.010000
v -0.006674 0.001917 0.010000
v -0.007846 0.001387 0.010000
v -0.008250 0.000800 0.010000
v -0.007846 0.000213 0.010000
v -0.006674 -0.000317 0.010000
v -0.004849 -0.000737 0.010000
v -0.002549 -0.001007 0.010000
v -0.000000 -0.001100 0.010000
v 0.002549 -0.001007 0.010000
v 0.004849 -0.000737 0.010000
v 0.006674 -0.000317 0.010000
v 0.007846 0.000213 0.010000
v 0.012800 0.001200 0.032000
v 0.012174 0.001725 0.032000
v 0.010355 0.002199 0.032000
v 0.007524 0.002575 0.032000
v 0.003955 0.002817 0.032000
v 0.000000 0.002900 0.032000
v -0.003955 0.002817 0.032000
v -0.007524 0.002575 0.032000
v -0.010355 0.002199 0.032000
v -0.012174 0.001725 0.032000
v -0.012800 0.001200 0.032000
v -0.012174 0.000675 0.032000
v -0.010355 0.000201 0.032000
v -0.007524 -0.000175 0.032000
v -0.003955 -0.000417 0.032000
v -0.000000 -0.000500 0.032000
v 0.003955 -0.000417 0.032000
v 0.007524 -0.000175 0.032000
v 0.010355 0.000201 0.032000
v 0.012174 0.000675 0.032000
v 0.012800 0.001500 0.044000
v 0.012174 0.001994 0.044000
v 0.010355 0.002440 0.044000
v 0.007524 0.002794 0.044000
v 0.003955 0.003022 0.044000
v 0.000000 0.003100 0.044000
v -0.003955 0.003022 0.044000
v -0.007524 0.002794 0.044000
v -0.010355 0.002440 0.044000
v -0.012174 0.001994 0.044000
v -0.012800 0.001500 0.044000
v -0.012174 0.001006 0.044000
v -0.010355 0.000560 0.044000
v -0.007524 0.000206 0.044000
v -0.003955 -0.000022 0.044000
v -0.000000 -0.000100 0.044000
v 0.003955 -0.000022 0.044000
v 0.007524 0.000206 0.044000
v 0.010355 0.000560 0.044000
v 0.012174 0.001006 0.044000
v 0.000000 0.000000 -0.108000
v 0.000000 0.001500 0.044000
v -0.006400 0.001500 0.036000
v -0.006717 0.002151 0.036000
v -0.007605 0.002673 0.036000
v -0.008888 0.002962 0.036000
v -0.010312 0.002962 0.036000
v -0.011595 0.002673 0.036000
v -0.012483 0.002151 0.036000
v -0.012800 0.001500 0.036000
v -0.012483 0.000849 0.036000
v -0.011595 0.000327 0.036000
v -0.010312 0.000038 0.036000
v -0.008888 0.000038 0.036000
v -0.007605 0.000327 0.036000
v -0.006717 0.000849 0.036000
v -0.006962 0.001800 0.046000
v -0.007234 0.002407 0.046000
v -0.007997 0.002895 0.046000
v -0.009100 0.003165 0.046000
v -0.010324 0.003165 0.046000
v -0.011427 0.002895 0.046000
v -0.012190 0.002407 0.046000
v -0.012462 0.001800 0.046000
v -0.012190 0.001193 0.046000
v -0.011427 0.000705 0.046000
v -0.010324 0.000435 0.046000
v -0.009100 0.000435 0.046000
v -0.007997 0.000705 0.046000
v -0.007234 0.001193 0.046000
v -0.007756 0.002600 0.072000
v -0.007979 0.003142 0.072000
v -0.008603 0.003577 0.072000
v -0.009505 0.003819 0.072000
v -0.010507 0.003819 0.072000
v -0.011409 0.003577 0.072000
v -0.012033 0.003142 0.072000
v -0.012256 0.002600 0.072000
v -0.012033 0.002058 0.072000
v -0.011409 0.001623 0.072000
v -0.010507 0.001381 0.072000
v -0.009505 0.001381 0.072000
v -0.008603 0.001623 0.072000
v -0.007979 0.002058 0.072000
v -0.008600 0.004000 0.091000
v -0.008768 0.004477 0.091000
v -0.009240 0.004860 0.091000
v -0.009922 0.005072 0.091000
v -0.010678 0.005072 0.091000
v -0.011360 0.004860 0.091000
v -0.011832 0.004477 0.091000
v -0.012000 0.004000 0.091000
v -0.011832 0.003523 0.091000
v -0.011360 0.003140 0.091000
v -0.010678 0.002928 0.091000
v -0.009922 0.002928 0.091000
v -0.009240 0.003140 0.091000
v -0.008768 0.003523 0.091000
v -0.008900 0.004400 0.096000
v -0.009039 0.004834 0.096000
v -0.009427 0.005182 0.096000
v -0.009988 0.005375 0.096000
v -0.010612 0.005375 0.096000
v -0.011173 0.005182 0.096000
v -0.011561 0.004834 0.096000
v -0.011700 0.004400 0.096000
v -0.011561 0.003966 0.096000
v -0.011173 0.003618 0.096000
v -0.010612 0.003425 0.096000
v -0.009988 0.003425 0.096000
v -0.009427 0.003618 0.096000
v -0.009039 0.003966 0.096000
v -0.009600 0.001500 0.036000
v -0.010300 0.004400 0.096000
v 0.000000 0.001500 0.036000
v -0.000317 0.002151 0.036000
v -0.001205 0.002673 0.036000
v -0.002488 0.002962 0.036000
v -0.003912 0.002962 0.036000
v -0.005195 0.002673 0.036000
v -0.006083 0.002151 0.036000
v -0.006400 0.001500 0.036000
v -0.006083 0.000849 0.036000
v -0.005195 0.000327 0.036000
v -0.003912 0.000038 0.036000
v -0.002488 0.000038 0.036000
v -0.001205 0.000327 0.036000
v -0.000317 0.000849 0.036000
v -0.000490 0.001800 0.046000
v -0.000762 0.002407 0.046000
v -0.001525 0.002895 0.046000
v -0.002628 0.003165 0.046000
v -0.003852 0.003165 0.046000
v -0.004955 0.002895 0.046000
v -0.005718 0.002407 0.046000
v -0.005990 0.001800 0.046000
v -0.005718 0.001193 0.046000
v -0.004955 0.000705 0.046000
v -0.003852 0.000435 0.046000
v -0.002628 0.000435 0.046000
v -0.001525 0.000705 0.046000
v -0.000762 0.001193 0.046000
v -0.001095 0.002600 0.072000
v -0.001318 0.003142 0.072000
v -0.001942 0.003577 0.072000
v -0.002844 0.003819 0.072000
v -0.003846 0.003819 0.072000
v -0.004748 0.003577 0.072000
v -0.005372 0.003142 0.072000
v -0.005595 0.002600 0.072000
v -0.005372 0.002058 0.072000
v -0.004748 0.001623 0.072000
v -0.003846 0.001381 0.072000
v -0.002844 0.001381 0.072000
v -0.001942 0.001623 0.072000
v -0.001318 0.002058 0.072000
v -0.001750 0.004000 0.091000
v -0.001918 0.004477 0.091000
v -0.002390 0.004860 0.091000
v -0.003072 0.005072 0.091000
v -0.003828 0.005072 0.091000
v -0.004510 0.004860 0.091000
v -0.004982 0.004477 0.091000
v -0.005150 0.004000 0.091000
v -0.004982 0.003523 0.091000
v -0.004510 0.003140 0.091000
v -0.003828 0.002928 0.091000
v -0.003072 0.002928 0.091000
v -0.002390 0.003140 0.091000
v -0.001918 0.003523 0.091000
v -0.002050 0.004400 0.096000
v -0.002189 0.004834 0.096000
v -0.002577 0.005182 0.096000
v -0.003138 0.005375 0.096000
v -0.003762 0.005375 0.096000
v -0.004323 0.005182 0.096000
v -0.004711 0.004834 0.096000
v -0.004850 0.004400 0.096000
v -0.004711 0.003966 0.096000
v -0.004323 0.003618 0.096000
v -0.003762 0.003425 0.096000
v -0.003138 0.003425 0.096000
v -0.002577 0.003618 0.096000
v -0.002189 0.003966 0.096000
v -0.003200 0.001500 0.036000
v -0.003450 0.004400 0.096000
v 0.006400 0.001500 0.036000
v 0.006083 0.002151 0.036000
v 0.005195 0.002673 0.036000
v 0.003912 0.002962 0.036000
v 0.002488 0.002962 0.036000
v 0.001205 0.002673 0.036000
v 0.000317 0.002151 0.036000
v 0.000000 0.001500 0.036000
v 0.000317 0.000849 0.036000
v 0.001205 0.000327 0.036000
v 0.002488 0.000038 0.036000
v 0.003912 0.000038 0.036000
v 0.005195 0.000327 0.036000
v 0.006083 0.000849 0.036000
v 0.005990 0.001800 0.046000
v 0.005718 0.002407 0.046000
v 0.004955 0.002895 0.046000
v 0.003852 0.003165 0.046000
v 0.002628 0.003165 0.046000
v 0.001525 0.002895 0.046000
v 0.000762 0.002407 0.046000
v 0.000490 0.001800 0.046000
v 0.000762 0.001193 0.046000
v 0.001525 0.000705 0.046000
v 0.002628 0.000435 0.046000
v 0.003852 0.000435 0.046000
v 0.004955 0.000705 0.046000
v 0.005718 0.001193 0.046000
v 0.005595 0.002600 0.072000
v 0.005372 0.003142 0.072000
v 0.004748 0.003577 0.072000
v 0.003846 0.003819 0.072000
v 0.002844 0.003819 0.072000
v 0.001942 0.003577 0.072000
v 0.001318 0.003142 0.072000
v 0.001095 0.002600 0.072000
v 0.001318 0.002058 0.072000
v 0.001942 0.001623 0.072000
v 0.002844 0.001381 0.072000
v 0.003846 0.001381 0.072000
v 0.004748 0.001623 0.072000
v 0.005372 0.002058 0.072000
v 0.005150 0.004000 0.091000
v 0.004982 0.004477 0.091000
v 0.004510 0.004860 0.091000
v 0.003828 0.005072 0.091000
v 0.003072 0.005072 0.091000
v 0.002390 0.004860 0.091000
v 0.001918 0.004477 0.091000
v 0.001750 0.004000 0.091000
v 0.001918 0.003523 0.091000
v 0.002390 0.003140 0.091000
v 0.003072 0.002928 0.091000
v 0.003828 0.002928 0.091000
v 0.004510 0.003140 0.091000
v 0.004982 0.003523 0.091000
v 0.004850 0.004400 0.096000
v 0.004711 0.004834 0.096000
v 0.004323 0.005182 0.096000
v 0.003762 0.005375 0.096000
v 0.003138 0.005375 0.096000
v 0.002577 0.005182 0.096000
v 0.002189 0.004834 0.096000
v 0.002050 0.004400 0.096000
v 0.002189 0.003966 0.096000
v 0.002577 0.003618 0.096000
v 0.003138 0.003425 0.096000
v 0.003762 0.003425 0.096000
v 0.004323 0.003618 0.096000
v 0.004711 0.003966 0.096000
v 0.003200 0.001500 0.036000
v 0.003450 0.004400 0.096000
v 0.012800 0.001500 0.036000
v 0.012483 0.002151 0.036000
v 0.011595 0.002673 0.036000
v 0.010312 0.002962 0.036000
v 0.008888 0.002962 0.036000
v 0.007605 0.002673 0.036000
v 0.006717 0.002151 0.036000
v 0.006400 0.001500 0.036000
v 0.006717 0.000849 0.036000
v 0.007605 0.000327 0.036000
v 0.008888 0.000038 0.036000
v 0.010312 0.000038 0.036000
v 0.011595 0.000327 0.036000
v 0.012483 0.000849 0.036000
v 0.012462 0.001800 0.046000
v 0.012190 0.002407 0.046000
v 0.011427 0.002895 0.046000
v 0.010324 0.003165 0.046000
v 0.009100 0.003165 0.046000
v 0.007997 0.002895 0.046000
v 0.007234 0.002407 0.046000
v 0.006962 0.001800 0.046000
v 0.007234 0.001193 0.046000
v 0.007997 0.000705 0.046000
v 0.009100 0.000435 0.046000
v 0.010324 0.000435 0.046000
v 0.011427 0.000705 0.046000
v 0.012190 0.001193 0.046000
v 0.012256 0.002600 0.072000
v 0.012033 0.003142 0.072000
v 0.011409 0.003577 0.072000
v 0.010507 0.003819 0.072000
v 0.009505 0.003819 0.072000
v 0.008603 0.003577 0.072000
v 0.007979 0.003142 0.072000
v 0.007756 0.002600 0.072000
v 0.007979 0.002058 0.072000
v 0.008603 0.001623 0.072000
v 0.009505 0.001381 0.072000
v 0.010507 0.001381 0.072000
v 0.011409 0.001623 0.072000
v 0.012033 0.002058 0.072000
v 0.012000 0.004000 0.091000
v 0.011832 0.004477 0.091000
v 0.011360 0.004860 0.091000
v 0.010678 0.005072 0.091000
v 0.009922 0.005072 0.091000
v 0.009240 0.004860 0.091000
v 0.008768 0.004477 0.091000
v 0.008600 0.004000 0.091000
v 0.008768 0.003523 0.091000
v 0.009240 0.003140 0.091000
v 0.009922 0.002928 0.091000
v 0.010678 0.002928 0.091000
v 0.011360 0.003140 0.091000
v 0.011832 0.003523 0.091000
v 0.011700 0.004400 0.096000
v 0.011561 0.004834 0.096000
v 0.011173 0.005182 0.096000
v 0.010612 0.005375 0.096000
v 0.009988 0.005375 0.096000
v 0.009427 0.005182 0.096000
v 0.009039 0.004834 0.096000
v 0.008900 0.004400 0.096000
v 0.009039 0.003966 0.096000
v 0.009427 0.003618 0.096000
v 0.009988 0.003425 0.096000
v 0.010612 0.003425 0.096000
v 0.011173 0.003618 0.096000
v 0.011561 0.003966 0.096000
v 0.009600 0.001500 0.036000
v 0.010300 0.004400 0.096000
g fork-body
f 1 21 22
f 1 22 2
f 2 22 23
f 2 23 3
f 3 23 24
f 3 24 4
f 4 24 25
f 4 25 5
f 5 25 26
f 5 26 6
f 6 26 27
f 6 27 7
f 7 27 28
f 7 28 8
f 8 28 29
f 8 29 9
f 9 29 30
f 9 30 10
f 10 30 31
f 10 31 11
f 11 31 32
f 11 32 12
f 12 32 33
f 12 33 13
f 13 33 34
f 13 34 14
f 14 34 35
f 14 35 15
f 15 35 36
f 15 36 16
f 16 36 37
f 16 37 17
f 17 37 38
f 17 38 18
f 18 38 39
f 18 39 19
f 19 39 40
f 19 40 20
f 20 40 21
f 20 21 1
f 21 41 42
f 21 42 22
f 22 42 43
f 22 43 23
f 23 43 44
f 23 44 24
f 24 44 45
f 24 45 25
f 25 45 46
f 25 46 26
f 26 46 47
f 26 47 27
f 27 47 48
f 27 48 28
f 28 48 49
f 28 49 29
f 29 49 50
f 29 50 30
f 30 50 51
f 30 51 31
f 31 51 52
f 31 52 32
f 32 52 53
f 32 53 33
f 33 53 54
f 33 54 34
f 34 54 55
f 34 55 35
f 35 55 56
f 35 56 36
f 36 56 57
f 36 57 37
f 37 57 58
f 37 58 38
f 38 58 59
f 38 59 39
f 39 59 60
f 39 60 40
f 40 60 41
f 40 41 21
f 41 61 62
f 41 62 42
f 42 62 63
f 42 63 43
f 43 63 64
f 43 64 44
f 44 64 65
f 44 65 45
f 45 65 66
f 45 66 46
f 46 66 67
f 46 67 47
f 47 67 68
f 47 68 48
f 48 68 69
f 48 69 49
f 49 69 70
f 49 70 50
f 50 70 71
f 50 71 51
f 51 71 72
f 51 72 52
f 52 72 73
f 52 73 53
f 53 73 74
f 53 74 54
f 54 74 75
f 54 75 55
f 55 75 76
f 55 76 56
f 56 76 77
f 56 77 57
f 57 77 78
f 57 78 58
f 58 78 79
f 58 79 59
f 59 79 80
f 59 80 60
f 60 80 61
f 60 61 41
f 61 81 82
f 61 82 62
f 62 82 83
f 62 83 63
f 63 83 84
f 63 84 64
f 64 84 85
f 64 85 65
f 65 85 86
f 65 86 66
f 66 86 87
f 66 87 67
f 67 87 88
f 67 88 68
f 68 88 89
f 68 89 69
f 69 89 90
f 69 90 70
f 70 90 91
f 70 91 71
f 71 91 92
f 71 92 72
f 72 92 93
f 72 93 73
f 73 93 94
f 73 94 74
f 74 94 95
f 74 95 75
f 75 95 96
f 75 96 76
f 76 96 97
f 76 97 77
f 77 97 98
f 77 98 78
f 78 98 99
f 78 99 79
f 79 99 100
f 79 100 80
f 80 100 81
f 80 81 61
f 81 101 102
f 81 102 82
f 82 102 103
f 82 103 83
f 83 103 104
f 83 104 84
f 84 104 105
f 84 105 85
f 85 105 106
f 85 106 86
f 86 106 107
f 86 107 87
f 87 107 108
f 87 108 88
f 88 108 109
f 88 109 89
f 89 109 110
f 89 110 90
f 90 110 111
f 90 111 91
f 91 111 112
f 91 112 92
f 92 112 113
f 92 113 93
f 93 113 114
f 93 114 94
f 94 114 115
f 94 115 95
f 95 115 116
f 95 116 96
f 96 116 117
f 96 117 97
f 97 117 118
f 97 118 98
f 98 118 119
f 98 119 99
f 99 119 120
f 99 120 100
f 100 120 101
f 100 101 81
f 101 121 122
f 101 122 102
f 102 122 123
f 102 123 103
f 103 123 124
f 103 124 104
f 104 124 125
f 104 125 105
f 105 125 126
f 105 126 106
f 106 126 127
f 106 127 107
f 107 127 128
f 107 128 108
f 108 128 129
f 108 129 109
f 109 129 130
f 109 130 110
f 110 130 131
f 110 131 111
f 111 131 132
f 111 132 112
f 112 132 133
f 112 133 113
f 113 133 134
f 113 134 114
f 114 134 135
f 114 135 115
f 115 135 136
f 115 136 116
f 116 136 137
f 116 137 117
f 117 137 138
f 117 138 118
f 118 138 139
f 118 139 119
f 119 139 140
f 119 140 120
f 120 140 121
f 120 121 101
f 141 2 1
f 142 121 122
f 141 3 2
f 142 122 123
f 141 4 3
f 142 123 124
f 141 5 4
f 142 124 125
f 141 6 5
f 142 125 126
f 141 7 6
f 142 126 127
f 141 8 7
f 142 127 128
f 141 9 8
f 142 128 129
f 141 10 9
f 142 129 130
f 141 11 10
f 142 130 131
f 141 12 11
f 142 131 132
f 141 13 12
f 142 132 133
f 141 14 13
f 142 133 134
f 141 15 14
f 142 134 135
f 141 16 15
f 142 135 136
f 141 17 16
f 142 136 137
f 141 18 17
f 142 137 138
f 141 19 18
f 142 138 139
f 141 20 19
f 142 139 140
f 141 1 20
f 142 140 121
g tine-1
f 143 157 158
f 143 158 144
f 144 158 159
f 144 159 145
f 145 159 160
f 145 160 146
f 146 160 161
f 146 161 147
f 147 161 162
f 147 162 148
f 148 162 163
f 148 163 149
f 149 163 164
f 149 164 150
f 150 164 165
f 150 165 151
f 151 165 166
f 151 166 152
f 152 166 167
f 152 167 153
f 153 167 168
f 153 168 154
f 154 168 169
f 154 169 155
f 155 169 170
f 155 170 156
f 156 170 157
f 156 157 143
f 157 171 172
f 157 172 158
f 158 172 173
f 158 173 159
f 159 173 174
f 159 174 160
f 160 174 175
f 160 175 161
f 161 175 176
f 161 176 162
f 162 176 177
f 162 177 163
f 163 177 178
f 163 178 164
f 164 178 179
f 164 179 165
f 165 179 180
f 165 180 166
f 166 180 181
f 166 181 167
f 167 181 182
f 167 182 168
f 168 182 183
f 168 183 169
f 169 183 184
f 169 184 170
f 170 184 171
f 170 171 157
f 171 185 186
f 171 186 172
f 172 186 187
f 172 187 173
f 173 187 188
f 173 188 174
f 174 188 189
f 174 189 175
f 175 189 190
f 175 190 176
f 176 190 191
f 176 191 177
f 177 191 192
f 177 192 178
f 178 192 193
f 178 193 179
f 179 193 194
f 179 194 180
f 180 194 195
f 180 195 181
f 181 195 196
f 181 196 182
f 182 196 197
f 182 197 183
f 183 197 198
f 183 198 184
f 184 198 185
f 184 185 171
f 185 199 200
f 185 200 186
f 186 200 201
f 186 201 187
f 187 201 202
f 187 202 188
f 188 202 203
f 188 203 189
f 189 203 204
f 189 204 190
f 190 204 205
f 190 205 191
f 191 205 206
f 191 206 192
f 192 206 207
f 192 207 193
f 193 207 208
f 193 208 194
f 194 208 209
f 194 209 195
f 195 209 210
f 195 210 196
f 196 210 211
f 196 211 197
f 197 211 212
f 197 212 198
f 198 212 199
f 198 199 185
f 213 144 143
f 214 199 200
f 213 145 144
f 214 200 201
f 213 146 145
f 214 201 202
f 213 147 146
f 214 202 203
f 213 148 147
f 214 203 204
f 213 149 148
f 214 204 205
f 213 150 149
f 214 205 206
f 213 151 150
f 214 206 207
f 213 152 151
f 214 207 208
f 213 153 152
f 214 208 209
f 213 154 153
f 214 209 210
f 213 155 154
f 214 210 211
f 213 156 155
f 214 211 212
f 213 143 156
f 214 212 199
g tine-2
f 215 229 230
f 215 230 216
f 216 230 231
f 216 231 217
f 217 231 232
f 217 232 218
f 218 232 233
f 218 233 219
f 219 233 234
f 219 234 220
f 220 234 235
f 220 235 221
f 221 235 236
f 221 236 222
f 222 236 237
f 222 237 223
f 223 237 238
f 223 238 224
f 224 238 239
f 224 239 225
f 225 239 240
f 225 240 226
f 226 240 241
f 226 241 227
f 227 241 242
f 227 242 228
f 228 242 229
f 228 229 215
f 229 243 244
f 229 244 230
f 230 244 245
f 230 245 231
f 231 245 246
f 231 246 232
f 232 246 247
f 232 247 233
f 233 247 248
f 233 248 234
f 234 248 249
f 234 249 235
f 235 249 250
f 235 250 236
f 236 250 251
f 236 251 237
f 237 251 252
f 237 252 238
f 238 252 253
f 238 253 239
f 239 253 254
f 239 254 240
f 240 254 255
f 240 255 241
f 241 255 256
f 241 256 242
f 242 256 243
f 242 243 229
f 243 257 258
f 243 258 244
f 244 258 259
f 244 259 245
f 245 259 260
f 245 260 246
f 246 260 261
f 246 261 247
f 247 261 262
f 247 262 248
f 248 262 263
f 248 263 249
f 249 263 264
f 249 264 250
f 250 264 265
f 250 265 251
f 251 265 266
f 251 266 252
f 252 266 267
f 252 267 253
f 253 267 268
f 253 268 254
f 254 268 269
f 254 269 255
f 255 269 270
f 255 270 256
f 256 270 257
f 256 257 243
f 257 271 272
f 257 272 258
f 258 272 273
f 258 273 259
f 259 273 274
f 259 274 260
f 260 274 275
f 260 275 261
f 261 275 276
f 261 276 262
f 262 276 277
f 262 277 263
f 263 277 278
f 263 278 264
f 264 278 279
f 264 279 265
f 265 279 280
f 265 280 266
f 266 280 281
f 266 281 267
f 267 281 282
f 267 282 268
f 268 282 283
f 268 283 269
f 269 283 284
f 269 284 270
f 270 284 271
f 270 271 257
f 285 216 215
f 286 271 272
f 285 217 216
f 286 272 273
f 285 218 217
f 286 273 274
f 285 219 218
f 286 274 275
f 285 220 219
f 286 275 276
f 285 221 220
f 286 276 277
f 285 222 221
f 286 277 278
f 285 223 222
f 286 278 279
f 285 224 223
f 286 279 280
f 285 225 224
f 286 280 281
f 285 226 225
f 286 281 282
f 285 227 226
f 286 282 283
f 285 228 227
f 286 283 284
f 285 215 228
f 286 284 271
g tine-3
f 287 301 302
f 287 302 288
f 288 302 303
f 288 303 289
f 289 303 304
f 289 304 290
f 290 304 305
f 290 305 291
f 291 305 306
f 291 306 292
f 292 306 307
f 292 307 293
f 293 307 308
f 293 308 294
f 294 308 309
f 294 309 295
f 295 309 310
f 295 310 296
f 296 310 311
f 296 311 297
f 297 311 312
f 297 312 298
f 298 312 313
f 298 313 299
f 299 313 314
f 299 314 300
f 300 314 301
f 300 301 287
f 301 315 316
f 301 316 302
f 302 316 317
f 302 317 303
f 303 317 318
f 303 318 304
f 304 318 319
f 304 319 305
f 305 319 320
f 305 320 306
f 306 320 321
f 306 321 307
f 307 321 322
f 307 322 308
f 308 322 323
f 308 323 309
f 309 323 324
f 309 324 310
f 310 324 325
f 310 325 311
f 311 325 326
f 311 326 312
f 312 326 327
f 312 327 313
f 313 327 328
f 313 328 314
f 314 328 315
f 314 315 301
f 315 329 330
f 315 330 316
f 316 330 331
f 316 331 317
f 317 331 332
f 317 332 318
f 318 332 333
f 318 333 319
f 319 333 334
f 319 334 320
f 320 334 335
f 320 335 321
f 321 335 336
f 321 336 322
f 322 336 337
f 322 337 323
f 323 337 338
f 323 338 324
f 324 338 339
f 324 339 325
f 325 339 340
f 325 340 326
f 326 340 341
f 326 341 327
f 327 341 342
f 327 342 328
f 328 342 329
f 328 329 315
f 329 343 344
f 329 344 330
f 330 344 345
f 330 345 331
f 331 345 346
f 331 346 332
f 332 346 347
f 332 347 333
f 333 347 348
f 333 348 334
f 334 348 349
f 334 349 335
f 335 349 350
f 335 350 336
f 336 350 351
f 336 351 337
f 337 351 352
f 337 352 338
f 338 352 353
f 338 353 339
f 339 353 354
f 339 354 340
f 340 354 355
f 340 355 341
f 341 355 356
f 341 356 342
f 342 356 343
f 342 343 329
f 357 288 287
f 358 343 344
f 357 289 288
f 358 344 345
f 357 290 289
f 358 345 346
f 357 291 290
f 358 346 347
f 357 292 291
f 358 347 348
f 357 293 292
f 358 348 349
f 357 294 293
f 358 349 350
f 357 295 294
f 358 350 351
f 357 296 295
f 358 351 352
f 357 297 296
f 358 352 353
f 357 298 297
f 358 353 354
f 357 299 298
f 358 354 355
f 357 300 299
f 358 355 356
f 357 287 300
f 358 356 343
g tine-4
f 359 373 374
f 359 374 360
f 360 374 375
f 360 375 361
f 361 375 376
f 361 376 362
f 362 376 377
f 362 377 363
f 363 377 378
f 363 378 364
f 364 378 379
f 364 379 365
f 365 379 380
f 365 380 366
f 366 380 381
f 366 381 367
f 367 381 382
f 367 382 368
f 368 382 383
f 368 383 369
f 369 383 384
f 369 384 370
f 370 384 385
f 370 385 371
f 371 385 386
f 371 386 372
f 372 386 373
f 372 373 359
f 373 387 388
f 373 388 374
f 374 388 389
f 374 389 375
f 375 389 390
f 375 390 376
f 376 390 391
f 376 391 377
f 377 391 392
f 377 392 378
f 378 392 393
f 378 393 379
f 379 393 394
f 379 394 380
f 380 394 395
f 380 395 381
f 381 395 396
f 381 396 382
f 382 396 397
f 382 397 383
f 383 397 398
f 383 398 384
f 384 398 399
f 384 399 385
f 385 399 400
f 385 400 386
f 386 400 387
f 386 387 373
f 387 401 402
f 387 402 388
f 388 402 403
f 388 403 389
f 389 403 404
f 389 404 390
f 390 404 405
f 390 405 391
f 391 405 406
f 391 406 392
f 392 406 407
f 392 407 393
f 393 407 408
f 393 408 394
f 394 408 409
f 394 409 395
f 395 409 410
f 395 410 396
f 396 410 411
f 396 411 397
f 397 411 412
f 397 412 398
f 398 412 413
f 398 413 399
f 399 413 414
f 399 414 400
f 400 414 401
f 400 401 387
f 401 415 416
f 401 416 402
f 402 416 417
f 402 417 403
f 403 417 418
f 403 418 404
f 404 418 419
f 404 419 405
f 405 419 420
f 405 420 406
f 406 420 421
f 406 421 407
f 407 421 422
f 407 422 408
f 408 422 423
f 408 423 409
f 409 423 424
f 409 424 410
f 410 424 425
f 410 425 411
f 411 425 426
f 411 426 412
f 412 426 427
f 412 427 413
f 413 427 428
f 413 428 414
f 414 428 415
f 414 415 401
f 429 360 359
f 430 415 416
f 429 361 360
f 430 416 417
f 429 362 361
f 430 417 418
f 429 363 362
f 430 418 419
f 429 364 363
f 430 419 420
f 429 365 364
f 430 420 421
f 429 366 365
f 430 421 422
f 429 367 366
f 430 422 423
f 429 368 367
f 430 423 424
f 429 369 368
f 430 424 425
f 429 370 369
f 430 425 426
f 429 371 370
f 430 426 427
f 429 372 371
f 430 427 428
f 429 359 372
f 430 428 415
