# Standing horse statue on plinth
v -0.775000 0.000000 -1.525000
v 0.775000 0.000000 -1.525000
v 0.775000 0.400000 -1.525000
v -0.775000 0.400000 -1.525000
v -0.775000 0.000000 1.525000
v 0.775000 0.000000 1.525000
v 0.775000 0.400000 1.525000
v -0.775000 0.400000 1.525000
v 0.000000 1.980000 0.000000
v 0.134586 1.965348 0.000000
v 0.130000 1.965348 0.055599
v 0.116555 1.965348 0.107410
v 0.095167 1.965348 0.151901
v 0.067293 1.965348 0.186039
v 0.034833 1.965348 0.207500
v 0.000000 1.965348 0.214820
v -0.034833 1.965348 0.207500
v -0.067293 1.965348 0.186039
v -0.095167 1.965348 0.151901
v -0.116555 1.965348 0.107410
v -0.130000 1.965348 0.055599
v -0.134586 1.965348 0.000000
v -0.130000 1.965348 -0.055599
v -0.116555 1.965348 -0.107410
v -0.095167 1.965348 -0.151901
v -0.067293 1.965348 -0.186039
v -0.034833 1.965348 -0.207500
v -0.000000 1.965348 -0.214820
v 0.034833 1.965348 -0.207500
v 0.067293 1.965348 -0.186039
v 0.095167 1.965348 -0.151901
v 0.116555 1.965348 -0.107410
v 0.130000 1.965348 -0.055599
v 0.260000 1.922391 0.000000
v 0.251141 1.922391 0.107410
v 0.225167 1.922391 0.207500
v 0.183848 1.922391 0.293449
v 0.130000 1.922391 0.359401
v 0.067293 1.922391 0.400859
v 0.000000 1.922391 0.415000
v -0.067293 1.922391 0.400859
v -0.130000 1.922391 0.359401
v -0.183848 1.922391 0.293449
v -0.225167 1.922391 0.207500
v -0.251141 1.922391 0.107410
v -0.260000 1.922391 0.000000
v -0.251141 1.922391 -0.107410
v -0.225167 1.922391 -0.207500
v -0.183848 1.922391 -0.293449
v -0.130000 1.922391 -0.359401
v -0.067293 1.922391 -0.400859
v -0.000000 1.922391 -0.415000
v 0.067293 1.922391 -0.400859
v 0.130000 1.922391 -0.359401
v 0.183848 1.922391 -0.293449
v 0.225167 1.922391 -0.207500
v 0.251141 1.922391 -0.107410
v 0.367696 1.854056 0.000000
v 0.355167 1.854056 0.151901
v 0.318434 1.854056 0.293449
v 0.260000 1.854056 0.415000
v 0.183848 1.854056 0.508269
v 0.095167 1.854056 0.566901
v 0.000000 1.854056 0.586899
v -0.095167 1.854056 0.566901
v -0.183848 1.854056 0.508269
v -0.260000 1.854056 0.415000
v -0.318434 1.854056 0.293449
v -0.355167 1.854056 0.151901
v -0.367696 1.854056 0.000000
v -0.355167 1.854056 -0.151901
v -0.318434 1.854056 -0.293449
v -0.260000 1.854056 -0.415000
v -0.183848 1.854056 -0.508269
v -0.095167 1.854056 -0.566901
v -0.000000 1.854056 -0.586899
v 0.095167 1.854056 -0.566901
v 0.183848 1.854056 -0.508269
v 0.260000 1.854056 -0.415000
v 0.318434 1.854056 -0.293449
v 0.355167 1.854056 -0.151901
v 0.450333 1.765000 0.000000
v 0.434988 1.765000 0.186039
v 0.390000 1.765000 0.359401
v 0.318434 1.765000 0.508269
v 0.225167 1.765000 0.622500
v 0.116555 1.765000 0.694309
v 0.000000 1.765000 0.718801
v -0.116555 1.765000 0.694309
v -0.225167 1.765000 0.622500
v -0.318434 1.765000 0.508269
v -0.390000 1.765000 0.359401
v -0.434988 1.765000 0.186039
v -0.450333 1.765000 0.000000
v -0.434988 1.765000 -0.186039
v -0.390000 1.765000 -0.359401
v -0.318434 1.765000 -0.508269
v -0.225167 1.765000 -0.622500
v -0.116555 1.765000 -0.694309
v -0.000000 1.765000 -0.718801
v 0.116555 1.765000 -0.694309
v 0.225167 1.765000 -0.622500
v 0.318434 1.765000 -0.508269
v 0.390000 1.765000 -0.359401
v 0.434988 1.765000 -0.186039
v 0.502281 1.661292 0.000000
v 0.485167 1.661292 0.207500
v 0.434988 1.661292 0.400859
v 0.355167 1.661292 0.566901
v 0.251141 1.661292 0.694309
v 0.130000 1.661292 0.774401
v 0.000000 1.661292 0.801718
v -0.130000 1.661292 0.774401
v -0.251141 1.661292 0.694309
v -0.355167 1.661292 0.566901
v -0.434988 1.661292 0.400859
v -0.485167 1.661292 0.207500
v -0.502281 1.661292 0.000000
v -0.485167 1.661292 -0.207500
v -0.434988 1.661292 -0.400859
v -0.355167 1.661292 -0.566901
v -0.251141 1.661292 -0.694309
v -0.130000 1.661292 -0.774401
v -0.000000 1.661292 -0.801718
v 0.130000 1.661292 -0.774401
v 0.251141 1.661292 -0.694309
v 0.355167 1.661292 -0.566901
v 0.434988 1.661292 -0.400859
v 0.485167 1.661292 -0.207500
v 0.520000 1.550000 0.000000
v 0.502281 1.550000 0.214820
v 0.450333 1.550000 0.415000
v 0.367696 1.550000 0.586899
v 0.260000 1.550000 0.718801
v 0.134586 1.550000 0.801718
v 0.000000 1.550000 0.830000
v -0.134586 1.550000 0.801718
v -0.260000 1.550000 0.718801
v -0.367696 1.550000 0.586899
v -0.450333 1.550000 0.415000
v -0.502281 1.550000 0.214820
v -0.520000 1.550000 0.000000
v -0.502281 1.550000 -0.214820
v -0.450333 1.550000 -0.415000
v -0.367696 1.550000 -0.586899
v -0.260000 1.550000 -0.718801
v -0.134586 1.550000 -0.801718
v -0.000000 1.550000 -0.830000
v 0.134586 1.550000 -0.801718
v 0.260000 1.550000 -0.718801
v 0.367696 1.550000 -0.586899
v 0.450333 1.550000 -0.415000
v 0.502281 1.550000 -0.214820
v 0.502281 1.438708 0.000000
v 0.485167 1.438708 0.207500
v 0.434988 1.438708 0.400859
v 0.355167 1.438708 0.566901
v 0.251141 1.438708 0.694309
v 0.130000 1.438708 0.774401
v 0.000000 1.438708 0.801718
v -0.130000 1.438708 0.774401
v -0.251141 1.438708 0.694309
v -0.355167 1.438708 0.566901
v -0.434988 1.438708 0.400859
v -0.485167 1.438708 0.207500
v -0.502281 1.438708 0.000000
v -0.485167 1.438708 -0.207500
v -0.434988 1.438708 -0.400859
v -0.355167 1.438708 -0.566901
v -0.251141 1.438708 -0.694309
v -0.130000 1.438708 -0.774401
v -0.000000 1.438708 -0.801718
v 0.130000 1.438708 -0.774401
v 0.251141 1.438708 -0.694309
v 0.355167 1.438708 -0.566901
v 0.434988 1.438708 -0.400859
v 0.485167 1.438708 -0.207500
v 0.450333 1.335000 0.000000
v 0.434988 1.335000 0.186039
v 0.390000 1.335000 0.359401
v 0.318434 1.335000 0.508269
v 0.225167 1.335000 0.622500
v 0.116555 1.335000 0.694309
v 0.000000 1.335000 0.718801
v -0.116555 1.335000 0.694309
v -0.225167 1.335000 0.622500
v -0.318434 1.335000 0.508269
v -0.390000 1.335000 0.359401
v -0.434988 1.335000 0.186039
v -0.450333 1.335000 0.000000
v -0.434988 1.335000 -0.186039
v -0.390000 1.335000 -0.359401
v -0.318434 1.335000 -0.508269
v -0.225167 1.335000 -0.622500
v -0.116555 1.335000 -0.694309
v -0.000000 1.335000 -0.718801
v 0.116555 1.335000 -0.694309
v 0.225167 1.335000 -0.622500
v 0.318434 1.335000 -0.508269
v 0.390000 1.335000 -0.359401
v 0.434988 1.335000 -0.186039
v 0.367696 1.245944 0.000000
v 0.355167 1.245944 0.151901
v 0.318434 1.245944 0.293449
v 0.260000 1.245944 0.415000
v 0.183848 1.245944 0.508269
v 0.095167 1.245944 0.566901
v 0.000000 1.245944 0.586899
v -0.095167 1.245944 0.566901
v -0.183848 1.245944 0.508269
v -0.260000 1.245944 0.415000
v -0.318434 1.245944 0.293449
v -0.355167 1.245944 0.151901
v -0.367696 1.245944 0.000000
v -0.355167 1.245944 -0.151901
v -0.318434 1.245944 -0.293449
v -0.260000 1.245944 -0.415000
v -0.183848 1.245944 -0.508269
v -0.095167 1.245944 -0.566901
v -0.000000 1.245944 -0.586899
v 0.095167 1.245944 -0.566901
v 0.183848 1.245944 -0.508269
v 0.260000 1.245944 -0.415000
v 0.318434 1.245944 -0.293449
v 0.355167 1.245944 -0.151901
v 0.260000 1.177609 0.000000
v 0.251141 1.177609 0.107410
v 0.225167 1.177609 0.207500
v 0.183848 1.177609 0.293449
v 0.130000 1.177609 0.359401
v 0.067293 1.177609 0.400859
v 0.000000 1.177609 0.415000
v -0.067293 1.177609 0.400859
v -0.130000 1.177609 0.359401
v -0.183848 1.177609 0.293449
v -0.225167 1.177609 0.207500
v -0.251141 1.177609 0.107410
v -0.260000 1.177609 0.000000
v -0.251141 1.177609 -0.107410
v -0.225167 1.177609 -0.207500
v -0.183848 1.177609 -0.293449
v -0.130000 1.177609 -0.359401
v -0.067293 1.177609 -0.400859
v -0.000000 1.177609 -0.415000
v 0.067293 1.177609 -0.400859
v 0.130000 1.177609 -0.359401
v 0.183848 1.177609 -0.293449
v 0.225167 1.177609 -0.207500
v 0.251141 1.177609 -0.107410
v 0.134586 1.134652 0.000000
v 0.130000 1.134652 0.055599
v 0.116555 1.134652 0.107410
v 0.095167 1.134652 0.151901
v 0.067293 1.134652 0.186039
v 0.034833 1.134652 0.207500
v 0.000000 1.134652 0.214820
v -0.034833 1.134652 0.207500
v -0.067293 1.134652 0.186039
v -0.095167 1.134652 0.151901
v -0.116555 1.134652 0.107410
v -0.130000 1.134652 0.055599
v -0.134586 1.134652 0.000000
v -0.130000 1.134652 -0.055599
v -0.116555 1.134652 -0.107410
v -0.095167 1.134652 -0.151901
v -0.067293 1.134652 -0.186039
v -0.034833 1.134652 -0.207500
v -0.000000 1.134652 -0.214820
v 0.034833 1.134652 -0.207500
v 0.067293 1.134652 -0.186039
v 0.095167 1.134652 -0.151901
v 0.116555 1.134652 -0.107410
v 0.130000 1.134652 -0.055599
v 0.000000 1.120000 0.000000
v 0.000000 2.080000 0.520000
v 0.148328 2.057486 0.520000
v 0.141068 2.057486 0.565836
v 0.120000 2.057486 0.607185
v 0.087185 2.057486 0.640000
v 0.045836 2.057486 0.661068
v 0.000000 2.057486 0.668328
v -0.045836 2.057486 0.661068
v -0.087185 2.057486 0.640000
v -0.120000 2.057486 0.607185
v -0.141068 2.057486 0.565836
v -0.148328 2.057486 0.520000
v -0.141068 2.057486 0.474164
v -0.120000 2.057486 0.432815
v -0.087185 2.057486 0.400000
v -0.045836 2.057486 0.378932
v -0.000000 2.057486 0.371672
v 0.045836 2.057486 0.378932
v 0.087185 2.057486 0.400000
v 0.120000 2.057486 0.432815
v 0.141068 2.057486 0.474164
v 0.282137 1.992148 0.520000
v 0.268328 1.992148 0.607185
v 0.228254 1.992148 0.685836
v 0.165836 1.992148 0.748254
v 0.087185 1.992148 0.788328
v 0.000000 1.992148 0.802137
v -0.087185 1.992148 0.788328
v -0.165836 1.992148 0.748254
v -0.228254 1.992148 0.685836
v -0.268328 1.992148 0.607185
v -0.282137 1.992148 0.520000
v -0.268328 1.992148 0.432815
v -0.228254 1.992148 0.354164
v -0.165836 1.992148 0.291746
v -0.087185 1.992148 0.251672
v -0.000000 1.992148 0.237863
v 0.087185 1.992148 0.251672
v 0.165836 1.992148 0.291746
v 0.228254 1.992148 0.354164
v 0.268328 1.992148 0.432815
v 0.388328 1.890381 0.520000
v 0.369322 1.890381 0.640000
v 0.314164 1.890381 0.748254
v 0.228254 1.890381 0.834164
v 0.120000 1.890381 0.889322
v 0.000000 1.890381 0.908328
v -0.120000 1.890381 0.889322
v -0.228254 1.890381 0.834164
v -0.314164 1.890381 0.748254
v -0.369322 1.890381 0.640000
v -0.388328 1.890381 0.520000
v -0.369322 1.890381 0.400000
v -0.314164 1.890381 0.291746
v -0.228254 1.890381 0.205836
v -0.120000 1.890381 0.150678
v -0.000000 1.890381 0.131672
v 0.120000 1.890381 0.150678
v 0.228254 1.890381 0.205836
v 0.314164 1.890381 0.291746
v 0.369322 1.890381 0.400000
v 0.456507 1.762148 0.520000
v 0.434164 1.762148 0.661068
v 0.369322 1.762148 0.788328
v 0.268328 1.762148 0.889322
v 0.141068 1.762148 0.954164
v 0.000000 1.762148 0.976507
v -0.141068 1.762148 0.954164
v -0.268328 1.762148 0.889322
v -0.369322 1.762148 0.788328
v -0.434164 1.762148 0.661068
v -0.456507 1.762148 0.520000
v -0.434164 1.762148 0.378932
v -0.369322 1.762148 0.251672
v -0.268328 1.762148 0.150678
v -0.141068 1.762148 0.085836
v -0.000000 1.762148 0.063493
v 0.141068 1.762148 0.085836
v 0.268328 1.762148 0.150678
v 0.369322 1.762148 0.251672
v 0.434164 1.762148 0.378932
v 0.480000 1.620000 0.520000
v 0.456507 1.620000 0.668328
v 0.388328 1.620000 0.802137
v 0.282137 1.620000 0.908328
v 0.148328 1.620000 0.976507
v 0.000000 1.620000 1.000000
v -0.148328 1.620000 0.976507
v -0.282137 1.620000 0.908328
v -0.388328 1.620000 0.802137
v -0.456507 1.620000 0.668328
v -0.480000 1.620000 0.520000
v -0.456507 1.620000 0.371672
v -0.388328 1.620000 0.237863
v -0.282137 1.620000 0.131672
v -0.148328 1.620000 0.063493
v -0.000000 1.620000 0.040000
v 0.148328 1.620000 0.063493
v 0.282137 1.620000 0.131672
v 0.388328 1.620000 0.237863
v 0.456507 1.620000 0.371672
v 0.456507 1.477852 0.520000
v 0.434164 1.477852 0.661068
v 0.369322 1.477852 0.788328
v 0.268328 1.477852 0.889322
v 0.141068 1.477852 0.954164
v 0.000000 1.477852 0.976507
v -0.141068 1.477852 0.954164
v -0.268328 1.477852 0.889322
v -0.369322 1.477852 0.788328
v -0.434164 1.477852 0.661068
v -0.456507 1.477852 0.520000
v -0.434164 1.477852 0.378932
v -0.369322 1.477852 0.251672
v -0.268328 1.477852 0.150678
v -0.141068 1.477852 0.085836
v -0.000000 1.477852 0.063493
v 0.141068 1.477852 0.085836
v 0.268328 1.477852 0.150678
v 0.369322 1.477852 0.251672
v 0.434164 1.477852 0.378932
v 0.388328 1.349619 0.520000
v 0.369322 1.349619 0.640000
v 0.314164 1.349619 0.748254
v 0.228254 1.349619 0.834164
v 0.120000 1.349619 0.889322
v 0.000000 1.349619 0.908328
v -0.120000 1.349619 0.889322
v -0.228254 1.349619 0.834164
v -0.314164 1.349619 0.748254
v -0.369322 1.349619 0.640000
v -0.388328 1.349619 0.520000
v -0.369322 1.349619 0.400000
v -0.314164 1.349619 0.291746
v -0.228254 1.349619 0.205836
v -0.120000 1.349619 0.150678
v -0.000000 1.349619 0.131672
v 0.120000 1.349619 0.150678
v 0.228254 1.349619 0.205836
v 0.314164 1.349619 0.291746
v 0.369322 1.349619 0.400000
v 0.282137 1.247852 0.520000
v 0.268328 1.247852 0.607185
v 0.228254 1.247852 0.685836
v 0.165836 1.247852 0.748254
v 0.087185 1.247852 0.788328
v 0.000000 1.247852 0.802137
v -0.087185 1.247852 0.788328
v -0.165836 1.247852 0.748254
v -0.228254 1.247852 0.685836
v -0.268328 1.247852 0.607185
v -0.282137 1.247852 0.520000
v -0.268328 1.247852 0.432815
v -0.228254 1.247852 0.354164
v -0.165836 1.247852 0.291746
v -0.087185 1.247852 0.251672
v -0.000000 1.247852 0.237863
v 0.087185 1.247852 0.251672
v 0.165836 1.247852 0.291746
v 0.228254 1.247852 0.354164
v 0.268328 1.247852 0.432815
v 0.148328 1.182514 0.520000
v 0.141068 1.182514 0.565836
v 0.120000 1.182514 0.607185
v 0.087185 1.182514 0.640000
v 0.045836 1.182514 0.661068
v 0.000000 1.182514 0.668328
v -0.045836 1.182514 0.661068
v -0.087185 1.182514 0.640000
v -0.120000 1.182514 0.607185
v -0.141068 1.182514 0.565836
v -0.148328 1.182514 0.520000
v -0.141068 1.182514 0.474164
v -0.120000 1.182514 0.432815
v -0.087185 1.182514 0.400000
v -0.045836 1.182514 0.378932
v -0.000000 1.182514 0.371672
v 0.045836 1.182514 0.378932
v 0.087185 1.182514 0.400000
v 0.120000 1.182514 0.432815
v 0.141068 1.182514 0.474164
v 0.000000 1.160000 0.520000
v -0.185000 1.560000 0.480000
v -0.200407 1.570108 0.536605
v -0.242500 1.577508 0.578042
v -0.300000 1.580216 0.593209
v -0.357500 1.577508 0.578042
v -0.399593 1.570108 0.536605
v -0.415000 1.560000 0.480000
v -0.399593 1.549892 0.423395
v -0.357500 1.542492 0.381958
v -0.300000 1.539784 0.366791
v -0.242500 1.542492 0.381958
v -0.200407 1.549892 0.423395
v -0.225000 1.000000 0.580000
v -0.236388 1.007471 0.621838
v -0.267500 1.012940 0.652466
v -0.310000 1.014942 0.663676
v -0.352500 1.012940 0.652466
v -0.383612 1.007471 0.621838
v -0.395000 1.000000 0.580000
v -0.383612 0.992529 0.538162
v -0.352500 0.987060 0.507534
v -0.310000 0.985058 0.496324
v -0.267500 0.987060 0.507534
v -0.236388 0.992529 0.538162
v -0.300000 1.560000 0.480000
v -0.310000 1.000000 0.580000
v -0.222000 1.000000 0.580000
v -0.233790 0.997803 0.623945
v -0.266000 0.996194 0.656115
v -0.310000 0.995605 0.667890
v -0.354000 0.996194 0.656115
v -0.386210 0.997803 0.623945
v -0.398000 1.000000 0.580000
v -0.386210 1.002197 0.536055
v -0.354000 1.003806 0.503885
v -0.310000 1.004395 0.492110
v -0.266000 1.003806 0.503885
v -0.233790 1.002197 0.536055
v -0.205000 0.400000 0.550000
v -0.219067 0.397378 0.602434
v -0.257500 0.395459 0.640819
v -0.310000 0.394757 0.654869
v -0.362500 0.395459 0.640819
v -0.400933 0.397378 0.602434
v -0.415000 0.400000 0.550000
v -0.400933 0.402622 0.497566
v -0.362500 0.404541 0.459181
v -0.310000 0.405243 0.445131
v -0.257500 0.404541 0.459181
v -0.219067 0.402622 0.497566
v -0.310000 1.000000 0.580000
v -0.310000 0.400000 0.550000
v -0.310000 0.485000 0.550000
v -0.253595 0.479553 0.550000
v -0.259181 0.479553 0.583886
v -0.274832 0.479553 0.611060
v -0.297449 0.479553 0.626141
v -0.322551 0.479553 0.626141
v -0.345168 0.479553 0.611060
v -0.360819 0.479553 0.583886
v -0.366405 0.479553 0.550000
v -0.360819 0.479553 0.516114
v -0.345168 0.479553 0.488940
v -0.322551 0.479553 0.473859
v -0.297449 0.479553 0.473859
v -0.274832 0.479553 0.488940
v -0.259181 0.479553 0.516114
v -0.208362 0.464292 0.550000
v -0.218427 0.464292 0.611060
v -0.246630 0.464292 0.660027
v -0.287383 0.464292 0.687201
v -0.332617 0.464292 0.687201
v -0.373370 0.464292 0.660027
v -0.401573 0.464292 0.611060
v -0.411638 0.464292 0.550000
v -0.401573 0.464292 0.488940
v -0.373370 0.464292 0.439973
v -0.332617 0.464292 0.412799
v -0.287383 0.464292 0.412799
v -0.246630 0.464292 0.439973
v -0.218427 0.464292 0.488940
v -0.183259 0.442239 0.550000
v -0.195811 0.442239 0.626141
v -0.230979 0.442239 0.687201
v -0.281798 0.442239 0.721087
v -0.338202 0.442239 0.721087
v -0.389021 0.442239 0.687201
v -0.424189 0.442239 0.626141
v -0.436741 0.442239 0.550000
v -0.424189 0.442239 0.473859
v -0.389021 0.442239 0.412799
v -0.338202 0.442239 0.378913
v -0.281798 0.442239 0.378913
v -0.230979 0.442239 0.412799
v -0.195811 0.442239 0.473859
v -0.183259 0.417761 0.550000
v -0.195811 0.417761 0.626141
v -0.230979 0.417761 0.687201
v -0.281798 0.417761 0.721087
v -0.338202 0.417761 0.721087
v -0.389021 0.417761 0.687201
v -0.424189 0.417761 0.626141
v -0.436741 0.417761 0.550000
v -0.424189 0.417761 0.473859
v -0.389021 0.417761 0.412799
v -0.338202 0.417761 0.378913
v -0.281798 0.417761 0.378913
v -0.230979 0.417761 0.412799
v -0.195811 0.417761 0.473859
v -0.208362 0.395708 0.550000
v -0.218427 0.395708 0.611060
v -0.246630 0.395708 0.660027
v -0.287383 0.395708 0.687201
v -0.332617 0.395708 0.687201
v -0.373370 0.395708 0.660027
v -0.401573 0.395708 0.611060
v -0.411638 0.395708 0.550000
v -0.401573 0.395708 0.488940
v -0.373370 0.395708 0.439973
v -0.332617 0.395708 0.412799
v -0.287383 0.395708 0.412799
v -0.246630 0.395708 0.439973
v -0.218427 0.395708 0.488940
v -0.253595 0.380447 0.550000
v -0.259181 0.380447 0.583886
v -0.274832 0.380447 0.611060
v -0.297449 0.380447 0.626141
v -0.322551 0.380447 0.626141
v -0.345168 0.380447 0.611060
v -0.360819 0.380447 0.583886
v -0.366405 0.380447 0.550000
v -0.360819 0.380447 0.516114
v -0.345168 0.380447 0.488940
v -0.322551 0.380447 0.473859
v -0.297449 0.380447 0.473859
v -0.274832 0.380447 0.488940
v -0.259181 0.380447 0.516114
v -0.310000 0.375000 0.550000
v 0.415000 1.560000 0.480000
v 0.399593 1.570108 0.536605
v 0.357500 1.577508 0.578042
v 0.300000 1.580216 0.593209
v 0.242500 1.577508 0.578042
v 0.200407 1.570108 0.536605
v 0.185000 1.560000 0.480000
v 0.200407 1.549892 0.423395
v 0.242500 1.542492 0.381958
v 0.300000 1.539784 0.366791
v 0.357500 1.542492 0.381958
v 0.399593 1.549892 0.423395
v 0.395000 1.000000 0.580000
v 0.383612 1.007471 0.621838
v 0.352500 1.012940 0.652466
v 0.310000 1.014942 0.663676
v 0.267500 1.012940 0.652466
v 0.236388 1.007471 0.621838
v 0.225000 1.000000 0.580000
v 0.236388 0.992529 0.538162
v 0.267500 0.987060 0.507534
v 0.310000 0.985058 0.496324
v 0.352500 0.987060 0.507534
v 0.383612 0.992529 0.538162
v 0.300000 1.560000 0.480000
v 0.310000 1.000000 0.580000
v 0.398000 1.000000 0.580000
v 0.386210 0.997803 0.623945
v 0.354000 0.996194 0.656115
v 0.310000 0.995605 0.667890
v 0.266000 0.996194 0.656115
v 0.233790 0.997803 0.623945
v 0.222000 1.000000 0.580000
v 0.233790 1.002197 0.536055
v 0.266000 1.003806 0.503885
v 0.310000 1.004395 0.492110
v 0.354000 1.003806 0.503885
v 0.386210 1.002197 0.536055
v 0.415000 0.400000 0.550000
v 0.400933 0.397378 0.602434
v 0.362500 0.395459 0.640819
v 0.310000 0.394757 0.654869
v 0.257500 0.395459 0.640819
v 0.219067 0.397378 0.602434
v 0.205000 0.400000 0.550000
v 0.219067 0.402622 0.497566
v 0.257500 0.404541 0.459181
v 0.310000 0.405243 0.445131
v 0.362500 0.404541 0.459181
v 0.400933 0.402622 0.497566
v 0.310000 1.000000 0.580000
v 0.310000 0.400000 0.550000
v 0.310000 0.485000 0.550000
v 0.366405 0.479553 0.550000
v 0.360819 0.479553 0.583886
v 0.345168 0.479553 0.611060
v 0.322551 0.479553 0.626141
v 0.297449 0.479553 0.626141
v 0.274832 0.479553 0.611060
v 0.259181 0.479553 0.583886
v 0.253595 0.479553 0.550000
v 0.259181 0.479553 0.516114
v 0.274832 0.479553 0.488940
v 0.297449 0.479553 0.473859
v 0.322551 0.479553 0.473859
v 0.345168 0.479553 0.488940
v 0.360819 0.479553 0.516114
v 0.411638 0.464292 0.550000
v 0.401573 0.464292 0.611060
v 0.373370 0.464292 0.660027
v 0.332617 0.464292 0.687201
v 0.287383 0.464292 0.687201
v 0.246630 0.464292 0.660027
v 0.218427 0.464292 0.611060
v 0.208362 0.464292 0.550000
v 0.218427 0.464292 0.488940
v 0.246630 0.464292 0.439973
v 0.287383 0.464292 0.412799
v 0.332617 0.464292 0.412799
v 0.373370 0.464292 0.439973
v 0.401573 0.464292 0.488940
v 0.436741 0.442239 0.550000
v 0.424189 0.442239 0.626141
v 0.389021 0.442239 0.687201
v 0.338202 0.442239 0.721087
v 0.281798 0.442239 0.721087
v 0.230979 0.442239 0.687201
v 0.195811 0.442239 0.626141
v 0.183259 0.442239 0.550000
v 0.195811 0.442239 0.473859
v 0.230979 0.442239 0.412799
v 0.281798 0.442239 0.378913
v 0.338202 0.442239 0.378913
v 0.389021 0.442239 0.412799
v 0.424189 0.442239 0.473859
v 0.436741 0.417761 0.550000
v 0.424189 0.417761 0.626141
v 0.389021 0.417761 0.687201
v 0.338202 0.417761 0.721087
v 0.281798 0.417761 0.721087
v 0.230979 0.417761 0.687201
v 0.195811 0.417761 0.626141
v 0.183259 0.417761 0.550000
v 0.195811 0.417761 0.473859
v 0.230979 0.417761 0.412799
v 0.281798 0.417761 0.378913
v 0.338202 0.417761 0.378913
v 0.389021 0.417761 0.412799
v 0.424189 0.417761 0.473859
v 0.411638 0.395708 0.550000
v 0.401573 0.395708 0.611060
v 0.373370 0.395708 0.660027
v 0.332617 0.395708 0.687201
v 0.287383 0.395708 0.687201
v 0.246630 0.395708 0.660027
v 0.218427 0.395708 0.611060
v 0.208362 0.395708 0.550000
v 0.218427 0.395708 0.488940
v 0.246630 0.395708 0.439973
v 0.287383 0.395708 0.412799
v 0.332617 0.395708 0.412799
v 0.373370 0.395708 0.439973
v 0.401573 0.395708 0.488940
v 0.366405 0.380447 0.550000
v 0.360819 0.380447 0.583886
v 0.345168 0.380447 0.611060
v 0.322551 0.380447 0.626141
v 0.297449 0.380447 0.626141
v 0.274832 0.380447 0.611060
v 0.259181 0.380447 0.583886
v 0.253595 0.380447 0.550000
v 0.259181 0.380447 0.516114
v 0.274832 0.380447 0.488940
v 0.297449 0.380447 0.473859
v 0.322551 0.380447 0.473859
v 0.345168 0.380447 0.488940
v 0.360819 0.380447 0.516114
v 0.310000 0.375000 0.550000
v -0.185000 1.500000 -0.480000
v -0.200407 1.489141 -0.423535
v -0.242500 1.481192 -0.382199
v -0.300000 1.478283 -0.367069
v -0.357500 1.481192 -0.382199
v -0.399593 1.489141 -0.423535
v -0.415000 1.500000 -0.480000
v -0.399593 1.510859 -0.536465
v -0.357500 1.518808 -0.577801
v -0.300000 1.521717 -0.592931
v -0.242500 1.518808 -0.577801
v -0.200407 1.510859 -0.536465
v -0.255000 0.980000 -0.580000
v -0.266388 0.971974 -0.538265
v -0.297500 0.966099 -0.507712
v -0.340000 0.963948 -0.496529
v -0.382500 0.966099 -0.507712
v -0.413612 0.971974 -0.538265
v -0.425000 0.980000 -0.580000
v -0.413612 0.988026 -0.621735
v -0.382500 0.993901 -0.652288
v -0.340000 0.996052 -0.663471
v -0.297500 0.993901 -0.652288
v -0.266388 0.988026 -0.621735
v -0.300000 1.500000 -0.480000
v -0.340000 0.980000 -0.580000
v -0.252000 0.980000 -0.580000
v -0.263790 0.973988 -0.536413
v -0.296000 0.969587 -0.504505
v -0.340000 0.967976 -0.492825
v -0.384000 0.969587 -0.504505
v -0.416210 0.973988 -0.536413
v -0.428000 0.980000 -0.580000
v -0.416210 0.986012 -0.623587
v -0.384000 0.990413 -0.655495
v -0.340000 0.992024 -0.667175
v -0.296000 0.990413 -0.655495
v -0.263790 0.986012 -0.623587
v -0.235000 0.400000 -0.660000
v -0.249067 0.392827 -0.607992
v -0.287500 0.387575 -0.569920
v -0.340000 0.385653 -0.555985
v -0.392500 0.387575 -0.569920
v -0.430933 0.392827 -0.607992
v -0.445000 0.400000 -0.660000
v -0.430933 0.407173 -0.712008
v -0.392500 0.412425 -0.750080
v -0.340000 0.414347 -0.764015
v -0.287500 0.412425 -0.750080
v -0.249067 0.407173 -0.712008
v -0.340000 0.980000 -0.580000
v -0.340000 0.400000 -0.660000
v -0.340000 0.485000 -0.660000
v -0.283595 0.479553 -0.660000
v -0.289181 0.479553 -0.626114
v -0.304832 0.479553 -0.598940
v -0.327449 0.479553 -0.583859
v -0.352551 0.479553 -0.583859
v -0.375168 0.479553 -0.598940
v -0.390819 0.479553 -0.626114
v -0.396405 0.479553 -0.660000
v -0.390819 0.479553 -0.693886
v -0.375168 0.479553 -0.721060
v -0.352551 0.479553 -0.736141
v -0.327449 0.479553 -0.736141
v -0.304832 0.479553 -0.721060
v -0.289181 0.479553 -0.693886
v -0.238362 0.464292 -0.660000
v -0.248427 0.464292 -0.598940
v -0.276630 0.464292 -0.549973
v -0.317383 0.464292 -0.522799
v -0.362617 0.464292 -0.522799
v -0.403370 0.464292 -0.549973
v -0.431573 0.464292 -0.598940
v -0.441638 0.464292 -0.660000
v -0.431573 0.464292 -0.721060
v -0.403370 0.464292 -0.770027
v -0.362617 0.464292 -0.797201
v -0.317383 0.464292 -0.797201
v -0.276630 0.464292 -0.770027
v -0.248427 0.464292 -0.721060
v -0.213259 0.442239 -0.660000
v -0.225811 0.442239 -0.583859
v -0.260979 0.442239 -0.522799
v -0.311798 0.442239 -0.488913
v -0.368202 0.442239 -0.488913
v -0.419021 0.442239 -0.522799
v -0.454189 0.442239 -0.583859
v -0.466741 0.442239 -0.660000
v -0.454189 0.442239 -0.736141
v -0.419021 0.442239 -0.797201
v -0.368202 0.442239 -0.831087
v -0.311798 0.442239 -0.831087
v -0.260979 0.442239 -0.797201
v -0.225811 0.442239 -0.736141
v -0.213259 0.417761 -0.660000
v -0.225811 0.417761 -0.583859
v -0.260979 0.417761 -0.522799
v -0.311798 0.417761 -0.488913
v -0.368202 0.417761 -0.488913
v -0.419021 0.417761 -0.522799
v -0.454189 0.417761 -0.583859
v -0.466741 0.417761 -0.660000
v -0.454189 0.417761 -0.736141
v -0.419021 0.417761 -0.797201
v -0.368202 0.417761 -0.831087
v -0.311798 0.417761 -0.831087
v -0.260979 0.417761 -0.797201
v -0.225811 0.417761 -0.736141
v -0.238362 0.395708 -0.660000
v -0.248427 0.395708 -0.598940
v -0.276630 0.395708 -0.549973
v -0.317383 0.395708 -0.522799
v -0.362617 0.395708 -0.522799
v -0.403370 0.395708 -0.549973
v -0.431573 0.395708 -0.598940
v -0.441638 0.395708 -0.660000
v -0.431573 0.395708 -0.721060
v -0.403370 0.395708 -0.770027
v -0.362617 0.395708 -0.797201
v -0.317383 0.395708 -0.797201
v -0.276630 0.395708 -0.770027
v -0.248427 0.395708 -0.721060
v -0.283595 0.380447 -0.660000
v -0.289181 0.380447 -0.626114
v -0.304832 0.380447 -0.598940
v -0.327449 0.380447 -0.583859
v -0.352551 0.380447 -0.583859
v -0.375168 0.380447 -0.598940
v -0.390819 0.380447 -0.626114
v -0.396405 0.380447 -0.660000
v -0.390819 0.380447 -0.693886
v -0.375168 0.380447 -0.721060
v -0.352551 0.380447 -0.736141
v -0.327449 0.380447 -0.736141
v -0.304832 0.380447 -0.721060
v -0.289181 0.380447 -0.693886
v -0.340000 0.375000 -0.660000
v 0.415000 1.500000 -0.480000
v 0.399593 1.489141 -0.423535
v 0.357500 1.481192 -0.382199
v 0.300000 1.478283 -0.367069
v 0.242500 1.481192 -0.382199
v 0.200407 1.489141 -0.423535
v 0.185000 1.500000 -0.480000
v 0.200407 1.510859 -0.536465
v 0.242500 1.518808 -0.577801
v 0.300000 1.521717 -0.592931
v 0.357500 1.518808 -0.577801
v 0.399593 1.510859 -0.536465
v 0.425000 0.980000 -0.580000
v 0.413612 0.971974 -0.538265
v 0.382500 0.966099 -0.507712
v 0.340000 0.963948 -0.496529
v 0.297500 0.966099 -0.507712
v 0.266388 0.971974 -0.538265
v 0.255000 0.980000 -0.580000
v 0.266388 0.988026 -0.621735
v 0.297500 0.993901 -0.652288
v 0.340000 0.996052 -0.663471
v 0.382500 0.993901 -0.652288
v 0.413612 0.988026 -0.621735
v 0.300000 1.500000 -0.480000
v 0.340000 0.980000 -0.580000
v 0.428000 0.980000 -0.580000
v 0.416210 0.973988 -0.536413
v 0.384000 0.969587 -0.504505
v 0.340000 0.967976 -0.492825
v 0.296000 0.969587 -0.504505
v 0.263790 0.973988 -0.536413
v 0.252000 0.980000 -0.580000
v 0.263790 0.986012 -0.623587
v 0.296000 0.990413 -0.655495
v 0.340000 0.992024 -0.667175
v 0.384000 0.990413 -0.655495
v 0.416210 0.986012 -0.623587
v 0.445000 0.400000 -0.660000
v 0.430933 0.392827 -0.607992
v 0.392500 0.387575 -0.569920
v 0.340000 0.385653 -0.555985
v 0.287500 0.387575 -0.569920
v 0.249067 0.392827 -0.607992
v 0.235000 0.400000 -0.660000
v 0.249067 0.407173 -0.712008
v 0.287500 0.412425 -0.750080
v 0.340000 0.414347 -0.764015
v 0.392500 0.412425 -0.750080
v 0.430933 0.407173 -0.712008
v 0.340000 0.980000 -0.580000
v 0.340000 0.400000 -0.660000
v 0.340000 0.485000 -0.660000
v 0.396405 0.479553 -0.660000
v 0.390819 0.479553 -0.626114
v 0.375168 0.479553 -0.598940
v 0.352551 0.479553 -0.583859
v 0.327449 0.479553 -0.583859
v 0.304832 0.479553 -0.598940
v 0.289181 0.479553 -0.626114
v 0.283595 0.479553 -0.660000
v 0.289181 0.479553 -0.693886
v 0.304832 0.479553 -0.721060
v 0.327449 0.479553 -0.736141
v 0.352551 0.479553 -0.736141
v 0.375168 0.479553 -0.721060
v 0.390819 0.479553 -0.693886
v 0.441638 0.464292 -0.660000
v 0.431573 0.464292 -0.598940
v 0.403370 0.464292 -0.549973
v 0.362617 0.464292 -0.522799
v 0.317383 0.464292 -0.522799
v 0.276630 0.464292 -0.549973
v 0.248427 0.464292 -0.598940
v 0.238362 0.464292 -0.660000
v 0.248427 0.464292 -0.721060
v 0.276630 0.464292 -0.770027
v 0.317383 0.464292 -0.797201
v 0.362617 0.464292 -0.797201
v 0.403370 0.464292 -0.770027
v 0.431573 0.464292 -0.721060
v 0.466741 0.442239 -0.660000
v 0.454189 0.442239 -0.583859
v 0.419021 0.442239 -0.522799
v 0.368202 0.442239 -0.488913
v 0.311798 0.442239 -0.488913
v 0.260979 0.442239 -0.522799
v 0.225811 0.442239 -0.583859
v 0.213259 0.442239 -0.660000
v 0.225811 0.442239 -0.736141
v 0.260979 0.442239 -0.797201
v 0.311798 0.442239 -0.831087
v 0.368202 0.442239 -0.831087
v 0.419021 0.442239 -0.797201
v 0.454189 0.442239 -0.736141
v 0.466741 0.417761 -0.660000
v 0.454189 0.417761 -0.583859
v 0.419021 0.417761 -0.522799
v 0.368202 0.417761 -0.488913
v 0.311798 0.417761 -0.488913
v 0.260979 0.417761 -0.522799
v 0.225811 0.417761 -0.583859
v 0.213259 0.417761 -0.660000
v 0.225811 0.417761 -0.736141
v 0.260979 0.417761 -0.797201
v 0.311798 0.417761 -0.831087
v 0.368202 0.417761 -0.831087
v 0.419021 0.417761 -0.797201
v 0.454189 0.417761 -0.736141
v 0.441638 0.395708 -0.660000
v 0.431573 0.395708 -0.598940
v 0.403370 0.395708 -0.549973
v 0.362617 0.395708 -0.522799
v 0.317383 0.395708 -0.522799
v 0.276630 0.395708 -0.549973
v 0.248427 0.395708 -0.598940
v 0.238362 0.395708 -0.660000
v 0.248427 0.395708 -0.721060
v 0.276630 0.395708 -0.770027
v 0.317383 0.395708 -0.797201
v 0.362617 0.395708 -0.797201
v 0.403370 0.395708 -0.770027
v 0.431573 0.395708 -0.721060
v 0.396405 0.380447 -0.660000
v 0.390819 0.380447 -0.626114
v 0.375168 0.380447 -0.598940
v 0.352551 0.380447 -0.583859
v 0.327449 0.380447 -0.583859
v 0.304832 0.380447 -0.598940
v 0.289181 0.380447 -0.626114
v 0.283595 0.380447 -0.660000
v 0.289181 0.380447 -0.693886
v 0.304832 0.380447 -0.721060
v 0.327449 0.380447 -0.736141
v 0.352551 0.380447 -0.736141
v 0.375168 0.380447 -0.721060
v 0.390819 0.380447 -0.693886
v 0.340000 0.375000 -0.660000
v -0.310000 1.720000 0.550000
v -0.291305 1.648004 0.627834
v -0.237474 1.584691 0.696280
v -0.155000 1.537699 0.747082
v -0.053831 1.512695 0.774114
v 0.053831 1.512695 0.774114
v 0.155000 1.537699 0.747082
v 0.237474 1.584691 0.696280
v 0.291305 1.648004 0.627834
v 0.310000 1.720000 0.550000
v 0.291305 1.791996 0.472166
v 0.237474 1.855309 0.403720
v 0.155000 1.902301 0.352918
v 0.053831 1.927305 0.325886
v -0.053831 1.927305 0.325886
v -0.155000 1.902301 0.352918
v -0.237474 1.855309 0.403720
v -0.291305 1.791996 0.472166
v -0.210000 2.120000 0.920000
v -0.197335 2.071228 0.972726
v -0.160869 2.028339 1.019093
v -0.105000 1.996506 1.053507
v -0.036466 1.979568 1.071819
v 0.036466 1.979568 1.071819
v 0.105000 1.996506 1.053507
v 0.160869 2.028339 1.019093
v 0.197335 2.071228 0.972726
v 0.210000 2.120000 0.920000
v 0.197335 2.168772 0.867274
v 0.160869 2.211661 0.820907
v 0.105000 2.243494 0.786493
v 0.036466 2.260432 0.768181
v -0.036466 2.260432 0.768181
v -0.105000 2.243494 0.786493
v -0.160869 2.211661 0.820907
v -0.197335 2.168772 0.867274
v 0.000000 1.720000 0.550000
v 0.000000 2.120000 0.920000
v 0.000000 2.540000 1.120000
v 0.076068 2.527038 1.120000
v 0.072987 2.527038 1.151749
v 0.063992 2.527038 1.180926
v 0.049814 2.527038 1.205168
v 0.031600 2.527038 1.222509
v 0.010826 2.527038 1.231546
v -0.010826 2.527038 1.231546
v -0.031600 2.527038 1.222509
v -0.049814 2.527038 1.205168
v -0.063992 2.527038 1.180926
v -0.072987 2.527038 1.151749
v -0.076068 2.527038 1.120000
v -0.072987 2.527038 1.088251
v -0.063992 2.527038 1.059074
v -0.049814 2.527038 1.034832
v -0.031600 2.527038 1.017491
v -0.010826 2.527038 1.008454
v 0.010826 2.527038 1.008454
v 0.031600 2.527038 1.017491
v 0.049814 2.527038 1.034832
v 0.063992 2.527038 1.059074
v 0.072987 2.527038 1.088251
v 0.145973 2.489201 1.120000
v 0.140060 2.489201 1.180926
v 0.122800 2.489201 1.236917
v 0.095592 2.489201 1.283436
v 0.060639 2.489201 1.316714
v 0.020774 2.489201 1.334055
v -0.020774 2.489201 1.334055
v -0.060639 2.489201 1.316714
v -0.095592 2.489201 1.283436
v -0.122800 2.489201 1.236917
v -0.140060 2.489201 1.180926
v -0.145973 2.489201 1.120000
v -0.140060 2.489201 1.059074
v -0.122800 2.489201 1.003083
v -0.095592 2.489201 0.956564
v -0.060639 2.489201 0.923286
v -0.020774 2.489201 0.905945
v 0.020774 2.489201 0.905945
v 0.060639 2.489201 0.923286
v 0.095592 2.489201 0.956564
v 0.122800 2.489201 1.003083
v 0.140060 2.489201 1.059074
v 0.204052 2.429555 1.120000
v 0.195787 2.429555 1.205168
v 0.171660 2.429555 1.283436
v 0.133626 2.429555 1.348463
v 0.084766 2.429555 1.394982
v 0.029040 2.429555 1.419223
v -0.029040 2.429555 1.419223
v -0.084766 2.429555 1.394982
v -0.133626 2.429555 1.348463
v -0.171660 2.429555 1.283436
v -0.195787 2.429555 1.205168
v -0.204052 2.429555 1.120000
v -0.195787 2.429555 1.034832
v -0.171660 2.429555 0.956564
v -0.133626 2.429555 0.891537
v -0.084766 2.429555 0.845018
v -0.029040 2.429555 0.820777
v 0.029040 2.429555 0.820777
v 0.084766 2.429555 0.845018
v 0.133626 2.429555 0.891537
v 0.171660 2.429555 0.956564
v 0.195787 2.429555 1.034832
v 0.245601 2.352933 1.120000
v 0.235652 2.352933 1.222509
v 0.206612 2.352933 1.316714
v 0.160834 2.352933 1.394982
v 0.102026 2.352933 1.450972
v 0.034953 2.352933 1.480149
v -0.034953 2.352933 1.480149
v -0.102026 2.352933 1.450972
v -0.160834 2.352933 1.394982
v -0.206612 2.352933 1.316714
v -0.235652 2.352933 1.222509
v -0.245601 2.352933 1.120000
v -0.235652 2.352933 1.017491
v -0.206612 2.352933 0.923286
v -0.160834 2.352933 0.845018
v -0.102026 2.352933 0.789028
v -0.034953 2.352933 0.759851
v 0.034953 2.352933 0.759851
v 0.102026 2.352933 0.789028
v 0.160834 2.352933 0.845018
v 0.206612 2.352933 0.923286
v 0.235652 2.352933 1.017491
v 0.267252 2.265541 1.120000
v 0.256426 2.265541 1.231546
v 0.224827 2.265541 1.334055
v 0.175013 2.265541 1.419223
v 0.111020 2.265541 1.480149
v 0.038034 2.265541 1.511899
v -0.038034 2.265541 1.511899
v -0.111020 2.265541 1.480149
v -0.175013 2.265541 1.419223
v -0.224827 2.265541 1.334055
v -0.256426 2.265541 1.231546
v -0.267252 2.265541 1.120000
v -0.256426 2.265541 1.008454
v -0.224827 2.265541 0.905945
v -0.175013 2.265541 0.820777
v -0.111020 2.265541 0.759851
v -0.038034 2.265541 0.728101
v 0.038034 2.265541 0.728101
v 0.111020 2.265541 0.759851
v 0.175013 2.265541 0.820777
v 0.224827 2.265541 0.905945
v 0.256426 2.265541 1.008454
v 0.267252 2.174459 1.120000
v 0.256426 2.174459 1.231546
v 0.224827 2.174459 1.334055
v 0.175013 2.174459 1.419223
v 0.111020 2.174459 1.480149
v 0.038034 2.174459 1.511899
v -0.038034 2.174459 1.511899
v -0.111020 2.174459 1.480149
v -0.175013 2.174459 1.419223
v -0.224827 2.174459 1.334055
v -0.256426 2.174459 1.231546
v -0.267252 2.174459 1.120000
v -0.256426 2.174459 1.008454
v -0.224827 2.174459 0.905945
v -0.175013 2.174459 0.820777
v -0.111020 2.174459 0.759851
v -0.038034 2.174459 0.728101
v 0.038034 2.174459 0.728101
v 0.111020 2.174459 0.759851
v 0.175013 2.174459 0.820777
v 0.224827 2.174459 0.905945
v 0.256426 2.174459 1.008454
v 0.245601 2.087067 1.120000
v 0.235652 2.087067 1.222509
v 0.206612 2.087067 1.316714
v 0.160834 2.087067 1.394982
v 0.102026 2.087067 1.450972
v 0.034953 2.087067 1.480149
v -0.034953 2.087067 1.480149
v -0.102026 2.087067 1.450972
v -0.160834 2.087067 1.394982
v -0.206612 2.087067 1.316714
v -0.235652 2.087067 1.222509
v -0.245601 2.087067 1.120000
v -0.235652 2.087067 1.017491
v -0.206612 2.087067 0.923286
v -0.160834 2.087067 0.845018
v -0.102026 2.087067 0.789028
v -0.034953 2.087067 0.759851
v 0.034953 2.087067 0.759851
v 0.102026 2.087067 0.789028
v 0.160834 2.087067 0.845018
v 0.206612 2.087067 0.923286
v 0.235652 2.087067 1.017491
v 0.204052 2.010445 1.120000
v 0.195787 2.010445 1.205168
v 0.171660 2.010445 1.283436
v 0.133626 2.010445 1.348463
v 0.084766 2.010445 1.394982
v 0.029040 2.010445 1.419223
v -0.029040 2.010445 1.419223
v -0.084766 2.010445 1.394982
v -0.133626 2.010445 1.348463
v -0.171660 2.010445 1.283436
v -0.195787 2.010445 1.205168
v -0.204052 2.010445 1.120000
v -0.195787 2.010445 1.034832
v -0.171660 2.010445 0.956564
v -0.133626 2.010445 0.891537
v -0.084766 2.010445 0.845018
v -0.029040 2.010445 0.820777
v 0.029040 2.010445 0.820777
v 0.084766 2.010445 0.845018
v 0.133626 2.010445 0.891537
v 0.171660 2.010445 0.956564
v 0.195787 2.010445 1.034832
v 0.145973 1.950799 1.120000
v 0.140060 1.950799 1.180926
v 0.122800 1.950799 1.236917
v 0.095592 1.950799 1.283436
v 0.060639 1.950799 1.316714
v 0.020774 1.950799 1.334055
v -0.020774 1.950799 1.334055
v -0.060639 1.950799 1.316714
v -0.095592 1.950799 1.283436
v -0.122800 1.950799 1.236917
v -0.140060 1.950799 1.180926
v -0.145973 1.950799 1.120000
v -0.140060 1.950799 1.059074
v -0.122800 1.950799 1.003083
v -0.095592 1.950799 0.956564
v -0.060639 1.950799 0.923286
v -0.020774 1.950799 0.905945
v 0.020774 1.950799 0.905945
v 0.060639 1.950799 0.923286
v 0.095592 1.950799 0.956564
v 0.122800 1.950799 1.003083
v 0.140060 1.950799 1.059074
v 0.076068 1.912962 1.120000
v 0.072987 1.912962 1.151749
v 0.063992 1.912962 1.180926
v 0.049814 1.912962 1.205168
v 0.031600 1.912962 1.222509
v 0.010826 1.912962 1.231546
v -0.010826 1.912962 1.231546
v -0.031600 1.912962 1.222509
v -0.049814 1.912962 1.205168
v -0.063992 1.912962 1.180926
v -0.072987 1.912962 1.151749
v -0.076068 1.912962 1.120000
v -0.072987 1.912962 1.088251
v -0.063992 1.912962 1.059074
v -0.049814 1.912962 1.034832
v -0.031600 1.912962 1.017491
v -0.010826 1.912962 1.008454
v 0.010826 1.912962 1.008454
v 0.031600 1.912962 1.017491
v 0.049814 1.912962 1.034832
v 0.063992 1.912962 1.059074
v 0.072987 1.912962 1.088251
v 0.000000 1.900000 1.120000
v 0.000000 2.320000 1.470000
v 0.078665 2.307939 1.470000
v 0.073921 2.307939 1.505093
v 0.060261 2.307939 1.535954
v 0.039332 2.307939 1.558859
v 0.013660 2.307939 1.571047
v -0.013660 2.307939 1.571047
v -0.039332 2.307939 1.558859
v -0.060261 2.307939 1.535954
v -0.073921 2.307939 1.505093
v -0.078665 2.307939 1.470000
v -0.073921 2.307939 1.434907
v -0.060261 2.307939 1.404046
v -0.039332 2.307939 1.381141
v -0.013660 2.307939 1.368953
v 0.013660 2.307939 1.368953
v 0.039332 2.307939 1.381141
v 0.060261 2.307939 1.404046
v 0.073921 2.307939 1.434907
v 0.147841 2.273209 1.470000
v 0.138925 2.273209 1.535954
v 0.113253 2.273209 1.593953
v 0.073921 2.273209 1.637001
v 0.025672 2.273209 1.659907
v -0.025672 2.273209 1.659907
v -0.073921 2.273209 1.637001
v -0.113253 2.273209 1.593953
v -0.138925 2.273209 1.535954
v -0.147841 2.273209 1.470000
v -0.138925 2.273209 1.404046
v -0.113253 2.273209 1.346047
v -0.073921 2.273209 1.302999
v -0.025672 2.273209 1.280093
v 0.025672 2.273209 1.280093
v 0.073921 2.273209 1.302999
v 0.113253 2.273209 1.346047
v 0.138925 2.273209 1.404046
v 0.199186 2.220000 1.470000
v 0.187173 2.220000 1.558859
v 0.152585 2.220000 1.637001
v 0.099593 2.220000 1.695000
v 0.034588 2.220000 1.725861
v -0.034588 2.220000 1.725861
v -0.099593 2.220000 1.695000
v -0.152585 2.220000 1.637001
v -0.187173 2.220000 1.558859
v -0.199186 2.220000 1.470000
v -0.187173 2.220000 1.381141
v -0.152585 2.220000 1.302999
v -0.099593 2.220000 1.245000
v -0.034588 2.220000 1.214139
v 0.034588 2.220000 1.214139
v 0.099593 2.220000 1.245000
v 0.152585 2.220000 1.302999
v 0.187173 2.220000 1.381141
v 0.226506 2.154730 1.470000
v 0.212846 2.154730 1.571047
v 0.173513 2.154730 1.659907
v 0.113253 2.154730 1.725861
v 0.039332 2.154730 1.760954
v -0.039332 2.154730 1.760954
v -0.113253 2.154730 1.725861
v -0.173513 2.154730 1.659907
v -0.212846 2.154730 1.571047
v -0.226506 2.154730 1.470000
v -0.212846 2.154730 1.368953
v -0.173513 2.154730 1.280093
v -0.113253 2.154730 1.214139
v -0.039332 2.154730 1.179046
v 0.039332 2.154730 1.179046
v 0.113253 2.154730 1.214139
v 0.173513 2.154730 1.280093
v 0.212846 2.154730 1.368953
v 0.226506 2.085270 1.470000
v 0.212846 2.085270 1.571047
v 0.173513 2.085270 1.659907
v 0.113253 2.085270 1.725861
v 0.039332 2.085270 1.760954
v -0.039332 2.085270 1.760954
v -0.113253 2.085270 1.725861
v -0.173513 2.085270 1.659907
v -0.212846 2.085270 1.571047
v -0.226506 2.085270 1.470000
v -0.212846 2.085270 1.368953
v -0.173513 2.085270 1.280093
v -0.113253 2.085270 1.214139
v -0.039332 2.085270 1.179046
v 0.039332 2.085270 1.179046
v 0.113253 2.085270 1.214139
v 0.173513 2.085270 1.280093
v 0.212846 2.085270 1.368953
v 0.199186 2.020000 1.470000
v 0.187173 2.020000 1.558859
v 0.152585 2.020000 1.637001
v 0.099593 2.020000 1.695000
v 0.034588 2.020000 1.725861
v -0.034588 2.020000 1.725861
v -0.099593 2.020000 1.695000
v -0.152585 2.020000 1.637001
v -0.187173 2.020000 1.558859
v -0.199186 2.020000 1.470000
v -0.187173 2.020000 1.381141
v -0.152585 2.020000 1.302999
v -0.099593 2.020000 1.245000
v -0.034588 2.020000 1.214139
v 0.034588 2.020000 1.214139
v 0.099593 2.020000 1.245000
v 0.152585 2.020000 1.302999
v 0.187173 2.020000 1.381141
v 0.147841 1.966791 1.470000
v 0.138925 1.966791 1.535954
v 0.113253 1.966791 1.593953
v 0.073921 1.966791 1.637001
v 0.025672 1.966791 1.659907
v -0.025672 1.966791 1.659907
v -0.073921 1.966791 1.637001
v -0.113253 1.966791 1.593953
v -0.138925 1.966791 1.535954
v -0.147841 1.966791 1.470000
v -0.138925 1.966791 1.404046
v -0.113253 1.966791 1.346047
v -0.073921 1.966791 1.302999
v -0.025672 1.966791 1.280093
v 0.025672 1.966791 1.280093
v 0.073921 1.966791 1.302999
v 0.113253 1.966791 1.346047
v 0.138925 1.966791 1.404046
v 0.078665 1.932061 1.470000
v 0.073921 1.932061 1.505093
v 0.060261 1.932061 1.535954
v 0.039332 1.932061 1.558859
v 0.013660 1.932061 1.571047
v -0.013660 1.932061 1.571047
v -0.039332 1.932061 1.558859
v -0.060261 1.932061 1.535954
v -0.073921 1.932061 1.505093
v -0.078665 1.932061 1.470000
v -0.073921 1.932061 1.434907
v -0.060261 1.932061 1.404046
v -0.039332 1.932061 1.381141
v -0.013660 1.932061 1.368953
v 0.013660 1.932061 1.368953
v 0.039332 1.932061 1.381141
v 0.060261 1.932061 1.404046
v 0.073921 1.932061 1.434907
v 0.000000 1.920000 1.470000
v -0.050000 2.430000 1.020000
v -0.063369 2.423499 0.979372
v -0.098369 2.419482 0.954262
v -0.141631 2.419482 0.954262
v -0.176631 2.423499 0.979372
v -0.190000 2.430000 1.020000
v -0.176631 2.436501 1.060628
v -0.141631 2.440518 1.085738
v -0.098369 2.440518 1.085738
v -0.063369 2.436501 1.060628
v -0.122000 2.680000 0.980000
v -0.125438 2.678328 0.969553
v -0.134438 2.677295 0.963096
v -0.145562 2.677295 0.963096
v -0.154562 2.678328 0.969553
v -0.158000 2.680000 0.980000
v -0.154562 2.681672 0.990447
v -0.145562 2.682705 0.996904
v -0.134438 2.682705 0.996904
v -0.125438 2.681672 0.990447
v -0.120000 2.430000 1.020000
v -0.140000 2.680000 0.980000
v 0.190000 2.430000 1.020000
v 0.176631 2.423499 0.979372
v 0.141631 2.419482 0.954262
v 0.098369 2.419482 0.954262
v 0.063369 2.423499 0.979372
v 0.050000 2.430000 1.020000
v 0.063369 2.436501 1.060628
v 0.098369 2.440518 1.085738
v 0.141631 2.440518 1.085738
v 0.176631 2.436501 1.060628
v 0.158000 2.680000 0.980000
v 0.154562 2.678328 0.969553
v 0.145562 2.677295 0.963096
v 0.134438 2.677295 0.963096
v 0.125438 2.678328 0.969553
v 0.122000 2.680000 0.980000
v 0.125438 2.681672 0.990447
v 0.134438 2.682705 0.996904
v 0.145562 2.682705 0.996904
v 0.154562 2.681672 0.990447
v 0.120000 2.430000 1.020000
v 0.140000 2.680000 0.980000
v 0.105000 1.660000 -0.720000
v 0.090933 1.617541 -0.689121
v 0.052500 1.586459 -0.666516
v 0.000000 1.575083 -0.658242
v -0.052500 1.586459 -0.666516
v -0.090933 1.617541 -0.689121
v -0.105000 1.660000 -0.720000
v -0.090933 1.702459 -0.750879
v -0.052500 1.733541 -0.773484
v -0.000000 1.744917 -0.781758
v 0.052500 1.733541 -0.773484
v 0.090933 1.702459 -0.750879
v 0.075000 1.420000 -1.050000
v 0.064952 1.389672 -1.027944
v 0.037500 1.367471 -1.011797
v 0.000000 1.359345 -1.005887
v -0.037500 1.367471 -1.011797
v -0.064952 1.389672 -1.027944
v -0.075000 1.420000 -1.050000
v -0.064952 1.450328 -1.072056
v -0.037500 1.472529 -1.088203
v -0.000000 1.480655 -1.094113
v 0.037500 1.472529 -1.088203
v 0.064952 1.450328 -1.072056
v 0.000000 1.660000 -0.720000
v 0.000000 1.420000 -1.050000
v 0.075000 1.420000 -1.050000
v 0.064952 1.401475 -1.017395
v 0.037500 1.387913 -0.993527
v 0.000000 1.382949 -0.984791
v -0.037500 1.387913 -0.993527
v -0.064952 1.401475 -1.017395
v -0.075000 1.420000 -1.050000
v -0.064952 1.438525 -1.082605
v -0.037500 1.452087 -1.106473
v -0.000000 1.457051 -1.115209
v 0.037500 1.452087 -1.106473
v 0.064952 1.438525 -1.082605
v 0.030000 0.980000 -1.300000
v 0.025981 0.972590 -1.286958
v 0.015000 0.967165 -1.277411
v 0.000000 0.965180 -1.273916
v -0.015000 0.967165 -1.277411
v -0.025981 0.972590 -1.286958
v -0.030000 0.980000 -1.300000
v -0.025981 0.987410 -1.313042
v -0.015000 0.992835 -1.322589
v -0.000000 0.994820 -1.326084
v 0.015000 0.992835 -1.322589
v 0.025981 0.987410 -1.313042
v 0.000000 1.420000 -1.050000
v 0.000000 0.980000 -1.300000
g plinth
f 1 2 3
f 1 3 4
f 5 7 6
f 5 8 7
f 1 5 6
f 1 6 2
f 4 3 7
f 4 7 8
f 2 6 7
f 2 7 3
f 1 4 8
f 1 8 5
g body
f 9 10 11
f 9 11 12
f 9 12 13
f 9 13 14
f 9 14 15
f 9 15 16
f 9 16 17
f 9 17 18
f 9 18 19
f 9 19 20
f 9 20 21
f 9 21 22
f 9 22 23
f 9 23 24
f 9 24 25
f 9 25 26
f 9 26 27
f 9 27 28
f 9 28 29
f 9 29 30
f 9 30 31
f 9 31 32
f 9 32 33
f 9 33 10
f 10 34 35
f 10 35 11
f 11 35 36
f 11 36 12
f 12 36 37
f 12 37 13
f 13 37 38
f 13 38 14
f 14 38 39
f 14 39 15
f 15 39 40
f 15 40 16
f 16 40 41
f 16 41 17
f 17 41 42
f 17 42 18
f 18 42 43
f 18 43 19
f 19 43 44
f 19 44 20
f 20 44 45
f 20 45 21
f 21 45 46
f 21 46 22
f 22 46 47
f 22 47 23
f 23 47 48
f 23 48 24
f 24 48 49
f 24 49 25
f 25 49 50
f 25 50 26
f 26 50 51
f 26 51 27
f 27 51 52
f 27 52 28
f 28 52 53
f 28 53 29
f 29 53 54
f 29 54 30
f 30 54 55
f 30 55 31
f 31 55 56
f 31 56 32
f 32 56 57
f 32 57 33
f 33 57 34
f 33 34 10
f 34 58 59
f 34 59 35
f 35 59 60
f 35 60 36
f 36 60 61
f 36 61 37
f 37 61 62
f 37 62 38
f 38 62 63
f 38 63 39
f 39 63 64
f 39 64 40
f 40 64 65
f 40 65 41
f 41 65 66
f 41 66 42
f 42 66 67
f 42 67 43
f 43 67 68
f 43 68 44
f 44 68 69
f 44 69 45
f 45 69 70
f 45 70 46
f 46 70 71
f 46 71 47
f 47 71 72
f 47 72 48
f 48 72 73
f 48 73 49
f 49 73 74
f 49 74 50
f 50 74 75
f 50 75 51
f 51 75 76
f 51 76 52
f 52 76 77
f 52 77 53
f 53 77 78
f 53 78 54
f 54 78 79
f 54 79 55
f 55 79 80
f 55 80 56
f 56 80 81
f 56 81 57
f 57 81 58
f 57 58 34
f 58 82 83
f 58 83 59
f 59 83 84
f 59 84 60
f 60 84 85
f 60 85 61
f 61 85 86
f 61 86 62
f 62 86 87
f 62 87 63
f 63 87 88
f 63 88 64
f 64 88 89
f 64 89 65
f 65 89 90
f 65 90 66
f 66 90 91
f 66 91 67
f 67 91 92
f 67 92 68
f 68 92 93
f 68 93 69
f 69 93 94
f 69 94 70
f 70 94 95
f 70 95 71
f 71 95 96
f 71 96 72
f 72 96 97
f 72 97 73
f 73 97 98
f 73 98 74
f 74 98 99
f 74 99 75
f 75 99 100
f 75 100 76
f 76 100 101
f 76 101 77
f 77 101 102
f 77 102 78
f 78 102 103
f 78 103 79
f 79 103 104
f 79 104 80
f 80 104 105
f 80 105 81
f 81 105 82
f 81 82 58
f 82 106 107
f 82 107 83
f 83 107 108
f 83 108 84
f 84 108 109
f 84 109 85
f 85 109 110
f 85 110 86
f 86 110 111
f 86 111 87
f 87 111 112
f 87 112 88
f 88 112 113
f 88 113 89
f 89 113 114
f 89 114 90
f 90 114 115
f 90 115 91
f 91 115 116
f 91 116 92
f 92 116 117
f 92 117 93
f 93 117 118
f 93 118 94
f 94 118 119
f 94 119 95
f 95 119 120
f 95 120 96
f 96 120 121
f 96 121 97
f 97 121 122
f 97 122 98
f 98 122 123
f 98 123 99
f 99 123 124
f 99 124 100
f 100 124 125
f 100 125 101
f 101 125 126
f 101 126 102
f 102 126 127
f 102 127 103
f 103 127 128
f 103 128 104
f 104 128 129
f 104 129 105
f 105 129 106
f 105 106 82
f 106 130 131
f 106 131 107
f 107 131 132
f 107 132 108
f 108 132 133
f 108 133 109
f 109 133 134
f 109 134 110
f 110 134 135
f 110 135 111
f 111 135 136
f 111 136 112
f 112 136 137
f 112 137 113
f 113 137 138
f 113 138 114
f 114 138 139
f 114 139 115
f 115 139 140
f 115 140 116
f 116 140 141
f 116 141 117
f 117 141 142
f 117 142 118
f 118 142 143
f 118 143 119
f 119 143 144
f 119 144 120
f 120 144 145
f 120 145 121
f 121 145 146
f 121 146 122
f 122 146 147
f 122 147 123
f 123 147 148
f 123 148 124
f 124 148 149
f 124 149 125
f 125 149 150
f 125 150 126
f 126 150 151
f 126 151 127
f 127 151 152
f 127 152 128
f 128 152 153
f 128 153 129
f 129 153 130
f 129 130 106
f 130 154 155
f 130 155 131
f 131 155 156
f 131 156 132
f 132 156 157
f 132 157 133
f 133 157 158
f 133 158 134
f 134 158 159
f 134 159 135
f 135 159 160
f 135 160 136
f 136 160 161
f 136 161 137
f 137 161 162
f 137 162 138
f 138 162 163
f 138 163 139
f 139 163 164
f 139 164 140
f 140 164 165
f 140 165 141
f 141 165 166
f 141 166 142
f 142 166 167
f 142 167 143
f 143 167 168
f 143 168 144
f 144 168 169
f 144 169 145
f 145 169 170
f 145 170 146
f 146 170 171
f 146 171 147
f 147 171 172
f 147 172 148
f 148 172 173
f 148 173 149
f 149 173 174
f 149 174 150
f 150 174 175
f 150 175 151
f 151 175 176
f 151 176 152
f 152 176 177
f 152 177 153
f 153 177 154
f 153 154 130
f 154 178 179
f 154 179 155
f 155 179 180
f 155 180 156
f 156 180 181
f 156 181 157
f 157 181 182
f 157 182 158
f 158 182 183
f 158 183 159
f 159 183 184
f 159 184 160
f 160 184 185
f 160 185 161
f 161 185 186
f 161 186 162
f 162 186 187
f 162 187 163
f 163 187 188
f 163 188 164
f 164 188 189
f 164 189 165
f 165 189 190
f 165 190 166
f 166 190 191
f 166 191 167
f 167 191 192
f 167 192 168
f 168 192 193
f 168 193 169
f 169 193 194
f 169 194 170
f 170 194 195
f 170 195 171
f 171 195 196
f 171 196 172
f 172 196 197
f 172 197 173
f 173 197 198
f 173 198 174
f 174 198 199
f 174 199 175
f 175 199 200
f 175 200 176
f 176 200 201
f 176 201 177
f 177 201 178
f 177 178 154
f 178 202 203
f 178 203 179
f 179 203 204
f 179 204 180
f 180 204 205
f 180 205 181
f 181 205 206
f 181 206 182
f 182 206 207
f 182 207 183
f 183 207 208
f 183 208 184
f 184 208 209
f 184 209 185
f 185 209 210
f 185 210 186
f 186 210 211
f 186 211 187
f 187 211 212
f 187 212 188
f 188 212 213
f 188 213 189
f 189 213 214
f 189 214 190
f 190 214 215
f 190 215 191
f 191 215 216
f 191 216 192
f 192 216 217
f 192 217 193
f 193 217 218
f 193 218 194
f 194 218 219
f 194 219 195
f 195 219 220
f 195 220 196
f 196 220 221
f 196 221 197
f 197 221 222
f 197 222 198
f 198 222 223
f 198 223 199
f 199 223 224
f 199 224 200
f 200 224 225
f 200 225 201
f 201 225 202
f 201 202 178
f 202 226 227
f 202 227 203
f 203 227 228
f 203 228 204
f 204 228 229
f 204 229 205
f 205 229 230
f 205 230 206
f 206 230 231
f 206 231 207
f 207 231 232
f 207 232 208
f 208 232 233
f 208 233 209
f 209 233 234
f 209 234 210
f 210 234 235
f 210 235 211
f 211 235 236
f 211 236 212
f 212 236 237
f 212 237 213
f 213 237 238
f 213 238 214
f 214 238 239
f 214 239 215
f 215 239 240
f 215 240 216
f 216 240 241
f 216 241 217
f 217 241 242
f 217 242 218
f 218 242 243
f 218 243 219
f 219 243 244
f 219 244 220
f 220 244 245
f 220 245 221
f 221 245 246
f 221 246 222
f 222 246 247
f 222 247 223
f 223 247 248
f 223 248 224
f 224 248 249
f 224 249 225
f 225 249 226
f 225 226 202
f 226 250 251
f 226 251 227
f 227 251 252
f 227 252 228
f 228 252 253
f 228 253 229
f 229 253 254
f 229 254 230
f 230 254 255
f 230 255 231
f 231 255 256
f 231 256 232
f 232 256 257
f 232 257 233
f 233 257 258
f 233 258 234
f 234 258 259
f 234 259 235
f 235 259 260
f 235 260 236
f 236 260 261
f 236 261 237
f 237 261 262
f 237 262 238
f 238 262 263
f 238 263 239
f 239 263 264
f 239 264 240
f 240 264 265
f 240 265 241
f 241 265 266
f 241 266 242
f 242 266 267
f 242 267 243
f 243 267 268
f 243 268 244
f 244 268 269
f 244 269 245
f 245 269 270
f 245 270 246
f 246 270 271
f 246 271 247
f 247 271 272
f 247 272 248
f 248 272 273
f 248 273 249
f 249 273 250
f 249 250 226
f 274 251 250
f 274 252 251
f 274 253 252
f 274 254 253
f 274 255 254
f 274 256 255
f 274 257 256
f 274 258 257
f 274 259 258
f 274 260 259
f 274 261 260
f 274 262 261
f 274 263 262
f 274 264 263
f 274 265 264
f 274 266 265
f 274 267 266
f 274 268 267
f 274 269 268
f 274 270 269
f 274 271 270
f 274 272 271
f 274 273 272
f 274 250 273
g chest
f 275 276 277
f 275 277 278
f 275 278 279
f 275 279 280
f 275 280 281
f 275 281 282
f 275 282 283
f 275 283 284
f 275 284 285
f 275 285 286
f 275 286 287
f 275 287 288
f 275 288 289
f 275 289 290
f 275 290 291
f 275 291 292
f 275 292 293
f 275 293 294
f 275 294 295
f 275 295 276
f 276 296 297
f 276 297 277
f 277 297 298
f 277 298 278
f 278 298 299
f 278 299 279
f 279 299 300
f 279 300 280
f 280 300 301
f 280 301 281
f 281 301 302
f 281 302 282
f 282 302 303
f 282 303 283
f 283 303 304
f 283 304 284
f 284 304 305
f 284 305 285
f 285 305 306
f 285 306 286
f 286 306 307
f 286 307 287
f 287 307 308
f 287 308 288
f 288 308 309
f 288 309 289
f 289 309 310
f 289 310 290
f 290 310 311
f 290 311 291
f 291 311 312
f 291 312 292
f 292 312 313
f 292 313 293
f 293 313 314
f 293 314 294
f 294 314 315
f 294 315 295
f 295 315 296
f 295 296 276
f 296 316 317
f 296 317 297
f 297 317 318
f 297 318 298
f 298 318 319
f 298 319 299
f 299 319 320
f 299 320 300
f 300 320 321
f 300 321 301
f 301 321 322
f 301 322 302
f 302 322 323
f 302 323 303
f 303 323 324
f 303 324 304
f 304 324 325
f 304 325 305
f 305 325 326
f 305 326 306
f 306 326 327
f 306 327 307
f 307 327 328
f 307 328 308
f 308 328 329
f 308 329 309
f 309 329 330
f 309 330 310
f 310 330 331
f 310 331 311
f 311 331 332
f 311 332 312
f 312 332 333
f 312 333 313
f 313 333 334
f 313 334 314
f 314 334 335
f 314 335 315
f 315 335 316
f 315 316 296
f 316 336 337
f 316 337 317
f 317 337 338
f 317 338 318
f 318 338 339
f 318 339 319
f 319 339 340
f 319 340 320
f 320 340 341
f 320 341 321
f 321 341 342
f 321 342 322
f 322 342 343
f 322 343 323
f 323 343 344
f 323 344 324
f 324 344 345
f 324 345 325
f 325 345 346
f 325 346 326
f 326 346 347
f 326 347 327
f 327 347 348
f 327 348 328
f 328 348 349
f 328 349 329
f 329 349 350
f 329 350 330
f 330 350 351
f 330 351 331
f 331 351 352
f 331 352 332
f 332 352 353
f 332 353 333
f 333 353 354
f 333 354 334
f 334 354 355
f 334 355 335
f 335 355 336
f 335 336 316
f 336 356 357
f 336 357 337
f 337 357 358
f 337 358 338
f 338 358 359
f 338 359 339
f 339 359 360
f 339 360 340
f 340 360 361
f 340 361 341
f 341 361 362
f 341 362 342
f 342 362 363
f 342 363 343
f 343 363 364
f 343 364 344
f 344 364 365
f 344 365 345
f 345 365 366
f 345 366 346
f 346 366 367
f 346 367 347
f 347 367 368
f 347 368 348
f 348 368 369
f 348 369 349
f 349 369 370
f 349 370 350
f 350 370 371
f 350 371 351
f 351 371 372
f 351 372 352
f 352 372 373
f 352 373 353
f 353 373 374
f 353 374 354
f 354 374 375
f 354 375 355
f 355 375 356
f 355 356 336
f 356 376 377
f 356 377 357
f 357 377 378
f 357 378 358
f 358 378 379
f 358 379 359
f 359 379 380
f 359 380 360
f 360 380 381
f 360 381 361
f 361 381 382
f 361 382 362
f 362 382 383
f 362 383 363
f 363 383 384
f 363 384 364
f 364 384 385
f 364 385 365
f 365 385 386
f 365 386 366
f 366 386 387
f 366 387 367
f 367 387 388
f 367 388 368
f 368 388 389
f 368 389 369
f 369 389 390
f 369 390 370
f 370 390 391
f 370 391 371
f 371 391 392
f 371 392 372
f 372 392 393
f 372 393 373
f 373 393 394
f 373 394 374
f 374 394 395
f 374 395 375
f 375 395 376
f 375 376 356
f 376 396 397
f 376 397 377
f 377 397 398
f 377 398 378
f 378 398 399
f 378 399 379
f 379 399 400
f 379 400 380
f 380 400 401
f 380 401 381
f 381 401 402
f 381 402 382
f 382 402 403
f 382 403 383
f 383 403 404
f 383 404 384
f 384 404 405
f 384 405 385
f 385 405 406
f 385 406 386
f 386 406 407
f 386 407 387
f 387 407 408
f 387 408 388
f 388 408 409
f 388 409 389
f 389 409 410
f 389 410 390
f 390 410 411
f 390 411 391
f 391 411 412
f 391 412 392
f 392 412 413
f 392 413 393
f 393 413 414
f 393 414 394
f 394 414 415
f 394 415 395
f 395 415 396
f 395 396 376
f 396 416 417
f 396 417 397
f 397 417 418
f 397 418 398
f 398 418 419
f 398 419 399
f 399 419 420
f 399 420 400
f 400 420 421
f 400 421 401
f 401 421 422
f 401 422 402
f 402 422 423
f 402 423 403
f 403 423 424
f 403 424 404
f 404 424 425
f 404 425 405
f 405 425 426
f 405 426 406
f 406 426 427
f 406 427 407
f 407 427 428
f 407 428 408
f 408 428 429
f 408 429 409
f 409 429 430
f 409 430 410
f 410 430 431
f 410 431 411
f 411 431 432
f 411 432 412
f 412 432 433
f 412 433 413
f 413 433 434
f 413 434 414
f 414 434 435
f 414 435 415
f 415 435 416
f 415 416 396
f 416 436 437
f 416 437 417
f 417 437 438
f 417 438 418
f 418 438 439
f 418 439 419
f 419 439 440
f 419 440 420
f 420 440 441
f 420 441 421
f 421 441 442
f 421 442 422
f 422 442 443
f 422 443 423
f 423 443 444
f 423 444 424
f 424 444 445
f 424 445 425
f 425 445 446
f 425 446 426
f 426 446 447
f 426 447 427
f 427 447 448
f 427 448 428
f 428 448 449
f 428 449 429
f 429 449 450
f 429 450 430
f 430 450 451
f 430 451 431
f 431 451 452
f 431 452 432
f 432 452 453
f 432 453 433
f 433 453 454
f 433 454 434
f 434 454 455
f 434 455 435
f 435 455 436
f 435 436 416
f 456 437 436
f 456 438 437
f 456 439 438
f 456 440 439
f 456 441 440
f 456 442 441
f 456 443 442
f 456 444 443
f 456 445 444
f 456 446 445
f 456 447 446
f 456 448 447
f 456 449 448
f 456 450 449
f 456 451 450
f 456 452 451
f 456 453 452
f 456 454 453
f 456 455 454
f 456 436 455
g leg-front-left-upper
f 457 458 470
f 457 470 469
f 458 459 471
f 458 471 470
f 459 460 472
f 459 472 471
f 460 461 473
f 460 473 472
f 461 462 474
f 461 474 473
f 462 463 475
f 462 475 474
f 463 464 476
f 463 476 475
f 464 465 477
f 464 477 476
f 465 466 478
f 465 478 477
f 466 467 479
f 466 479 478
f 467 468 480
f 467 480 479
f 468 457 469
f 468 469 480
f 481 458 457
f 482 469 470
f 481 459 458
f 482 470 471
f 481 460 459
f 482 471 472
f 481 461 460
f 482 472 473
f 481 462 461
f 482 473 474
f 481 463 462
f 482 474 475
f 481 464 463
f 482 475 476
f 481 465 464
f 482 476 477
f 481 466 465
f 482 477 478
f 481 467 466
f 482 478 479
f 481 468 467
f 482 479 480
f 481 457 468
f 482 480 469
g leg-front-left-lower
f 483 484 496
f 483 496 495
f 484 485 497
f 484 497 496
f 485 486 498
f 485 498 497
f 486 487 499
f 486 499 498
f 487 488 500
f 487 500 499
f 488 489 501
f 488 501 500
f 489 490 502
f 489 502 501
f 490 491 503
f 490 503 502
f 491 492 504
f 491 504 503
f 492 493 505
f 492 505 504
f 493 494 506
f 493 506 505
f 494 483 495
f 494 495 506
f 507 484 483
f 508 495 496
f 507 485 484
f 508 496 497
f 507 486 485
f 508 497 498
f 507 487 486
f 508 498 499
f 507 488 487
f 508 499 500
f 507 489 488
f 508 500 501
f 507 490 489
f 508 501 502
f 507 491 490
f 508 502 503
f 507 492 491
f 508 503 504
f 507 493 492
f 508 504 505
f 507 494 493
f 508 505 506
f 507 483 494
f 508 506 495
g hoof-front-left
f 509 510 511
f 509 511 512
f 509 512 513
f 509 513 514
f 509 514 515
f 509 515 516
f 509 516 517
f 509 517 518
f 509 518 519
f 509 519 520
f 509 520 521
f 509 521 522
f 509 522 523
f 509 523 510
f 510 524 525
f 510 525 511
f 511 525 526
f 511 526 512
f 512 526 527
f 512 527 513
f 513 527 528
f 513 528 514
f 514 528 529
f 514 529 515
f 515 529 530
f 515 530 516
f 516 530 531
f 516 531 517
f 517 531 532
f 517 532 518
f 518 532 533
f 518 533 519
f 519 533 534
f 519 534 520
f 520 534 535
f 520 535 521
f 521 535 536
f 521 536 522
f 522 536 537
f 522 537 523
f 523 537 524
f 523 524 510
f 524 538 539
f 524 539 525
f 525 539 540
f 525 540 526
f 526 540 541
f 526 541 527
f 527 541 542
f 527 542 528
f 528 542 543
f 528 543 529
f 529 543 544
f 529 544 530
f 530 544 545
f 530 545 531
f 531 545 546
f 531 546 532
f 532 546 547
f 532 547 533
f 533 547 548
f 533 548 534
f 534 548 549
f 534 549 535
f 535 549 550
f 535 550 536
f 536 550 551
f 536 551 537
f 537 551 538
f 537 538 524
f 538 552 553
f 538 553 539
f 539 553 554
f 539 554 540
f 540 554 555
f 540 555 541
f 541 555 556
f 541 556 542
f 542 556 557
f 542 557 543
f 543 557 558
f 543 558 544
f 544 558 559
f 544 559 545
f 545 559 560
f 545 560 546
f 546 560 561
f 546 561 547
f 547 561 562
f 547 562 548
f 548 562 563
f 548 563 549
f 549 563 564
f 549 564 550
f 550 564 565
f 550 565 551
f 551 565 552
f 551 552 538
f 552 566 567
f 552 567 553
f 553 567 568
f 553 568 554
f 554 568 569
f 554 569 555
f 555 569 570
f 555 570 556
f 556 570 571
f 556 571 557
f 557 571 572
f 557 572 558
f 558 572 573
f 558 573 559
f 559 573 574
f 559 574 560
f 560 574 575
f 560 575 561
f 561 575 576
f 561 576 562
f 562 576 577
f 562 577 563
f 563 577 578
f 563 578 564
f 564 578 579
f 564 579 565
f 565 579 566
f 565 566 552
f 566 580 581
f 566 581 567
f 567 581 582
f 567 582 568
f 568 582 583
f 568 583 569
f 569 583 584
f 569 584 570
f 570 584 585
f 570 585 571
f 571 585 586
f 571 586 572
f 572 586 587
f 572 587 573
f 573 587 588
f 573 588 574
f 574 588 589
f 574 589 575
f 575 589 590
f 575 590 576
f 576 590 591
f 576 591 577
f 577 591 592
f 577 592 578
f 578 592 593
f 578 593 579
f 579 593 580
f 579 580 566
f 594 581 580
f 594 582 581
f 594 583 582
f 594 584 583
f 594 585 584
f 594 586 585
f 594 587 586
f 594 588 587
f 594 589 588
f 594 590 589
f 594 591 590
f 594 592 591
f 594 593 592
f 594 580 593
g leg-front-right-upper
f 595 596 608
f 595 608 607
f 596 597 609
f 596 609 608
f 597 598 610
f 597 610 609
f 598 599 611
f 598 611 610
f 599 600 612
f 599 612 611
f 600 601 613
f 600 613 612
f 601 602 614
f 601 614 613
f 602 603 615
f 602 615 614
f 603 604 616
f 603 616 615
f 604 605 617
f 604 617 616
f 605 606 618
f 605 618 617
f 606 595 607
f 606 607 618
f 619 596 595
f 620 607 608
f 619 597 596
f 620 608 609
f 619 598 597
f 620 609 610
f 619 599 598
f 620 610 611
f 619 600 599
f 620 611 612
f 619 601 600
f 620 612 613
f 619 602 601
f 620 613 614
f 619 603 602
f 620 614 615
f 619 604 603
f 620 615 616
f 619 605 604
f 620 616 617
f 619 606 605
f 620 617 618
f 619 595 606
f 620 618 607
g leg-front-right-lower
f 621 622 634
f 621 634 633
f 622 623 635
f 622 635 634
f 623 624 636
f 623 636 635
f 624 625 637
f 624 637 636
f 625 626 638
f 625 638 637
f 626 627 639
f 626 639 638
f 627 628 640
f 627 640 639
f 628 629 641
f 628 641 640
f 629 630 642
f 629 642 641
f 630 631 643
f 630 643 642
f 631 632 644
f 631 644 643
f 632 621 633
f 632 633 644
f 645 622 621
f 646 633 634
f 645 623 622
f 646 634 635
f 645 624 623
f 646 635 636
f 645 625 624
f 646 636 637
f 645 626 625
f 646 637 638
f 645 627 626
f 646 638 639
f 645 628 627
f 646 639 640
f 645 629 628
f 646 640 641
f 645 630 629
f 646 641 642
f 645 631 630
f 646 642 643
f 645 632 631
f 646 643 644
f 645 621 632
f 646 644 633
g hoof-front-right
f 647 648 649
f 647 649 650
f 647 650 651
f 647 651 652
f 647 652 653
f 647 653 654
f 647 654 655
f 647 655 656
f 647 656 657
f 647 657 658
f 647 658 659
f 647 659 660
f 647 660 661
f 647 661 648
f 648 662 663
f 648 663 649
f 649 663 664
f 649 664 650
f 650 664 665
f 650 665 651
f 651 665 666
f 651 666 652
f 652 666 667
f 652 667 653
f 653 667 668
f 653 668 654
f 654 668 669
f 654 669 655
f 655 669 670
f 655 670 656
f 656 670 671
f 656 671 657
f 657 671 672
f 657 672 658
f 658 672 673
f 658 673 659
f 659 673 674
f 659 674 660
f 660 674 675
f 660 675 661
f 661 675 662
f 661 662 648
f 662 676 677
f 662 677 663
f 663 677 678
f 663 678 664
f 664 678 679
f 664 679 665
f 665 679 680
f 665 680 666
f 666 680 681
f 666 681 667
f 667 681 682
f 667 682 668
f 668 682 683
f 668 683 669
f 669 683 684
f 669 684 670
f 670 684 685
f 670 685 671
f 671 685 686
f 671 686 672
f 672 686 687
f 672 687 673
f 673 687 688
f 673 688 674
f 674 688 689
f 674 689 675
f 675 689 676
f 675 676 662
f 676 690 691
f 676 691 677
f 677 691 692
f 677 692 678
f 678 692 693
f 678 693 679
f 679 693 694
f 679 694 680
f 680 694 695
f 680 695 681
f 681 695 696
f 681 696 682
f 682 696 697
f 682 697 683
f 683 697 698
f 683 698 684
f 684 698 699
f 684 699 685
f 685 699 700
f 685 700 686
f 686 700 701
f 686 701 687
f 687 701 702
f 687 702 688
f 688 702 703
f 688 703 689
f 689 703 690
f 689 690 676
f 690 704 705
f 690 705 691
f 691 705 706
f 691 706 692
f 692 706 707
f 692 707 693
f 693 707 708
f 693 708 694
f 694 708 709
f 694 709 695
f 695 709 710
f 695 710 696
f 696 710 711
f 696 711 697
f 697 711 712
f 697 712 698
f 698 712 713
f 698 713 699
f 699 713 714
f 699 714 700
f 700 714 715
f 700 715 701
f 701 715 716
f 701 716 702
f 702 716 717
f 702 717 703
f 703 717 704
f 703 704 690
f 704 718 719
f 704 719 705
f 705 719 720
f 705 720 706
f 706 720 721
f 706 721 707
f 707 721 722
f 707 722 708
f 708 722 723
f 708 723 709
f 709 723 724
f 709 724 710
f 710 724 725
f 710 725 711
f 711 725 726
f 711 726 712
f 712 726 727
f 712 727 713
f 713 727 728
f 713 728 714
f 714 728 729
f 714 729 715
f 715 729 730
f 715 730 716
f 716 730 731
f 716 731 717
f 717 731 718
f 717 718 704
f 732 719 718
f 732 720 719
f 732 721 720
f 732 722 721
f 732 723 722
f 732 724 723
f 732 725 724
f 732 726 725
f 732 727 726
f 732 728 727
f 732 729 728
f 732 730 729
f 732 731 730
f 732 718 731
g leg-hind-left-upper
f 733 734 746
f 733 746 745
f 734 735 747
f 734 747 746
f 735 736 748
f 735 748 747
f 736 737 749
f 736 749 748
f 737 738 750
f 737 750 749
f 738 739 751
f 738 751 750
f 739 740 752
f 739 752 751
f 740 741 753
f 740 753 752
f 741 742 754
f 741 754 753
f 742 743 755
f 742 755 754
f 743 744 756
f 743 756 755
f 744 733 745
f 744 745 756
f 757 734 733
f 758 745 746
f 757 735 734
f 758 746 747
f 757 736 735
f 758 747 748
f 757 737 736
f 758 748 749
f 757 738 737
f 758 749 750
f 757 739 738
f 758 750 751
f 757 740 739
f 758 751 752
f 757 741 740
f 758 752 753
f 757 742 741
f 758 753 754
f 757 743 742
f 758 754 755
f 757 744 743
f 758 755 756
f 757 733 744
f 758 756 745
g leg-hind-left-lower
f 759 760 772
f 759 772 771
f 760 761 773
f 760 773 772
f 761 762 774
f 761 774 773
f 762 763 775
f 762 775 774
f 763 764 776
f 763 776 775
f 764 765 777
f 764 777 776
f 765 766 778
f 765 778 777
f 766 767 779
f 766 779 778
f 767 768 780
f 767 780 779
f 768 769 781
f 768 781 780
f 769 770 782
f 769 782 781
f 770 759 771
f 770 771 782
f 783 760 759
f 784 771 772
f 783 761 760
f 784 772 773
f 783 762 761
f 784 773 774
f 783 763 762
f 784 774 775
f 783 764 763
f 784 775 776
f 783 765 764
f 784 776 777
f 783 766 765
f 784 777 778
f 783 767 766
f 784 778 779
f 783 768 767
f 784 779 780
f 783 769 768
f 784 780 781
f 783 770 769
f 784 781 782
f 783 759 770
f 784 782 771
g hoof-hind-left
f 785 786 787
f 785 787 788
f 785 788 789
f 785 789 790
f 785 790 791
f 785 791 792
f 785 792 793
f 785 793 794
f 785 794 795
f 785 795 796
f 785 796 797
f 785 797 798
f 785 798 799
f 785 799 786
f 786 800 801
f 786 801 787
f 787 801 802
f 787 802 788
f 788 802 803
f 788 803 789
f 789 803 804
f 789 804 790
f 790 804 805
f 790 805 791
f 791 805 806
f 791 806 792
f 792 806 807
f 792 807 793
f 793 807 808
f 793 808 794
f 794 808 809
f 794 809 795
f 795 809 810
f 795 810 796
f 796 810 811
f 796 811 797
f 797 811 812
f 797 812 798
f 798 812 813
f 798 813 799
f 799 813 800
f 799 800 786
f 800 814 815
f 800 815 801
f 801 815 816
f 801 816 802
f 802 816 817
f 802 817 803
f 803 817 818
f 803 818 804
f 804 818 819
f 804 819 805
f 805 819 820
f 805 820 806
f 806 820 821
f 806 821 807
f 807 821 822
f 807 822 808
f 808 822 823
f 808 823 809
f 809 823 824
f 809 824 810
f 810 824 825
f 810 825 811
f 811 825 826
f 811 826 812
f 812 826 827
f 812 827 813
f 813 827 814
f 813 814 800
f 814 828 829
f 814 829 815
f 815 829 830
f 815 830 816
f 816 830 831
f 816 831 817
f 817 831 832
f 817 832 818
f 818 832 833
f 818 833 819
f 819 833 834
f 819 834 820
f 820 834 835
f 820 835 821
f 821 835 836
f 821 836 822
f 822 836 837
f 822 837 823
f 823 837 838
f 823 838 824
f 824 838 839
f 824 839 825
f 825 839 840
f 825 840 826
f 826 840 841
f 826 841 827
f 827 841 828
f 827 828 814
f 828 842 843
f 828 843 829
f 829 843 844
f 829 844 830
f 830 844 845
f 830 845 831
f 831 845 846
f 831 846 832
f 832 846 847
f 832 847 833
f 833 847 848
f 833 848 834
f 834 848 849
f 834 849 835
f 835 849 850
f 835 850 836
f 836 850 851
f 836 851 837
f 837 851 852
f 837 852 838
f 838 852 853
f 838 853 839
f 839 853 854
f 839 854 840
f 840 854 855
f 840 855 841
f 841 855 842
f 841 842 828
f 842 856 857
f 842 857 843
f 843 857 858
f 843 858 844
f 844 858 859
f 844 859 845
f 845 859 860
f 845 860 846
f 846 860 861
f 846 861 847
f 847 861 862
f 847 862 848
f 848 862 863
f 848 863 849
f 849 863 864
f 849 864 850
f 850 864 865
f 850 865 851
f 851 865 866
f 851 866 852
f 852 866 867
f 852 867 853
f 853 867 868
f 853 868 854
f 854 868 869
f 854 869 855
f 855 869 856
f 855 856 842
f 870 857 856
f 870 858 857
f 870 859 858
f 870 860 859
f 870 861 860
f 870 862 861
f 870 863 862
f 870 864 863
f 870 865 864
f 870 866 865
f 870 867 866
f 870 868 867
f 870 869 868
f 870 856 869
g leg-hind-right-upper
f 871 872 884
f 871 884 883
f 872 873 885
f 872 885 884
f 873 874 886
f 873 886 885
f 874 875 887
f 874 887 886
f 875 876 888
f 875 888 887
f 876 877 889
f 876 889 888
f 877 878 890
f 877 890 889
f 878 879 891
f 878 891 890
f 879 880 892
f 879 892 891
f 880 881 893
f 880 893 892
f 881 882 894
f 881 894 893
f 882 871 883
f 882 883 894
f 895 872 871
f 896 883 884
f 895 873 872
f 896 884 885
f 895 874 873
f 896 885 886
f 895 875 874
f 896 886 887
f 895 876 875
f 896 887 888
f 895 877 876
f 896 888 889
f 895 878 877
f 896 889 890
f 895 879 878
f 896 890 891
f 895 880 879
f 896 891 892
f 895 881 880
f 896 892 893
f 895 882 881
f 896 893 894
f 895 871 882
f 896 894 883
g leg-hind-right-lower
f 897 898 910
f 897 910 909
f 898 899 911
f 898 911 910
f 899 900 912
f 899 912 911
f 900 901 913
f 900 913 912
f 901 902 914
f 901 914 913
f 902 903 915
f 902 915 914
f 903 904 916
f 903 916 915
f 904 905 917
f 904 917 916
f 905 906 918
f 905 918 917
f 906 907 919
f 906 919 918
f 907 908 920
f 907 920 919
f 908 897 909
f 908 909 920
f 921 898 897
f 922 909 910
f 921 899 898
f 922 910 911
f 921 900 899
f 922 911 912
f 921 901 900
f 922 912 913
f 921 902 901
f 922 913 914
f 921 903 902
f 922 914 915
f 921 904 903
f 922 915 916
f 921 905 904
f 922 916 917
f 921 906 905
f 922 917 918
f 921 907 906
f 922 918 919
f 921 908 907
f 922 919 920
f 921 897 908
f 922 920 909
g hoof-hind-right
f 923 924 925
f 923 925 926
f 923 926 927
f 923 927 928
f 923 928 929
f 923 929 930
f 923 930 931
f 923 931 932
f 923 932 933
f 923 933 934
f 923 934 935
f 923 935 936
f 923 936 937
f 923 937 924
f 924 938 939
f 924 939 925
f 925 939 940
f 925 940 926
f 926 940 941
f 926 941 927
f 927 941 942
f 927 942 928
f 928 942 943
f 928 943 929
f 929 943 944
f 929 944 930
f 930 944 945
f 930 945 931
f 931 945 946
f 931 946 932
f 932 946 947
f 932 947 933
f 933 947 948
f 933 948 934
f 934 948 949
f 934 949 935
f 935 949 950
f 935 950 936
f 936 950 951
f 936 951 937
f 937 951 938
f 937 938 924
f 938 952 953
f 938 953 939
f 939 953 954
f 939 954 940
f 940 954 955
f 940 955 941
f 941 955 956
f 941 956 942
f 942 956 957
f 942 957 943
f 943 957 958
f 943 958 944
f 944 958 959
f 944 959 945
f 945 959 960
f 945 960 946
f 946 960 961
f 946 961 947
f 947 961 962
f 947 962 948
f 948 962 963
f 948 963 949
f 949 963 964
f 949 964 950
f 950 964 965
f 950 965 951
f 951 965 952
f 951 952 938
f 952 966 967
f 952 967 953
f 953 967 968
f 953 968 954
f 954 968 969
f 954 969 955
f 955 969 970
f 955 970 956
f 956 970 971
f 956 971 957
f 957 971 972
f 957 972 958
f 958 972 973
f 958 973 959
f 959 973 974
f 959 974 960
f 960 974 975
f 960 975 961
f 961 975 976
f 961 976 962
f 962 976 977
f 962 977 963
f 963 977 978
f 963 978 964
f 964 978 979
f 964 979 965
f 965 979 966
f 965 966 952
f 966 980 981
f 966 981 967
f 967 981 982
f 967 982 968
f 968 982 983
f 968 983 969
f 969 983 984
f 969 984 970
f 970 984 985
f 970 985 971
f 971 985 986
f 971 986 972
f 972 986 987
f 972 987 973
f 973 987 988
f 973 988 974
f 974 988 989
f 974 989 975
f 975 989 990
f 975 990 976
f 976 990 991
f 976 991 977
f 977 991 992
f 977 992 978
f 978 992 993
f 978 993 979
f 979 993 980
f 979 980 966
f 980 994 995
f 980 995 981
f 981 995 996
f 981 996 982
f 982 996 997
f 982 997 983
f 983 997 998
f 983 998 984
f 984 998 999
f 984 999 985
f 985 999 1000
f 985 1000 986
f 986 1000 1001
f 986 1001 987
f 987 1001 1002
f 987 1002 988
f 988 1002 1003
f 988 1003 989
f 989 1003 1004
f 989 1004 990
f 990 1004 1005
f 990 1005 991
f 991 1005 1006
f 991 1006 992
f 992 1006 1007
f 992 1007 993
f 993 1007 994
f 993 994 980
f 1008 995 994
f 1008 996 995
f 1008 997 996
f 1008 998 997
f 1008 999 998
f 1008 1000 999
f 1008 1001 1000
f 1008 1002 1001
f 1008 1003 1002
f 1008 1004 1003
f 1008 1005 1004
f 1008 1006 1005
f 1008 1007 1006
f 1008 994 1007
g neck
f 1009 1010 1028
f 1009 1028 1027
f 1010 1011 1029
f 1010 1029 1028
f 1011 1012 1030
f 1011 1030 1029
f 1012 1013 1031
f 1012 1031 1030
f 1013 1014 1032
f 1013 1032 1031
f 1014 1015 1033
f 1014 1033 1032
f 1015 1016 1034
f 1015 1034 1033
f 1016 1017 1035
f 1016 1035 1034
f 1017 1018 1036
f 1017 1036 1035
f 1018 1019 1037
f 1018 1037 1036
f 1019 1020 1038
f 1019 1038 1037
f 1020 1021 1039
f 1020 1039 1038
f 1021 1022 1040
f 1021 1040 1039
f 1022 1023 1041
f 1022 1041 1040
f 1023 1024 1042
f 1023 1042 1041
f 1024 1025 1043
f 1024 1043 1042
f 1025 1026 1044
f 1025 1044 1043
f 1026 1009 1027
f 1026 1027 1044
f 1045 1010 1009
f 1046 1027 1028
f 1045 1011 1010
f 1046 1028 1029
f 1045 1012 1011
f 1046 1029 1030
f 1045 1013 1012
f 1046 1030 1031
f 1045 1014 1013
f 1046 1031 1032
f 1045 1015 1014
f 1046 1032 1033
f 1045 1016 1015
f 1046 1033 1034
f 1045 1017 1016
f 1046 1034 1035
f 1045 1018 1017
f 1046 1035 1036
f 1045 1019 1018
f 1046 1036 1037
f 1045 1020 1019
f 1046 1037 1038
f 1045 1021 1020
f 1046 1038 1039
f 1045 1022 1021
f 1046 1039 1040
f 1045 1023 1022
f 1046 1040 1041
f 1045 1024 1023
f 1046 1041 1042
f 1045 1025 1024
f 1046 1042 1043
f 1045 1026 1025
f 1046 1043 1044
f 1045 1009 1026
f 1046 1044 1027
g head
f 1047 1048 1049
f 1047 1049 1050
f 1047 1050 1051
f 1047 1051 1052
f 1047 1052 1053
f 1047 1053 1054
f 1047 1054 1055
f 1047 1055 1056
f 1047 1056 1057
f 1047 1057 1058
f 1047 1058 1059
f 1047 1059 1060
f 1047 1060 1061
f 1047 1061 1062
f 1047 1062 1063
f 1047 1063 1064
f 1047 1064 1065
f 1047 1065 1066
f 1047 1066 1067
f 1047 1067 1068
f 1047 1068 1069
f 1047 1069 1048
f 1048 1070 1071
f 1048 1071 1049
f 1049 1071 1072
f 1049 1072 1050
f 1050 1072 1073
f 1050 1073 1051
f 1051 1073 1074
f 1051 1074 1052
f 1052 1074 1075
f 1052 1075 1053
f 1053 1075 1076
f 1053 1076 1054
f 1054 1076 1077
f 1054 1077 1055
f 1055 1077 1078
f 1055 1078 1056
f 1056 1078 1079
f 1056 1079 1057
f 1057 1079 1080
f 1057 1080 1058
f 1058 1080 1081
f 1058 1081 1059
f 1059 1081 1082
f 1059 1082 1060
f 1060 1082 1083
f 1060 1083 1061
f 1061 1083 1084
f 1061 1084 1062
f 1062 1084 1085
f 1062 1085 1063
f 1063 1085 1086
f 1063 1086 1064
f 1064 1086 1087
f 1064 1087 1065
f 1065 1087 1088
f 1065 1088 1066
f 1066 1088 1089
f 1066 1089 1067
f 1067 1089 1090
f 1067 1090 1068
f 1068 1090 1091
f 1068 1091 1069
f 1069 1091 1070
f 1069 1070 1048
f 1070 1092 1093
f 1070 1093 1071
f 1071 1093 1094
f 1071 1094 1072
f 1072 1094 1095
f 1072 1095 1073
f 1073 1095 1096
f 1073 1096 1074
f 1074 1096 1097
f 1074 1097 1075
f 1075 1097 1098
f 1075 1098 1076
f 1076 1098 1099
f 1076 1099 1077
f 1077 1099 1100
f 1077 1100 1078
f 1078 1100 1101
f 1078 1101 1079
f 1079 1101 1102
f 1079 1102 1080
f 1080 1102 1103
f 1080 1103 1081
f 1081 1103 1104
f 1081 1104 1082
f 1082 1104 1105
f 1082 1105 1083
f 1083 1105 1106
f 1083 1106 1084
f 1084 1106 1107
f 1084 1107 1085
f 1085 1107 1108
f 1085 1108 1086
f 1086 1108 1109
f 1086 1109 1087
f 1087 1109 1110
f 1087 1110 1088
f 1088 1110 1111
f 1088 1111 1089
f 1089 1111 1112
f 1089 1112 1090
f 1090 1112 1113
f 1090 1113 1091
f 1091 1113 1092
f 1091 1092 1070
f 1092 1114 1115
f 1092 1115 1093
f 1093 1115 1116
f 1093 1116 1094
f 1094 1116 1117
f 1094 1117 1095
f 1095 1117 1118
f 1095 1118 1096
f 1096 1118 1119
f 1096 1119 1097
f 1097 1119 1120
f 1097 1120 1098
f 1098 1120 1121
f 1098 1121 1099
f 1099 1121 1122
f 1099 1122 1100
f 1100 1122 1123
f 1100 1123 1101
f 1101 1123 1124
f 1101 1124 1102
f 1102 1124 1125
f 1102 1125 1103
f 1103 1125 1126
f 1103 1126 1104
f 1104 1126 1127
f 1104 1127 1105
f 1105 1127 1128
f 1105 1128 1106
f 1106 1128 1129
f 1106 1129 1107
f 1107 1129 1130
f 1107 1130 1108
f 1108 1130 1131
f 1108 1131 1109
f 1109 1131 1132
f 1109 1132 1110
f 1110 1132 1133
f 1110 1133 1111
f 1111 1133 1134
f 1111 1134 1112
f 1112 1134 1135
f 1112 1135 1113
f 1113 1135 1114
f 1113 1114 1092
f 1114 1136 1137
f 1114 1137 1115
f 1115 1137 1138
f 1115 1138 1116
f 1116 1138 1139
f 1116 1139 1117
f 1117 1139 1140
f 1117 1140 1118
f 1118 1140 1141
f 1118 1141 1119
f 1119 1141 1142
f 1119 1142 1120
f 1120 1142 1143
f 1120 1143 1121
f 1121 1143 1144
f 1121 1144 1122
f 1122 1144 1145
f 1122 1145 1123
f 1123 1145 1146
f 1123 1146 1124
f 1124 1146 1147
f 1124 1147 1125
f 1125 1147 1148
f 1125 1148 1126
f 1126 1148 1149
f 1126 1149 1127
f 1127 1149 1150
f 1127 1150 1128
f 1128 1150 1151
f 1128 1151 1129
f 1129 1151 1152
f 1129 1152 1130
f 1130 1152 1153
f 1130 1153 1131
f 1131 1153 1154
f 1131 1154 1132
f 1132 1154 1155
f 1132 1155 1133
f 1133 1155 1156
f 1133 1156 1134
f 1134 1156 1157
f 1134 1157 1135
f 1135 1157 1136
f 1135 1136 1114
f 1136 1158 1159
f 1136 1159 1137
f 1137 1159 1160
f 1137 1160 1138
f 1138 1160 1161
f 1138 1161 1139
f 1139 1161 1162
f 1139 1162 1140
f 1140 1162 1163
f 1140 1163 1141
f 1141 1163 1164
f 1141 1164 1142
f 1142 1164 1165
f 1142 1165 1143
f 1143 1165 1166
f 1143 1166 1144
f 1144 1166 1167
f 1144 1167 1145
f 1145 1167 1168
f 1145 1168 1146
f 1146 1168 1169
f 1146 1169 1147
f 1147 1169 1170
f 1147 1170 1148
f 1148 1170 1171
f 1148 1171 1149
f 1149 1171 1172
f 1149 1172 1150
f 1150 1172 1173
f 1150 1173 1151
f 1151 1173 1174
f 1151 1174 1152
f 1152 1174 1175
f 1152 1175 1153
f 1153 1175 1176
f 1153 1176 1154
f 1154 1176 1177
f 1154 1177 1155
f 1155 1177 1178
f 1155 1178 1156
f 1156 1178 1179
f 1156 1179 1157
f 1157 1179 1158
f 1157 1158 1136
f 1158 1180 1181
f 1158 1181 1159
f 1159 1181 1182
f 1159 1182 1160
f 1160 1182 1183
f 1160 1183 1161
f 1161 1183 1184
f 1161 1184 1162
f 1162 1184 1185
f 1162 1185 1163
f 1163 1185 1186
f 1163 1186 1164
f 1164 1186 1187
f 1164 1187 1165
f 1165 1187 1188
f 1165 1188 1166
f 1166 1188 1189
f 1166 1189 1167
f 1167 1189 1190
f 1167 1190 1168
f 1168 1190 1191
f 1168 1191 1169
f 1169 1191 1192
f 1169 1192 1170
f 1170 1192 1193
f 1170 1193 1171
f 1171 1193 1194
f 1171 1194 1172
f 1172 1194 1195
f 1172 1195 1173
f 1173 1195 1196
f 1173 1196 1174
f 1174 1196 1197
f 1174 1197 1175
f 1175 1197 1198
f 1175 1198 1176
f 1176 1198 1199
f 1176 1199 1177
f 1177 1199 1200
f 1177 1200 1178
f 1178 1200 1201
f 1178 1201 1179
f 1179 1201 1180
f 1179 1180 1158
f 1180 1202 1203
f 1180 1203 1181
f 1181 1203 1204
f 1181 1204 1182
f 1182 1204 1205
f 1182 1205 1183
f 1183 1205 1206
f 1183 1206 1184
f 1184 1206 1207
f 1184 1207 1185
f 1185 1207 1208
f 1185 1208 1186
f 1186 1208 1209
f 1186 1209 1187
f 1187 1209 1210
f 1187 1210 1188
f 1188 1210 1211
f 1188 1211 1189
f 1189 1211 1212
f 1189 1212 1190
f 1190 1212 1213
f 1190 1213 1191
f 1191 1213 1214
f 1191 1214 1192
f 1192 1214 1215
f 1192 1215 1193
f 1193 1215 1216
f 1193 1216 1194
f 1194 1216 1217
f 1194 1217 1195
f 1195 1217 1218
f 1195 1218 1196
f 1196 1218 1219
f 1196 1219 1197
f 1197 1219 1220
f 1197 1220 1198
f 1198 1220 1221
f 1198 1221 1199
f 1199 1221 1222
f 1199 1222 1200
f 1200 1222 1223
f 1200 1223 1201
f 1201 1223 1202
f 1201 1202 1180
f 1202 1224 1225
f 1202 1225 1203
f 1203 1225 1226
f 1203 1226 1204
f 1204 1226 1227
f 1204 1227 1205
f 1205 1227 1228
f 1205 1228 1206
f 1206 1228 1229
f 1206 1229 1207
f 1207 1229 1230
f 1207 1230 1208
f 1208 1230 1231
f 1208 1231 1209
f 1209 1231 1232
f 1209 1232 1210
f 1210 1232 1233
f 1210 1233 1211
f 1211 1233 1234
f 1211 1234 1212
f 1212 1234 1235
f 1212 1235 1213
f 1213 1235 1236
f 1213 1236 1214
f 1214 1236 1237
f 1214 1237 1215
f 1215 1237 1238
f 1215 1238 1216
f 1216 1238 1239
f 1216 1239 1217
f 1217 1239 1240
f 1217 1240 1218
f 1218 1240 1241
f 1218 1241 1219
f 1219 1241 1242
f 1219 1242 1220
f 1220 1242 1243
f 1220 1243 1221
f 1221 1243 1244
f 1221 1244 1222
f 1222 1244 1245
f 1222 1245 1223
f 1223 1245 1224
f 1223 1224 1202
f 1224 1246 1247
f 1224 1247 1225
f 1225 1247 1248
f 1225 1248 1226
f 1226 1248 1249
f 1226 1249 1227
f 1227 1249 1250
f 1227 1250 1228
f 1228 1250 1251
f 1228 1251 1229
f 1229 1251 1252
f 1229 1252 1230
f 1230 1252 1253
f 1230 1253 1231
f 1231 1253 1254
f 1231 1254 1232
f 1232 1254 1255
f 1232 1255 1233
f 1233 1255 1256
f 1233 1256 1234
f 1234 1256 1257
f 1234 1257 1235
f 1235 1257 1258
f 1235 1258 1236
f 1236 1258 1259
f 1236 1259 1237
f 1237 1259 1260
f 1237 1260 1238
f 1238 1260 1261
f 1238 1261 1239
f 1239 1261 1262
f 1239 1262 1240
f 1240 1262 1263
f 1240 1263 1241
f 1241 1263 1264
f 1241 1264 1242
f 1242 1264 1265
f 1242 1265 1243
f 1243 1265 1266
f 1243 1266 1244
f 1244 1266 1267
f 1244 1267 1245
f 1245 1267 1246
f 1245 1246 1224
f 1268 1247 1246
f 1268 1248 1247
f 1268 1249 1248
f 1268 1250 1249
f 1268 1251 1250
f 1268 1252 1251
f 1268 1253 1252
f 1268 1254 1253
f 1268 1255 1254
f 1268 1256 1255
f 1268 1257 1256
f 1268 1258 1257
f 1268 1259 1258
f 1268 1260 1259
f 1268 1261 1260
f 1268 1262 1261
f 1268 1263 1262
f 1268 1264 1263
f 1268 1265 1264
f 1268 1266 1265
f 1268 1267 1266
f 1268 1246 1267
g muzzle
f 1269 1270 1271
f 1269 1271 1272
f 1269 1272 1273
f 1269 1273 1274
f 1269 1274 1275
f 1269 1275 1276
f 1269 1276 1277
f 1269 1277 1278
f 1269 1278 1279
f 1269 1279 1280
f 1269 1280 1281
f 1269 1281 1282
f 1269 1282 1283
f 1269 1283 1284
f 1269 1284 1285
f 1269 1285 1286
f 1269 1286 1287
f 1269 1287 1270
f 1270 1288 1289
f 1270 1289 1271
f 1271 1289 1290
f 1271 1290 1272
f 1272 1290 1291
f 1272 1291 1273
f 1273 1291 1292
f 1273 1292 1274
f 1274 1292 1293
f 1274 1293 1275
f 1275 1293 1294
f 1275 1294 1276
f 1276 1294 1295
f 1276 1295 1277
f 1277 1295 1296
f 1277 1296 1278
f 1278 1296 1297
f 1278 1297 1279
f 1279 1297 1298
f 1279 1298 1280
f 1280 1298 1299
f 1280 1299 1281
f 1281 1299 1300
f 1281 1300 1282
f 1282 1300 1301
f 1282 1301 1283
f 1283 1301 1302
f 1283 1302 1284
f 1284 1302 1303
f 1284 1303 1285
f 1285 1303 1304
f 1285 1304 1286
f 1286 1304 1305
f 1286 1305 1287
f 1287 1305 1288
f 1287 1288 1270
f 1288 1306 1307
f 1288 1307 1289
f 1289 1307 1308
f 1289 1308 1290
f 1290 1308 1309
f 1290 1309 1291
f 1291 1309 1310
f 1291 1310 1292
f 1292 1310 1311
f 1292 1311 1293
f 1293 1311 1312
f 1293 1312 1294
f 1294 1312 1313
f 1294 1313 1295
f 1295 1313 1314
f 1295 1314 1296
f 1296 1314 1315
f 1296 1315 1297
f 1297 1315 1316
f 1297 1316 1298
f 1298 1316 1317
f 1298 1317 1299
f 1299 1317 1318
f 1299 1318 1300
f 1300 1318 1319
f 1300 1319 1301
f 1301 1319 1320
f 1301 1320 1302
f 1302 1320 1321
f 1302 1321 1303
f 1303 1321 1322
f 1303 1322 1304
f 1304 1322 1323
f 1304 1323 1305
f 1305 1323 1306
f 1305 1306 1288
f 1306 1324 1325
f 1306 1325 1307
f 1307 1325 1326
f 1307 1326 1308
f 1308 1326 1327
f 1308 1327 1309
f 1309 1327 1328
f 1309 1328 1310
f 1310 1328 1329
f 1310 1329 1311
f 1311 1329 1330
f 1311 1330 1312
f 1312 1330 1331
f 1312 1331 1313
f 1313 1331 1332
f 1313 1332 1314
f 1314 1332 1333
f 1314 1333 1315
f 1315 1333 1334
f 1315 1334 1316
f 1316 1334 1335
f 1316 1335 1317
f 1317 1335 1336
f 1317 1336 1318
f 1318 1336 1337
f 1318 1337 1319
f 1319 1337 1338
f 1319 1338 1320
f 1320 1338 1339
f 1320 1339 1321
f 1321 1339 1340
f 1321 1340 1322
f 1322 1340 1341
f 1322 1341 1323
f 1323 1341 1324
f 1323 1324 1306
f 1324 1342 1343
f 1324 1343 1325
f 1325 1343 1344
f 1325 1344 1326
f 1326 1344 1345
f 1326 1345 1327
f 1327 1345 1346
f 1327 1346 1328
f 1328 1346 1347
f 1328 1347 1329
f 1329 1347 1348
f 1329 1348 1330
f 1330 1348 1349
f 1330 1349 1331
f 1331 1349 1350
f 1331 1350 1332
f 1332 1350 1351
f 1332 1351 1333
f 1333 1351 1352
f 1333 1352 1334
f 1334 1352 1353
f 1334 1353 1335
f 1335 1353 1354
f 1335 1354 1336
f 1336 1354 1355
f 1336 1355 1337
f 1337 1355 1356
f 1337 1356 1338
f 1338 1356 1357
f 1338 1357 1339
f 1339 1357 1358
f 1339 1358 1340
f 1340 1358 1359
f 1340 1359 1341
f 1341 1359 1342
f 1341 1342 1324
f 1342 1360 1361
f 1342 1361 1343
f 1343 1361 1362
f 1343 1362 1344
f 1344 1362 1363
f 1344 1363 1345
f 1345 1363 1364
f 1345 1364 1346
f 1346 1364 1365
f 1346 1365 1347
f 1347 1365 1366
f 1347 1366 1348
f 1348 1366 1367
f 1348 1367 1349
f 1349 1367 1368
f 1349 1368 1350
f 1350 1368 1369
f 1350 1369 1351
f 1351 1369 1370
f 1351 1370 1352
f 1352 1370 1371
f 1352 1371 1353
f 1353 1371 1372
f 1353 1372 1354
f 1354 1372 1373
f 1354 1373 1355
f 1355 1373 1374
f 1355 1374 1356
f 1356 1374 1375
f 1356 1375 1357
f 1357 1375 1376
f 1357 1376 1358
f 1358 1376 1377
f 1358 1377 1359
f 1359 1377 1360
f 1359 1360 1342
f 1360 1378 1379
f 1360 1379 1361
f 1361 1379 1380
f 1361 1380 1362
f 1362 1380 1381
f 1362 1381 1363
f 1363 1381 1382
f 1363 1382 1364
f 1364 1382 1383
f 1364 1383 1365
f 1365 1383 1384
f 1365 1384 1366
f 1366 1384 1385
f 1366 1385 1367
f 1367 1385 1386
f 1367 1386 1368
f 1368 1386 1387
f 1368 1387 1369
f 1369 1387 1388
f 1369 1388 1370
f 1370 1388 1389
f 1370 1389 1371
f 1371 1389 1390
f 1371 1390 1372
f 1372 1390 1391
f 1372 1391 1373
f 1373 1391 1392
f 1373 1392 1374
f 1374 1392 1393
f 1374 1393 1375
f 1375 1393 1394
f 1375 1394 1376
f 1376 1394 1395
f 1376 1395 1377
f 1377 1395 1378
f 1377 1378 1360
f 1378 1396 1397
f 1378 1397 1379
f 1379 1397 1398
f 1379 1398 1380
f 1380 1398 1399
f 1380 1399 1381
f 1381 1399 1400
f 1381 1400 1382
f 1382 1400 1401
f 1382 1401 1383
f 1383 1401 1402
f 1383 1402 1384
f 1384 1402 1403
f 1384 1403 1385
f 1385 1403 1404
f 1385 1404 1386
f 1386 1404 1405
f 1386 1405 1387
f 1387 1405 1406
f 1387 1406 1388
f 1388 1406 1407
f 1388 1407 1389
f 1389 1407 1408
f 1389 1408 1390
f 1390 1408 1409
f 1390 1409 1391
f 1391 1409 1410
f 1391 1410 1392
f 1392 1410 1411
f 1392 1411 1393
f 1393 1411 1412
f 1393 1412 1394
f 1394 1412 1413
f 1394 1413 1395
f 1395 1413 1396
f 1395 1396 1378
f 1414 1397 1396
f 1414 1398 1397
f 1414 1399 1398
f 1414 1400 1399
f 1414 1401 1400
f 1414 1402 1401
f 1414 1403 1402
f 1414 1404 1403
f 1414 1405 1404
f 1414 1406 1405
f 1414 1407 1406
f 1414 1408 1407
f 1414 1409 1408
f 1414 1410 1409
f 1414 1411 1410
f 1414 1412 1411
f 1414 1413 1412
f 1414 1396 1413
g ear-left
f 1415 1416 1426
f 1415 1426 1425
f 1416 1417 1427
f 1416 1427 1426
f 1417 1418 1428
f 1417 1428 1427
f 1418 1419 1429
f 1418 1429 1428
f 1419 1420 1430
f 1419 1430 1429
f 1420 1421 1431
f 1420 1431 1430
f 1421 1422 1432
f 1421 1432 1431
f 1422 1423 1433
f 1422 1433 1432
f 1423 1424 1434
f 1423 1434 1433
f 1424 1415 1425
f 1424 1425 1434
f 1435 1416 1415
f 1436 1425 1426
f 1435 1417 1416
f 1436 1426 1427
f 1435 1418 1417
f 1436 1427 1428
f 1435 1419 1418
f 1436 1428 1429
f 1435 1420 1419
f 1436 1429 1430
f 1435 1421 1420
f 1436 1430 1431
f 1435 1422 1421
f 1436 1431 1432
f 1435 1423 1422
f 1436 1432 1433
f 1435 1424 1423
f 1436 1433 1434
f 1435 1415 1424
f 1436 1434 1425
g ear-right
f 1437 1438 1448
f 1437 1448 1447
f 1438 1439 1449
f 1438 1449 1448
f 1439 1440 1450
f 1439 1450 1449
f 1440 1441 1451
f 1440 1451 1450
f 1441 1442 1452
f 1441 1452 1451
f 1442 1443 1453
f 1442 1453 1452
f 1443 1444 1454
f 1443 1454 1453
f 1444 1445 1455
f 1444 1455 1454
f 1445 1446 1456
f 1445 1456 1455
f 1446 1437 1447
f 1446 1447 1456
f 1457 1438 1437
f 1458 1447 1448
f 1457 1439 1438
f 1458 1448 1449
f 1457 1440 1439
f 1458 1449 1450
f 1457 1441 1440
f 1458 1450 1451
f 1457 1442 1441
f 1458 1451 1452
f 1457 1443 1442
f 1458 1452 1453
f 1457 1444 1443
f 1458 1453 1454
f 1457 1445 1444
f 1458 1454 1455
f 1457 1446 1445
f 1458 1455 1456
f 1457 1437 1446
f 1458 1456 1447
g tail-root
f 1459 1460 1472
f 1459 1472 1471
f 1460 1461 1473
f 1460 1473 1472
f 1461 1462 1474
f 1461 1474 1473
f 1462 1463 1475
f 1462 1475 1474
f 1463 1464 1476
f 1463 1476 1475
f 1464 1465 1477
f 1464 1477 1476
f 1465 1466 1478
f 1465 1478 1477
f 1466 1467 1479
f 1466 1479 1478
f 1467 1468 1480
f 1467 1480 1479
f 1468 1469 1481
f 1468 1481 1480
f 1469 1470 1482
f 1469 1482 1481
f 1470 1459 1471
f 1470 1471 1482
f 1483 1460 1459
f 1484 1471 1472
f 1483 1461 1460
f 1484 1472 1473
f 1483 1462 1461
f 1484 1473 1474
f 1483 1463 1462
f 1484 1474 1475
f 1483 1464 1463
f 1484 1475 1476
f 1483 1465 1464
f 1484 1476 1477
f 1483 1466 1465
f 1484 1477 1478
f 1483 1467 1466
f 1484 1478 1479
f 1483 1468 1467
f 1484 1479 1480
f 1483 1469 1468
f 1484 1480 1481
f 1483 1470 1469
f 1484 1481 1482
f 1483 1459 1470
f 1484 1482 1471
g tail-tip
f 1485 1486 1498
f 1485 1498 1497
f 1486 1487 1499
f 1486 1499 1498
f 1487 1488 1500
f 1487 1500 1499
f 1488 1489 1501
f 1488 1501 1500
f 1489 1490 1502
f 1489 1502 1501
f 1490 1491 1503
f 1490 1503 1502
f 1491 1492 1504
f 1491 1504 1503
f 1492 1493 1505
f 1492 1505 1504
f 1493 1494 1506
f 1493 1506 1505
f 1494 1495 1507
f 1494 1507 1506
f 1495 1496 1508
f 1495 1508 1507
f 1496 1485 1497
f 1496 1497 1508
f 1509 1486 1485
f 1510 1497 1498
f 1509 1487 1486
f 1510 1498 1499
f 1509 1488 1487
f 1510 1499 1500
f 1509 1489 1488
f 1510 1500 1501
f 1509 1490 1489
f 1510 1501 1502
f 1509 1491 1490
f 1510 1502 1503
f 1509 1492 1491
f 1510 1503 1504
f 1509 1493 1492
f 1510 1504 1505
f 1509 1494 1493
f 1510 1505 1506
f 1509 1495 1494
f 1510 1506 1507
f 1509 1496 1495
f 1510 1507 1508
f 1509 1485 1496
f 1510 1508 1497
