# Traditional two-story gable farmhouse v2 - explicit support chain
v -4.200000 0.000000 -3.400000
v 4.200000 0.000000 -3.400000
v 4.200000 0.500000 -3.400000
v -4.200000 0.500000 -3.400000
v -4.200000 0.000000 3.400000
v 4.200000 0.000000 3.400000
v 4.200000 0.500000 3.400000
v -4.200000 0.500000 3.400000
v -4.200000 0.500000 -3.400000
v 4.200000 0.500000 -3.400000
v 4.200000 4.620000 -3.400000
v -4.200000 4.620000 -3.400000
v -4.200000 0.500000 3.400000
v 4.200000 0.500000 3.400000
v 4.200000 4.620000 3.400000
v -4.200000 4.620000 3.400000
v -4.200000 4.620000 -3.400000
v -3.960000 4.620000 -3.400000
v -3.960000 4.760000 -3.400000
v -4.200000 4.760000 -3.400000
v -4.200000 4.620000 3.400000
v -3.960000 4.620000 3.400000
v -3.960000 4.760000 3.400000
v -4.200000 4.760000 3.400000
v 3.960000 4.620000 -3.400000
v 4.200000 4.620000 -3.400000
v 4.200000 4.760000 -3.400000
v 3.960000 4.760000 -3.400000
v 3.960000 4.620000 3.400000
v 4.200000 4.620000 3.400000
v 4.200000 4.760000 3.400000
v 3.960000 4.760000 3.400000
v -4.650000 4.624563 -3.880000
v 0.040000 7.220000 -3.880000
v -4.650000 4.624563 3.880000
v 0.040000 7.220000 3.880000
v -4.650000 4.444563 -3.880000
v 0.040000 7.040000 -3.880000
v -4.650000 4.444563 3.880000
v 0.040000 7.040000 3.880000
v 4.650000 4.624563 -3.880000
v -0.040000 7.220000 -3.880000
v 4.650000 4.624563 3.880000
v -0.040000 7.220000 3.880000
v 4.650000 4.444563 -3.880000
v -0.040000 7.040000 -3.880000
v 4.650000 4.444563 3.880000
v -0.040000 7.040000 3.880000
v -0.050000 7.040000 -3.550000
v 0.050000 7.040000 -3.550000
v 0.050000 7.202000 -3.550000
v -0.050000 7.202000 -3.550000
v -0.050000 7.040000 3.550000
v 0.050000 7.040000 3.550000
v 0.050000 7.202000 3.550000
v -0.050000 7.202000 3.550000
v -4.200000 4.620000 3.260000
v 4.200000 4.620000 3.260000
v 0.000000 7.100000 3.260000
v -4.200000 4.620000 3.460000
v 4.200000 4.620000 3.460000
v 0.000000 7.100000 3.460000
v -4.200000 4.620000 -3.460000
v 4.200000 4.620000 -3.460000
v 0.000000 7.100000 -3.460000
v -4.200000 4.620000 -3.260000
v 4.200000 4.620000 -3.260000
v 0.000000 7.100000 -3.260000
v -2.590000 0.000000 -1.180000
v -1.910000 0.000000 -1.180000
v -1.910000 8.100000 -1.180000
v -2.590000 8.100000 -1.180000
v -2.590000 0.000000 -0.460000
v -1.910000 0.000000 -0.460000
v -1.910000 8.100000 -0.460000
v -2.590000 8.100000 -0.460000
v -2.900000 0.000000 4.920000
v -2.600000 0.000000 4.920000
v -2.600000 0.260000 4.920000
v -2.900000 0.260000 4.920000
v -2.900000 0.000000 5.220000
v -2.600000 0.000000 5.220000
v -2.600000 0.260000 5.220000
v -2.900000 0.260000 5.220000
v -1.070000 0.000000 4.920000
v -0.770000 0.000000 4.920000
v -0.770000 0.260000 4.920000
v -1.070000 0.260000 4.920000
v -1.070000 0.000000 5.220000
v -0.770000 0.000000 5.220000
v -0.770000 0.260000 5.220000
v -1.070000 0.260000 5.220000
v 0.770000 0.000000 4.920000
v 1.070000 0.000000 4.920000
v 1.070000 0.260000 4.920000
v 0.770000 0.260000 4.920000
v 0.770000 0.000000 5.220000
v 1.070000 0.000000 5.220000
v 1.070000 0.260000 5.220000
v 0.770000 0.260000 5.220000
v 2.600000 0.000000 4.920000
v 2.900000 0.000000 4.920000
v 2.900000 0.260000 4.920000
v 2.600000 0.260000 4.920000
v 2.600000 0.000000 5.220000
v 2.900000 0.000000 5.220000
v 2.900000 0.260000 5.220000
v 2.600000 0.260000 5.220000
v -3.275000 0.260000 4.950000
v 3.275000 0.260000 4.950000
v 3.275000 0.420000 4.950000
v -3.275000 0.420000 4.950000
v -3.275000 0.260000 5.190000
v 3.275000 0.260000 5.190000
v 3.275000 0.420000 5.190000
v -3.275000 0.420000 5.190000
v -3.275000 0.420000 3.380000
v 3.275000 0.420000 3.380000
v 3.275000 0.580000 3.380000
v -3.275000 0.580000 3.380000
v -3.275000 0.420000 5.250000
v 3.275000 0.420000 5.250000
v 3.275000 0.580000 5.250000
v -3.275000 0.580000 5.250000
v -2.845000 0.580000 4.975000
v -2.655000 0.580000 4.975000
v -2.655000 2.660000 4.975000
v -2.845000 2.660000 4.975000
v -2.845000 0.580000 5.165000
v -2.655000 0.580000 5.165000
v -2.655000 2.660000 5.165000
v -2.845000 2.660000 5.165000
v -1.015000 0.580000 4.975000
v -0.825000 0.580000 4.975000
v -0.825000 2.660000 4.975000
v -1.015000 2.660000 4.975000
v -1.015000 0.580000 5.165000
v -0.825000 0.580000 5.165000
v -0.825000 2.660000 5.165000
v -1.015000 2.660000 5.165000
v 0.825000 0.580000 4.975000
v 1.015000 0.580000 4.975000
v 1.015000 2.660000 4.975000
v 0.825000 2.660000 4.975000
v 0.825000 0.580000 5.165000
v 1.015000 0.580000 5.165000
v 1.015000 2.660000 5.165000
v 0.825000 2.660000 5.165000
v 2.655000 0.580000 4.975000
v 2.845000 0.580000 4.975000
v 2.845000 2.660000 4.975000
v 2.655000 2.660000 4.975000
v 2.655000 0.580000 5.165000
v 2.845000 0.580000 5.165000
v 2.845000 2.660000 5.165000
v 2.655000 2.660000 5.165000
v -3.325000 2.660000 4.960000
v 3.325000 2.660000 4.960000
v 3.325000 2.840000 4.960000
v -3.325000 2.840000 4.960000
v -3.325000 2.660000 5.180000
v 3.325000 2.660000 5.180000
v 3.325000 2.840000 5.180000
v -3.325000 2.840000 5.180000
v -3.375000 3.280000 3.365000
v 3.375000 3.280000 3.365000
v 3.375000 3.440000 3.365000
v -3.375000 3.440000 3.365000
v -3.375000 3.280000 3.545000
v 3.375000 3.280000 3.545000
v 3.375000 3.440000 3.545000
v -3.375000 3.440000 3.545000
v -3.450000 3.623003 3.420000
v 3.450000 3.623003 3.420000
v -3.450000 2.876254 5.430000
v 3.450000 2.876254 5.430000
v -3.450000 3.453003 3.420000
v 3.450000 3.453003 3.420000
v -3.450000 2.706254 5.430000
v 3.450000 2.706254 5.430000
v -0.775000 0.000000 6.270000
v 0.775000 0.000000 6.270000
v 0.775000 0.145000 6.270000
v -0.775000 0.145000 6.270000
v -0.775000 0.000000 6.610000
v 0.775000 0.000000 6.610000
v 0.775000 0.145000 6.610000
v -0.775000 0.145000 6.610000
v -0.825000 0.000000 5.930000
v 0.825000 0.000000 5.930000
v 0.825000 0.290000 5.930000
v -0.825000 0.290000 5.930000
v -0.825000 0.000000 6.270000
v 0.825000 0.000000 6.270000
v 0.825000 0.290000 6.270000
v -0.825000 0.290000 6.270000
v -0.875000 0.000000 5.590000
v 0.875000 0.000000 5.590000
v 0.875000 0.435000 5.590000
v -0.875000 0.435000 5.590000
v -0.875000 0.000000 5.930000
v 0.875000 0.000000 5.930000
v 0.875000 0.435000 5.930000
v -0.875000 0.435000 5.930000
v -0.925000 0.000000 5.250000
v 0.925000 0.000000 5.250000
v 0.925000 0.580000 5.250000
v -0.925000 0.580000 5.250000
v -0.925000 0.000000 5.590000
v 0.925000 0.000000 5.590000
v 0.925000 0.580000 5.590000
v -0.925000 0.580000 5.590000
v 0.700000 0.000000 -4.080000
v 2.400000 0.000000 -4.080000
v 2.400000 0.360000 -4.080000
v 0.700000 0.360000 -4.080000
v 0.700000 0.000000 -3.400000
v 2.400000 0.000000 -3.400000
v 2.400000 0.360000 -3.400000
v 0.700000 0.360000 -3.400000
g foundation
f 1 2 3
f 1 3 4
f 5 7 6
f 5 8 7
f 1 5 6
f 1 6 2
f 4 3 7
f 4 7 8
f 2 6 7
f 2 7 3
f 1 4 8
f 1 8 5
g main-walls
f 9 10 11
f 9 11 12
f 13 15 14
f 13 16 15
f 9 13 14
f 9 14 10
f 12 11 15
f 12 15 16
f 10 14 15
f 10 15 11
f 9 12 16
f 9 16 13
g top-plate-left
f 17 18 19
f 17 19 20
f 21 23 22
f 21 24 23
f 17 21 22
f 17 22 18
f 20 19 23
f 20 23 24
f 18 22 23
f 18 23 19
f 17 20 24
f 17 24 21
g top-plate-right
f 25 26 27
f 25 27 28
f 29 31 30
f 29 32 31
f 25 29 30
f 25 30 26
f 28 27 31
f 28 31 32
f 26 30 31
f 26 31 27
f 25 28 32
f 25 32 29
g roof-left
f 33 34 36
f 33 36 35
f 37 39 40
f 37 40 38
f 33 37 38
f 33 38 34
f 35 36 40
f 35 40 39
f 33 35 39
f 33 39 37
f 34 38 40
f 34 40 36
g roof-right
f 41 42 44
f 41 44 43
f 45 47 48
f 45 48 46
f 41 45 46
f 41 46 42
f 43 44 48
f 43 48 47
f 41 43 47
f 41 47 45
f 42 46 48
f 42 48 44
g ridge-board
f 49 50 51
f 49 51 52
f 53 55 54
f 53 56 55
f 49 53 54
f 49 54 50
f 52 51 55
f 52 55 56
f 50 54 55
f 50 55 51
f 49 52 56
f 49 56 53
g front-gable
f 57 58 59
f 60 62 61
f 57 60 61
f 57 61 58
f 58 61 62
f 58 62 59
f 59 62 60
f 59 60 57
g rear-gable
f 63 64 65
f 66 68 67
f 63 66 67
f 63 67 64
f 64 67 68
f 64 68 65
f 65 68 66
f 65 66 63
g chimney
f 69 70 71
f 69 71 72
f 73 75 74
f 73 76 75
f 69 73 74
f 69 74 70
f 72 71 75
f 72 75 76
f 70 74 75
f 70 75 71
f 69 72 76
f 69 76 73
g porch-pier-1
f 77 78 79
f 77 79 80
f 81 83 82
f 81 84 83
f 77 81 82
f 77 82 78
f 80 79 83
f 80 83 84
f 78 82 83
f 78 83 79
f 77 80 84
f 77 84 81
g porch-pier-2
f 85 86 87
f 85 87 88
f 89 91 90
f 89 92 91
f 85 89 90
f 85 90 86
f 88 87 91
f 88 91 92
f 86 90 91
f 86 91 87
f 85 88 92
f 85 92 89
g porch-pier-3
f 93 94 95
f 93 95 96
f 97 99 98
f 97 100 99
f 93 97 98
f 93 98 94
f 96 95 99
f 96 99 100
f 94 98 99
f 94 99 95
f 93 96 100
f 93 100 97
g porch-pier-4
f 101 102 103
f 101 103 104
f 105 107 106
f 105 108 107
f 101 105 106
f 101 106 102
f 104 103 107
f 104 107 108
f 102 106 107
f 102 107 103
f 101 104 108
f 101 108 105
g porch-deck-beam
f 109 110 111
f 109 111 112
f 113 115 114
f 113 116 115
f 109 113 114
f 109 114 110
f 112 111 115
f 112 115 116
f 110 114 115
f 110 115 111
f 109 112 116
f 109 116 113
g porch-deck
f 117 118 119
f 117 119 120
f 121 123 122
f 121 124 123
f 117 121 122
f 117 122 118
f 120 119 123
f 120 123 124
f 118 122 123
f 118 123 119
f 117 120 124
f 117 124 121
g porch-column-1
f 125 126 127
f 125 127 128
f 129 131 130
f 129 132 131
f 125 129 130
f 125 130 126
f 128 127 131
f 128 131 132
f 126 130 131
f 126 131 127
f 125 128 132
f 125 132 129
g porch-column-2
f 133 134 135
f 133 135 136
f 137 139 138
f 137 140 139
f 133 137 138
f 133 138 134
f 136 135 139
f 136 139 140
f 134 138 139
f 134 139 135
f 133 136 140
f 133 140 137
g porch-column-3
f 141 142 143
f 141 143 144
f 145 147 146
f 145 148 147
f 141 145 146
f 141 146 142
f 144 143 147
f 144 147 148
f 142 146 147
f 142 147 143
f 141 144 148
f 141 148 145
g porch-column-4
f 149 150 151
f 149 151 152
f 153 155 154
f 153 156 155
f 149 153 154
f 149 154 150
f 152 151 155
f 152 155 156
f 150 154 155
f 150 155 151
f 149 152 156
f 149 156 153
g porch-header
f 157 158 159
f 157 159 160
f 161 163 162
f 161 164 163
f 157 161 162
f 157 162 158
f 160 159 163
f 160 163 164
f 158 162 163
f 158 163 159
f 157 160 164
f 157 164 161
g porch-ledger
f 165 166 167
f 165 167 168
f 169 171 170
f 169 172 171
f 165 169 170
f 165 170 166
f 168 167 171
f 168 171 172
f 166 170 171
f 166 171 167
f 165 168 172
f 165 172 169
g porch-roof
f 173 174 176
f 173 176 175
f 177 179 180
f 177 180 178
f 173 177 178
f 173 178 174
f 175 176 180
f 175 180 179
f 173 175 179
f 173 179 177
f 174 178 180
f 174 180 176
g front-step-1
f 181 182 183
f 181 183 184
f 185 187 186
f 185 188 187
f 181 185 186
f 181 186 182
f 184 183 187
f 184 187 188
f 182 186 187
f 182 187 183
f 181 184 188
f 181 188 185
g front-step-2
f 189 190 191
f 189 191 192
f 193 195 194
f 193 196 195
f 189 193 194
f 189 194 190
f 192 191 195
f 192 195 196
f 190 194 195
f 190 195 191
f 189 192 196
f 189 196 193
g front-step-3
f 197 198 199
f 197 199 200
f 201 203 202
f 201 204 203
f 197 201 202
f 197 202 198
f 200 199 203
f 200 203 204
f 198 202 203
f 198 203 199
f 197 200 204
f 197 204 201
g front-step-4
f 205 206 207
f 205 207 208
f 209 211 210
f 209 212 211
f 205 209 210
f 205 210 206
f 208 207 211
f 208 211 212
f 206 210 211
f 206 211 207
f 205 208 212
f 205 212 209
g rear-stoop
f 213 214 215
f 213 215 216
f 217 219 218
f 217 220 219
f 213 217 218
f 213 218 214
f 216 215 219
f 216 219 220
f 214 218 219
f 214 219 215
f 213 216 220
f 213 220 217
