# Projecting blade sign with wall hardware
v -0.170000 2.160000 0.000000
v 0.170000 2.160000 0.000000
v 0.170000 2.520000 0.000000
v -0.170000 2.520000 0.000000
v -0.170000 2.160000 0.090000
v 0.170000 2.160000 0.090000
v 0.170000 2.520000 0.090000
v -0.170000 2.520000 0.090000
v -0.150000 1.770000 0.000000
v 0.150000 1.770000 0.000000
v 0.150000 2.070000 0.000000
v -0.150000 2.070000 0.000000
v -0.150000 1.770000 0.090000
v 0.150000 1.770000 0.090000
v 0.150000 2.070000 0.090000
v -0.150000 2.070000 0.090000
v -0.050000 2.290000 0.045000
v 0.050000 2.290000 0.045000
v 0.050000 2.390000 0.045000
v -0.050000 2.390000 0.045000
v -0.050000 2.290000 1.295000
v 0.050000 2.290000 1.295000
v 0.050000 2.390000 1.295000
v -0.050000 2.390000 1.295000
v -0.040000 1.980000 0.090000
v -0.034641 1.961113 0.096579
v -0.020000 1.947287 0.101395
v -0.000000 1.942226 0.103157
v 0.020000 1.947287 0.101395
v 0.034641 1.961113 0.096579
v 0.040000 1.980000 0.090000
v 0.034641 1.998887 0.083421
v 0.020000 2.012713 0.078605
v 0.000000 2.017774 0.076843
v -0.020000 2.012713 0.078605
v -0.034641 1.998887 0.083421
v -0.040000 2.290000 0.980000
v -0.034641 2.271113 0.986579
v -0.020000 2.257287 0.991395
v -0.000000 2.252226 0.993157
v 0.020000 2.257287 0.991395
v 0.034641 2.271113 0.986579
v 0.040000 2.290000 0.980000
v 0.034641 2.308887 0.973421
v 0.020000 2.322713 0.968605
v 0.000000 2.327774 0.966843
v -0.020000 2.322713 0.968605
v -0.034641 2.308887 0.973421
v 0.000000 1.980000 0.090000
v 0.000000 2.290000 0.980000
v 0.030000 2.290000 0.440000
v 0.024271 2.290000 0.457634
v 0.009271 2.290000 0.468532
v -0.009271 2.290000 0.468532
v -0.024271 2.290000 0.457634
v -0.030000 2.290000 0.440000
v -0.024271 2.290000 0.422366
v -0.009271 2.290000 0.411468
v 0.009271 2.290000 0.411468
v 0.024271 2.290000 0.422366
v 0.030000 2.040000 0.440000
v 0.024271 2.040000 0.457634
v 0.009271 2.040000 0.468532
v -0.009271 2.040000 0.468532
v -0.024271 2.040000 0.457634
v -0.030000 2.040000 0.440000
v -0.024271 2.040000 0.422366
v -0.009271 2.040000 0.411468
v 0.009271 2.040000 0.411468
v 0.024271 2.040000 0.422366
v 0.000000 2.290000 0.440000
v 0.000000 2.040000 0.440000
v 0.030000 2.290000 0.960000
v 0.024271 2.290000 0.977634
v 0.009271 2.290000 0.988532
v -0.009271 2.290000 0.988532
v -0.024271 2.290000 0.977634
v -0.030000 2.290000 0.960000
v -0.024271 2.290000 0.942366
v -0.009271 2.290000 0.931468
v 0.009271 2.290000 0.931468
v 0.024271 2.290000 0.942366
v 0.030000 2.040000 0.960000
v 0.024271 2.040000 0.977634
v 0.009271 2.040000 0.988532
v -0.009271 2.040000 0.988532
v -0.024271 2.040000 0.977634
v -0.030000 2.040000 0.960000
v -0.024271 2.040000 0.942366
v -0.009271 2.040000 0.931468
v 0.009271 2.040000 0.931468
v 0.024271 2.040000 0.942366
v 0.000000 2.290000 0.960000
v 0.000000 2.040000 0.960000
v -0.060000 1.200000 0.210000
v 0.060000 1.200000 0.210000
v 0.060000 2.040000 0.210000
v -0.060000 2.040000 0.210000
v -0.060000 1.200000 1.190000
v 0.060000 1.200000 1.190000
v 0.060000 2.040000 1.190000
v -0.060000 2.040000 1.190000
v -0.080000 2.020000 0.180000
v 0.080000 2.020000 0.180000
v 0.080000 2.090000 0.180000
v -0.080000 2.090000 0.180000
v -0.080000 2.020000 1.220000
v 0.080000 2.020000 1.220000
v 0.080000 2.090000 1.220000
v -0.080000 2.090000 1.220000
v -0.080000 1.150000 0.180000
v 0.080000 1.150000 0.180000
v 0.080000 1.220000 0.180000
v -0.080000 1.220000 0.180000
v -0.080000 1.150000 1.220000
v 0.080000 1.150000 1.220000
v 0.080000 1.220000 1.220000
v -0.080000 1.220000 1.220000
g wall-plate-upper
f 1 2 3
f 1 3 4
f 5 7 6
f 5 8 7
f 1 5 6
f 1 6 2
f 4 3 7
f 4 7 8
f 2 6 7
f 2 7 3
f 1 4 8
f 1 8 5
g wall-plate-lower
f 9 10 11
f 9 11 12
f 13 15 14
f 13 16 15
f 9 13 14
f 9 14 10
f 12 11 15
f 12 15 16
f 10 14 15
f 10 15 11
f 9 12 16
f 9 16 13
g top-arm
f 17 18 19
f 17 19 20
f 21 23 22
f 21 24 23
f 17 21 22
f 17 22 18
f 20 19 23
f 20 23 24
f 18 22 23
f 18 23 19
f 17 20 24
f 17 24 21
g diagonal-brace
f 25 26 38
f 25 38 37
f 26 27 39
f 26 39 38
f 27 28 40
f 27 40 39
f 28 29 41
f 28 41 40
f 29 30 42
f 29 42 41
f 30 31 43
f 30 43 42
f 31 32 44
f 31 44 43
f 32 33 45
f 32 45 44
f 33 34 46
f 33 46 45
f 34 35 47
f 34 47 46
f 35 36 48
f 35 48 47
f 36 25 37
f 36 37 48
f 49 26 25
f 50 37 38
f 49 27 26
f 50 38 39
f 49 28 27
f 50 39 40
f 49 29 28
f 50 40 41
f 49 30 29
f 50 41 42
f 49 31 30
f 50 42 43
f 49 32 31
f 50 43 44
f 49 33 32
f 50 44 45
f 49 34 33
f 50 45 46
f 49 35 34
f 50 46 47
f 49 36 35
f 50 47 48
f 49 25 36
f 50 48 37
g hanger-inner
f 51 52 62
f 51 62 61
f 52 53 63
f 52 63 62
f 53 54 64
f 53 64 63
f 54 55 65
f 54 65 64
f 55 56 66
f 55 66 65
f 56 57 67
f 56 67 66
f 57 58 68
f 57 68 67
f 58 59 69
f 58 69 68
f 59 60 70
f 59 70 69
f 60 51 61
f 60 61 70
f 71 52 51
f 72 61 62
f 71 53 52
f 72 62 63
f 71 54 53
f 72 63 64
f 71 55 54
f 72 64 65
f 71 56 55
f 72 65 66
f 71 57 56
f 72 66 67
f 71 58 57
f 72 67 68
f 71 59 58
f 72 68 69
f 71 60 59
f 72 69 70
f 71 51 60
f 72 70 61
g hanger-outer
f 73 74 84
f 73 84 83
f 74 75 85
f 74 85 84
f 75 76 86
f 75 86 85
f 76 77 87
f 76 87 86
f 77 78 88
f 77 88 87
f 78 79 89
f 78 89 88
f 79 80 90
f 79 90 89
f 80 81 91
f 80 91 90
f 81 82 92
f 81 92 91
f 82 73 83
f 82 83 92
f 93 74 73
f 94 83 84
f 93 75 74
f 94 84 85
f 93 76 75
f 94 85 86
f 93 77 76
f 94 86 87
f 93 78 77
f 94 87 88
f 93 79 78
f 94 88 89
f 93 80 79
f 94 89 90
f 93 81 80
f 94 90 91
f 93 82 81
f 94 91 92
f 93 73 82
f 94 92 83
g sign-cabinet
f 95 96 97
f 95 97 98
f 99 101 100
f 99 102 101
f 95 99 100
f 95 100 96
f 98 97 101
f 98 101 102
f 96 100 101
f 96 101 97
f 95 98 102
f 95 102 99
g sign-top-trim
f 103 104 105
f 103 105 106
f 107 109 108
f 107 110 109
f 103 107 108
f 103 108 104
f 106 105 109
f 106 109 110
f 104 108 109
f 104 109 105
f 103 106 110
f 103 110 107
g sign-bottom-trim
f 111 112 113
f 111 113 114
f 115 117 116
f 115 118 117
f 111 115 116
f 111 116 112
f 114 113 117
f 114 117 118
f 112 116 117
f 112 117 113
f 111 114 118
f 111 118 115
